<?xml version="1.0" encoding="utf-8"?>
<!-- Generator: Adobe Illustrator 16.0.4, SVG Export Plug-In . SVG Version: 6.00 Build 0)  -->
<!DOCTYPE svg PUBLIC "-//W3C//DTD SVG 1.1//EN" "http://www.w3.org/Graphics/SVG/1.1/DTD/svg11.dtd">
<svg version="1.1" id="Layer_1" xmlns="http://www.w3.org/2000/svg" xmlns:xlink="http://www.w3.org/1999/xlink" x="0px" y="0px"
	 width="24px" height="24px" viewBox="0 0 24 24" enable-background="new 0 0 24 24" xml:space="preserve">
<path d="M12.725,14.427c0.064,0.267,0.078,0.679-0.021,0.948c-0.128,0.352-0.381,0.527-0.754,0.527h-0.637v-2.119h0.496
	C12.283,13.783,12.612,13.956,12.725,14.427z M15.816,5.777c2.047-0.479,4.805,0.279,6.09,1.179
	c-1.494-1.997-5.23-5.708-7.432-6.882C15.631,1.242,16.037,4.309,15.816,5.777z M8.359,13.732H7.813v0.942h0.546
	c0.235,0,0.467-0.026,0.576-0.227c0.067-0.123,0.067-0.366,0-0.489C8.826,13.761,8.594,13.732,8.359,13.732z M21.906,11v13h-20V0
	h8.409c4.858,0,3.334,8,3.334,8C16.66,7.255,21.906,7.58,21.906,11z M9.798,13.761C9.638,13.277,9.192,13,8.574,13H6.906v3.686
	h0.907v-1.276h0.761c0.619,0,1.064-0.277,1.224-0.763C9.892,14.354,9.892,14.049,9.798,13.761z M13.205,13.458
	C12.908,13.159,12.494,13,12.006,13h-1.599v3.686h1.599c0.537,0,0.96-0.181,1.261-0.535C13.822,15.492,13.854,14.116,13.205,13.458z
	 M16.906,13h-2.628v3.686h0.907v-1.472h1.49v-0.731h-1.49v-0.698h1.721V13z"/>
<rect x="6.156" y="12.438" width="11.5" height="4.531"/>
<text transform="matrix(1 0 0 1 3.1543 22.875)" fill="#FFFAFD" font-family="'Arial-Black'" font-size="9">BIB</text>
</svg>
