<?xml version="1.0" encoding="utf-8"?>
<!-- Generator: Adobe Illustrator 16.0.4, SVG Export Plug-In . SVG Version: 6.00 Build 0)  -->
<!DOCTYPE svg PUBLIC "-//W3C//DTD SVG 1.1//EN" "http://www.w3.org/Graphics/SVG/1.1/DTD/svg11.dtd">
<svg version="1.1" id="Layer_1" xmlns="http://www.w3.org/2000/svg" xmlns:xlink="http://www.w3.org/1999/xlink" x="0px" y="0px"
	 width="24px" height="24px" viewBox="0 0 24 24" enable-background="new 0 0 24 24" xml:space="preserve">
<path d="M12.818,14.426c0.064,0.268,0.078,0.68-0.021,0.949c-0.128,0.352-0.381,0.527-0.754,0.527h-0.637v-2.119h0.495
	C12.377,13.783,12.706,13.955,12.818,14.426z M15.91,5.776c2.047-0.479,4.805,0.279,6.09,1.179c-1.494-1.997-5.23-5.708-7.432-6.882
	C15.725,1.242,16.131,4.309,15.91,5.776z M8.453,13.732H7.907v0.941h0.546c0.234,0,0.467-0.025,0.575-0.227
	c0.067-0.123,0.067-0.365,0-0.488C8.92,13.76,8.688,13.732,8.453,13.732z M22,11v13H2V0h8.409c4.858,0,3.334,8,3.334,8
	C16.754,7.254,22,7.58,22,11z M9.892,13.76C9.731,13.277,9.286,13,8.668,13H7v3.686h0.907v-1.277h0.761
	c0.619,0,1.063-0.277,1.224-0.762C9.985,14.354,9.985,14.049,9.892,13.76z M13.299,13.457C13.002,13.158,12.588,13,12.1,13h-1.599
	v3.686H12.1c0.537,0,0.961-0.182,1.262-0.535C13.916,15.492,13.948,14.115,13.299,13.457z M17,13h-2.628v3.686h0.907v-1.473h1.49
	v-0.73h-1.49v-0.699H17V13z"/>
<rect x="6.156" y="12.438" width="11.5" height="4.531"/>
<text transform="matrix(1 0 0 1 2.248 22.875)" fill="#FFFAFD" font-family="'Arial-Black'" font-size="9">PDF</text>
</svg>
