<svg id="Layer_1" data-name="Layer 1" xmlns="http://www.w3.org/2000/svg" viewBox="0 0 100 100"><defs><style>.cls-1{fill:none;}.cls-2{fill:#fff;}</style></defs><title>alarm side bar-01</title><g id="New_Symbol_2" data-name="New Symbol 2"><rect class="cls-1" x="22.04" y="22.04" width="55.92" height="55.92" rx="3.7" ry="3.7" transform="translate(-20.71 50) rotate(-45)"/><path class="cls-2" d="M50,14.78a.91.91,0,0,1,.65.26L85,49.35a.94.94,0,0,1,0,1.3L50.65,85a.94.94,0,0,1-1.3,0L15,50.65a.94.94,0,0,1,0-1.3L49.35,15a.91.91,0,0,1,.65-.26M50,12a3.69,3.69,0,0,0-2.62,1.08l-34.3,34.3a3.72,3.72,0,0,0,0,5.24l34.3,34.3a3.72,3.72,0,0,0,5.24,0l34.3-34.3a3.72,3.72,0,0,0,0-5.24l-34.3-34.3A3.69,3.69,0,0,0,50,12Z"/><path class="cls-2" d="M62.28,57.53H59.91L56.66,43.12a2.38,2.38,0,0,0-2.33-1.86H45.51a2.36,2.36,0,0,0-2.32,1.86L39.94,57.53H37.56a.6.6,0,0,0-.6.6v4.59a.6.6,0,0,0,.6.61H62.29a.61.61,0,0,0,.61-.61V58.13A.63.63,0,0,0,62.28,57.53ZM44.37,43.39a1.18,1.18,0,0,1,1.14-.91h8.82a1.17,1.17,0,0,1,1.14.91l3.19,14.14H41.18Z"/><path class="cls-2" d="M62.29,63.89H37.56a1.16,1.16,0,0,1-1.16-1.17V58.13A1.16,1.16,0,0,1,37.56,57h1.93l3.16-14a2.91,2.91,0,0,1,2.86-2.28h8.82A2.92,2.92,0,0,1,57.2,43l3.15,14h1.93a1.19,1.19,0,0,1,1.18,1.14v4.61A1.17,1.17,0,0,1,62.29,63.89ZM37.56,58.08a.06.06,0,0,0-.05.05v4.59a.06.06,0,0,0,.05.06H62.29a.06.06,0,0,0,.06-.06V58.15a.08.08,0,0,0-.07-.07H59.46L56.11,43.24a1.8,1.8,0,0,0-1.78-1.42H45.51a1.81,1.81,0,0,0-1.78,1.42L40.38,58.08Zm21.8,0H40.49l3.34-14.81a1.73,1.73,0,0,1,1.68-1.35h8.82A1.72,1.72,0,0,1,56,43.27ZM41.88,57H58l-3-13.46a.62.62,0,0,0-.6-.48H45.51a.61.61,0,0,0-.59.48Z"/><path class="cls-2" d="M49.92,36.13a.61.61,0,0,0,.61-.61V30.66a.61.61,0,0,0-.61-.61.61.61,0,0,0-.61.61v4.86A.62.62,0,0,0,49.92,36.13Z"/><path class="cls-2" d="M49.92,36.68a1.16,1.16,0,0,1-1.16-1.16V30.66a1.17,1.17,0,1,1,2.33,0v4.86A1.17,1.17,0,0,1,49.92,36.68Zm0-6.08a.06.06,0,0,0-.05.06v4.86a0,0,0,0,0,.1,0V30.66A.06.06,0,0,0,49.92,30.6Z"/><path class="cls-2" d="M39.27,39.41a.59.59,0,0,0,.85,0,.62.62,0,0,0,0-.87L36.7,35.11a.61.61,0,0,0-.86.87Z"/><path class="cls-2" d="M39.7,40.15a1.12,1.12,0,0,1-.82-.35l-3.44-3.43a1.17,1.17,0,0,1-.34-.83,1.18,1.18,0,0,1,1.17-1.17,1.12,1.12,0,0,1,.82.35l3.42,3.43a1.14,1.14,0,0,1,.35.83,1.2,1.2,0,0,1-1.16,1.17Zm-3.43-4.67,0,0s0,0,0,0,0,0,0,0L39.66,39a0,0,0,0,0,.07,0,.06.06,0,0,0,0-.08L36.31,35.5Z"/><path class="cls-2" d="M36.85,49.2a.6.6,0,0,0-.6-.61H31.38a.61.61,0,1,0,0,1.21h4.87A.6.6,0,0,0,36.85,49.2Z"/><path class="cls-2" d="M36.25,50.36H31.38a1.17,1.17,0,0,1,0-2.33h4.87a1.17,1.17,0,0,1,0,2.33Zm-4.87-1.22a.06.06,0,0,0-.05.06.05.05,0,0,0,.05,0h4.87a.06.06,0,0,0,0-.11Z"/><path class="cls-2" d="M60.13,39.59a.6.6,0,0,0,.43-.18L64,36a.61.61,0,0,0-.86-.87l-3.44,3.43a.62.62,0,0,0,0,.87A.68.68,0,0,0,60.13,39.59Z"/><path class="cls-2" d="M60.13,40.15a1.22,1.22,0,0,1-.81-.32l0,0A1.16,1.16,0,0,1,59,39a1.18,1.18,0,0,1,.35-.83l3.43-3.43a1.17,1.17,0,0,1,2,.82,1.17,1.17,0,0,1-.34.83L61,39.8A1.12,1.12,0,0,1,60.13,40.15ZM60.08,39c.06.05.06,0,.09,0l3.43-3.44a.05.05,0,0,0,0,0l0,0a.06.06,0,0,0-.08,0l-3.43,3.44s0,0,0,0A0,0,0,0,0,60.08,39Z"/><path class="cls-2" d="M68.46,48.59H63.6a.61.61,0,1,0,0,1.21h4.86a.61.61,0,1,0,0-1.21Z"/><path class="cls-2" d="M68.46,50.36H63.6a1.17,1.17,0,0,1,0-2.33h4.86a1.17,1.17,0,1,1,0,2.33ZM63.6,49.14a.06.06,0,0,0-.05.06.05.05,0,0,0,.05,0h4.86a.05.05,0,0,0,.05,0,.06.06,0,0,0-.05-.06Z"/></g></svg>