<svg id="Layer_1" data-name="Layer 1" xmlns="http://www.w3.org/2000/svg" xmlns:xlink="http://www.w3.org/1999/xlink" viewBox="0 0 440 440"><defs><style>.cls-1{fill:#ff0;}.cls-2{stroke:#000;stroke-miterlimit:10;stroke-width:6px;}</style><symbol id="New_Symbol_2" data-name="New Symbol 2" viewBox="0 0 410.48 410.48"><path class="cls-1" d="M219.38,404.64a20.05,20.05,0,0,1-28.28,0L5.83,219.38a20.07,20.07,0,0,1,0-28.28L191.1,5.83a20.07,20.07,0,0,1,28.28,0L404.64,191.1a20.05,20.05,0,0,1,0,28.28Z"/><path d="M205.24,15a5,5,0,0,1,3.53,1.44L394,201.7a5.08,5.08,0,0,1,0,7.07L208.77,394a5.06,5.06,0,0,1-7.07,0L16.44,208.77a5.06,5.06,0,0,1,0-7.07L201.7,16.44A5,5,0,0,1,205.24,15m0-15A20,20,0,0,0,191.1,5.83L5.83,191.1a20.07,20.07,0,0,0,0,28.28L191.1,404.64a20,20,0,0,0,28.28,0L404.64,219.38a20.05,20.05,0,0,0,0-28.28L219.38,5.83A20,20,0,0,0,205.24,0Z"/><path class="cls-2" d="M271.56,245.88H258.75l-17.57-77.82a12.75,12.75,0,0,0-12.56-10H181a12.75,12.75,0,0,0-12.56,10l-17.57,77.82h-12.8a3.3,3.3,0,0,0-3.29,3.29V274a3.29,3.29,0,0,0,3.29,3.28H271.64a3.28,3.28,0,0,0,3.28-3.28V249.17A3.42,3.42,0,0,0,271.56,245.88Zm-96.71-76.34a6.33,6.33,0,0,1,6.16-4.93h47.61a6.33,6.33,0,0,1,6.16,4.93L252,245.88H157.61Z"/><path class="cls-2" d="M204.82,130.31A3.29,3.29,0,0,0,208.1,127V100.76a3.29,3.29,0,0,0-6.57,0V127A3.29,3.29,0,0,0,204.82,130.31Z"/><path class="cls-2" d="M147.29,148.05a3.28,3.28,0,0,0,4.59-4.68l-18.47-18.56a3.31,3.31,0,0,0-4.68,4.68Z"/><path class="cls-2" d="M134.23,200.9a3.3,3.3,0,0,0-3.28-3.29H104.68a3.29,3.29,0,0,0,0,6.57H131A3.29,3.29,0,0,0,134.23,200.9Z"/><path class="cls-2" d="M260,149a3.27,3.27,0,0,0,2.3-1l18.55-18.56a3.31,3.31,0,1,0-4.68-4.68l-18.55,18.56a3.26,3.26,0,0,0,0,4.68A3.61,3.61,0,0,0,260,149Z"/><path class="cls-2" d="M305,197.61H278.68a3.29,3.29,0,0,0,0,6.57H305a3.29,3.29,0,1,0,0-6.57Z"/></symbol></defs><title>Asset 9</title><use width="410.48" height="410.48" transform="translate(14.67 14.95)" xlink:href="#New_Symbol_2"/></svg>