<svg id="Layer_1" data-name="Layer 1" xmlns="http://www.w3.org/2000/svg" xmlns:xlink="http://www.w3.org/1999/xlink" viewBox="0 0 440 390"><defs><style>.cls-1{fill:red;}.cls-2{fill:#fff;stroke:red;stroke-miterlimit:10;stroke-width:3px;}</style><symbol id="New_Symbol_7" data-name="New Symbol 7" viewBox="0 0 302 302"><rect class="cls-1" width="302" height="302" rx="20" ry="20"/><path d="M282,15a5.07,5.07,0,0,1,5,5V282a5.07,5.07,0,0,1-5,5H20a5.07,5.07,0,0,1-5-5V20a5.07,5.07,0,0,1,5-5H282m0-15H20A20.06,20.06,0,0,0,0,20V282a20.06,20.06,0,0,0,20,20H282a20.06,20.06,0,0,0,20-20V20A20.06,20.06,0,0,0,282,0Z"/><path class="cls-2" d="M151.91,205.36a15.53,15.53,0,0,1-15.52-15.51L126.08,97.36c0-14.85,11.58-26.44,25.83-26.44a25.88,25.88,0,0,1,25.85,25.86l-10.37,93.65C167.42,198.4,160.46,205.36,151.91,205.36Z"/><path class="cls-2" d="M151.91,246.72a15.51,15.51,0,1,1,15.51-15.51A15.53,15.53,0,0,1,151.91,246.72Z"/></symbol></defs><title>Asset 7</title><use width="302" height="302" transform="translate(69 41)" xlink:href="#New_Symbol_7"/></svg>