<svg id="Layer_1" data-name="Layer 1" xmlns="http://www.w3.org/2000/svg" xmlns:xlink="http://www.w3.org/1999/xlink" viewBox="0 0 440 390"><defs><style>.cls-1{fill:#ff0;}.cls-2{stroke:#ff0;stroke-miterlimit:10;stroke-width:3px;}</style><symbol id="New_Symbol_8" data-name="New Symbol 8" viewBox="0 0 384.16 322.49"><path d="M369.43,322.41c.36.18-353.32,0-353.49,0C-.38,322.88-3.81,305.51,4,294.06,41.49,229.8,138.22,73.75,175.78,9.35c7.39-13.4,28-11.44,34.11-.19,0,.36,130.75,221.26,170.24,285.31C390.07,309.78,379.75,322.59,369.43,322.41Z"/><path class="cls-1" d="M359.82,291.34C325.5,235.09,205.29,26.43,205.29,26.12c-6.18-12.34-18.54-12.34-24.73,0C147.93,82.67,58.59,234.92,26,291.34c-9.74,12.72-6.18,18.5,6.18,18.5.15,0,321.72.15,321.41,0C366,309.84,369.53,303.69,359.82,291.34Z"/><path class="cls-2" d="M192.74,238.07a15.53,15.53,0,0,1-15.51-15.51l-10.31-92.48c0-14.85,11.57-26.44,25.82-26.44a25.89,25.89,0,0,1,25.86,25.85l-10.38,93.66C208.26,231.11,201.3,238.07,192.74,238.07Z"/><path class="cls-2" d="M192.74,279.44a15.51,15.51,0,1,1,15.52-15.51A15.53,15.53,0,0,1,192.74,279.44Z"/></symbol></defs><title>Asset 6</title><use width="384.16" height="322.49" transform="translate(27.82 34.07)" xlink:href="#New_Symbol_8"/></svg>