<svg id="Layer_1" data-name="Layer 1" xmlns="http://www.w3.org/2000/svg" xmlns:xlink="http://www.w3.org/1999/xlink" viewBox="0 0 440 390"><defs><style>.cls-1{fill:aqua;}.cls-2{stroke:aqua;stroke-miterlimit:10;stroke-width:3px;}</style><symbol id="New_Symbol_9" data-name="New Symbol 9" viewBox="0 0 384.16 322.49"><path d="M14.73.08c-.35-.18,353.32,0,353.5,0C384.54-.39,388,17,380.15,28.44,342.67,92.69,246,248.74,208.38,313.14c-7.39,13.4-28,11.44-34.1.19C174.28,313,43.52,92.07,4,28-5.91,12.71,4.41-.1,14.73.08Z"/><path class="cls-1" d="M24.35,31.15C58.66,87.4,178.87,296.06,178.87,296.37c6.18,12.34,18.55,12.34,24.73,0,32.63-56.55,122-208.8,154.52-265.22,9.74-12.72,6.18-18.5-6.18-18.5-.15,0-321.72-.15-321.41,0C18.16,12.65,14.63,18.8,24.35,31.15Z"/><path class="cls-2" d="M191.74,185.22a15.53,15.53,0,0,1-15.51-15.51L165.92,77.23c0-14.85,11.57-26.44,25.82-26.44A25.89,25.89,0,0,1,217.6,76.64L207.22,170.3C207.26,178.26,200.3,185.22,191.74,185.22Z"/><path class="cls-2" d="M191.74,226.59a15.51,15.51,0,1,1,15.52-15.51A15.53,15.53,0,0,1,191.74,226.59Z"/></symbol></defs><title>Asset 5</title><use width="384.16" height="322.49" transform="translate(23.82 37.92)" xlink:href="#New_Symbol_9"/></svg>