<?xml version="1.0" encoding="utf-8"?>
<!-- Generator: Adobe Illustrator 22.0.1, SVG Export Plug-In . SVG Version: 6.00 Build 0)  -->
<svg version="1.1" id="Layer_1" xmlns="http://www.w3.org/2000/svg" xmlns:xlink="http://www.w3.org/1999/xlink" x="0px" y="0px"
	 viewBox="0 0 440 440" style="enable-background:new 0 0 440 440;" xml:space="preserve">
<style type="text/css">
	.st0{fill:#00FFFF;}
	.st1{stroke:#000000;stroke-width:6;stroke-miterlimit:10;}
</style>
<symbol  id="New_Symbol_1" viewBox="-205.2 -205.2 410.5 410.5">
	<g>
		<path class="st0" d="M14.1-199.4c-7.8-7.8-20.5-7.8-28.3,0L-199.4-14.1c-7.8,7.8-7.8,20.5,0,28.3l185.3,185.3
			c7.8,7.8,20.5,7.8,28.3,0L199.4,14.1c7.8-7.8,7.8-20.5,0-28.3L14.1-199.4z"/>
	</g>
	<g>
		<path d="M0,190.2c0.8,0,2.3-0.2,3.5-1.4L188.8,3.5c1.9-1.9,1.9-5.2,0-7.1L3.5-188.8c-1.3-1.3-2.8-1.4-3.5-1.4s-2.3,0.2-3.5,1.4
			L-188.8-3.5c-1.9,1.9-1.9,5.2,0,7.1L-3.5,188.8C-2.3,190.1-0.8,190.2,0,190.2 M0,205.2c-5.1,0-10.3-1.9-14.1-5.8L-199.4,14.1
			c-7.8-7.8-7.8-20.5,0-28.3l185.3-185.3c3.9-3.9,9-5.8,14.1-5.8s10.3,1.9,14.1,5.8L199.4-14.1c7.8,7.8,7.8,20.5,0,28.3L14.1,199.4
			C10.3,203.3,5.1,205.2,0,205.2L0,205.2z"/>
	</g>
	<path class="st1" d="M66.3-40.6H53.5L35.9,37.2c-1.3,5.9-6.5,10-12.6,10h-47.6c-6.1,0-11.2-4.1-12.6-10l-17.6-77.8h-12.8
		c-1.8,0-3.3-1.5-3.3-3.3v-24.8c0-1.8,1.5-3.3,3.3-3.3H66.4c1.8,0,3.3,1.5,3.3,3.3v24.8C69.6-42.1,68.1-40.6,66.3-40.6z M-30.4,35.7
		c0.7,2.9,3.2,4.9,6.2,4.9h47.6c3,0,5.5-2.1,6.2-4.9l17.2-76.3h-94.4L-30.4,35.7z"/>
	<path class="st1" d="M-0.4,74.9c1.8,0,3.3,1.5,3.3,3.3v26.3c0,1.8-1.5,3.3-3.3,3.3s-3.3-1.5-3.3-3.3V78.2
		C-3.7,76.4-2.2,74.9-0.4,74.9z"/>
	<path class="st1" d="M-58,57.2c0.7-0.7,1.5-1,2.3-1c0.8,0,1.6,0.3,2.3,1c1.3,1.3,1.3,3.4,0,4.7l-18.5,18.6c-1.3,1.3-3.4,1.3-4.7,0
		s-1.3-3.4,0-4.7L-58,57.2z"/>
	<path class="st1" d="M-71,4.3c0,1.8-1.5,3.3-3.3,3.3h-26.3c-1.8,0-3.3-1.5-3.3-3.3s1.5-3.3,3.3-3.3h26.3C-72.5,1.1-71,2.5-71,4.3z"
		/>
	<path class="st1" d="M54.7,56.2c0.8,0,1.6,0.3,2.3,1l18.6,18.6c1.3,1.3,1.3,3.4,0,4.7s-3.4,1.3-4.7,0L52.3,61.9
		c-1.3-1.3-1.3-3.4,0-4.7C53.1,56.5,53.9,56.2,54.7,56.2z"/>
	<path class="st1" d="M99.7,7.6H73.4c-1.8,0-3.3-1.5-3.3-3.3s1.5-3.3,3.3-3.3h26.3c1.8,0,3.3,1.5,3.3,3.3S101.5,7.6,99.7,7.6z"/>
</symbol>
<use xlink:href="#New_Symbol_1"  width="410.5" height="410.5" x="-205.2" y="-205.2" transform="matrix(1 0 0 -1 219.9046 220.1847)" style="overflow:visible;"/>
</svg>
