<svg id="Layer_1" data-name="Layer 1" xmlns="http://www.w3.org/2000/svg" viewBox="0 0 100 100"><defs><style>.cls-1{fill:#fff;}</style></defs><title>building</title><g id="New_Symbol_8" data-name="New Symbol 8"><path class="cls-1" d="M69.85,84H28.15V14h41.7ZM31.13,81H66.87V17H31.13Z"/><rect class="cls-1" x="59.43" y="73.57" width="2.98" height="8.94"/><rect class="cls-1" x="57.79" y="28.89" width="5.96" height="2.98"/><rect class="cls-1" x="46.02" y="28.89" width="5.96" height="2.98"/><rect class="cls-1" x="34.26" y="28.89" width="5.96" height="2.98"/><rect class="cls-1" x="57.79" y="36.19" width="5.96" height="2.98"/><rect class="cls-1" x="46.02" y="36.19" width="5.96" height="2.98"/><rect class="cls-1" x="34.26" y="36.19" width="5.96" height="2.98"/><rect class="cls-1" x="57.79" y="43.64" width="5.96" height="2.98"/><rect class="cls-1" x="46.02" y="43.64" width="5.96" height="2.98"/><rect class="cls-1" x="34.26" y="43.64" width="5.96" height="2.98"/><rect class="cls-1" x="57.79" y="50.94" width="5.96" height="2.98"/><rect class="cls-1" x="46.02" y="50.94" width="5.96" height="2.98"/><rect class="cls-1" x="34.26" y="50.94" width="5.96" height="2.98"/><rect class="cls-1" x="57.79" y="58.23" width="5.96" height="2.98"/><rect class="cls-1" x="46.02" y="58.23" width="5.96" height="2.98"/><rect class="cls-1" x="34.26" y="58.23" width="5.96" height="2.98"/><rect class="cls-1" x="57.79" y="65.68" width="5.96" height="2.98"/><rect class="cls-1" x="46.02" y="65.68" width="5.96" height="2.98"/><rect class="cls-1" x="34.26" y="65.68" width="5.96" height="2.98"/><rect class="cls-1" x="35.74" y="20.7" width="2.98" height="2.98"/><rect class="cls-1" x="43.64" y="20.7" width="2.98" height="2.98"/><rect class="cls-1" x="51.38" y="20.7" width="2.98" height="2.98"/><rect class="cls-1" x="59.28" y="20.7" width="2.98" height="2.98"/></g></svg>