<?xml version="1.0" encoding="utf-8"?>
<!-- Generator: Adobe Illustrator 22.0.1, SVG Export Plug-In . SVG Version: 6.00 Build 0)  -->
<svg version="1.1" id="Layer_1" xmlns="http://www.w3.org/2000/svg" xmlns:xlink="http://www.w3.org/1999/xlink" x="0px" y="0px"
	 viewBox="0 0 80 80" style="enable-background:new 0 0 80 80;" xml:space="preserve">
<style type="text/css">
	.st0{fill:#FFFFFF;}
</style>
<g transform="translate(0,-952.36218)">
	<path class="st0" d="M40,966.4c-14.3,0-26,11.7-26,26c0,14.3,11.7,26,26,26s26-11.7,26-26C66,978,54.3,966.4,40,966.4z M40,968.7
		c13.1,0,23.6,10.6,23.6,23.6S53.1,1016,40,1016s-23.6-10.6-23.6-23.6S26.9,968.7,40,968.7z M39.6,979.4c-0.4,0-0.8,0.3-1,0.7
		l-5.9,13c-0.3,0.7,0.3,1.7,1.1,1.7h4.9l-3,9.1c-0.3,1.5,1.5,2,2.1,1l8.9-14.2c0.4-0.7-0.2-1.8-1-1.8h-4.1l5.7-7.6
		c0.5-1-0.1-1.6-0.9-1.9C44,979.4,41.8,979.4,39.6,979.4z"/>
</g>
</svg>
