<?xml version="1.0" encoding="utf-8"?>
<!-- Generator: Adobe Illustrator 22.1.0, SVG Export Plug-In . SVG Version: 6.00 Build 0)  -->
<svg version="1.1" id="Layer_1" xmlns="http://www.w3.org/2000/svg" xmlns:xlink="http://www.w3.org/1999/xlink" x="0px" y="0px"
	 viewBox="0 0 333 333" style="enable-background:new 0 0 333 333;" xml:space="preserve">
<style type="text/css">
	.st0{fill:#FFFFFF;}
	.st1{fill:none;stroke:#FFFFFF;stroke-width:10;stroke-miterlimit:10;}
	.st2{fill:#00FF00;}
</style>
<path class="st0" d="M204.7,118.4c-13.7,0.9-27.5,10.3-36.9,30c-1.7,0-2.6,0.9-4.3,0.9c-6-12.9-4.3-31.8-3.4-44.6
	c2.6-15.5-16.3-17.2-26.6-12.9c-24,9.4-36.1,26.6-38.6,44.6c-5.2,34.3,25.8,51.5,58.4,42.1c0.9,0.9,0.9,0.9,0.9,0.9
	c-6.9,10.3-26.6,19.7-37.8,24.9c-14.6,5.2-6.9,22.3,2.6,29.2c25.8,22.3,73,21.5,82.4-14.6c2.6-12.9-0.9-27.5-13.7-42.1
	c11.2,4.3,24,17.2,31.8,25.8c5.2,6,12,6,17.2,1.7c4.3-2.6,7.7-7.7,9.4-13.7C258.7,158.7,242.4,114.1,204.7,118.4z M167.7,160.4
	c3.4,0,6.9,2.6,6.9,6.9c0,3.4-3.4,6.9-6.9,6.9c-4.3,0-6.9-3.4-6.9-6.9C160.9,163,163.4,160.4,167.7,160.4z M150.8,171.4
	c-25.5,6.6-51-4.7-47.2-34c2.8-18.9,17.9-31.2,35.9-37.8c0.9-0.9,10.4-2.8,11.3-0.9c-3.8,15.1-2.8,42.5,4.7,58.6
	C152.7,161,150.8,165.7,150.8,171.4z M193.5,216.9c-8.5,33.1-50.1,25.5-70.8,8.5c-2.8-1.9-9.4-7.6-4.7-10.4
	c15.1-6.6,37.8-17.9,47.2-32.1c4.7,0,10.4-0.9,14.2-2.8C192.6,193.2,195.4,205.5,193.5,216.9z M238.2,189.5
	c-0.9,2.8-4.7,12.3-8.5,8.5c-12.3-12.3-29.3-30.2-46.3-34c-0.9-4.7-3.8-9.4-7.6-12.3c7.6-17,18.9-24.6,29.3-25.5
	C237.3,123.4,248.6,163,238.2,189.5z"/>
<circle class="st1" cx="167.7" cy="167.3" r="120.3"/>
<circle class="st2" cx="277.1" cy="58" r="11"/>
</svg>
