<svg id="Layer_1" data-name="Layer 1" xmlns="http://www.w3.org/2000/svg" width="80" height="80" viewBox="0 0 80 80"><defs><style>.cls-1{fill:#fff;}</style></defs><title>feedback</title><path class="cls-1" d="M49.37,34.51a.47.47,0,0,1-.22.39l-1.57,1.31a.36.36,0,0,0-.13.39c.18.65.31,1.31.48,2a.56.56,0,0,1-.21.61.61.61,0,0,1-.66,0c-.61-.35-1.18-.74-1.79-1.13a.25.25,0,0,0-.34,0l-1.7,1a.82.82,0,0,1-.53.14.56.56,0,0,1-.39-.66l.52-2.13a.16.16,0,0,0-.08-.22c-.53-.44-1-.83-1.49-1.27-.17-.17-.34-.3-.34-.56a.48.48,0,0,1,.47-.48l2.23-.13c.13,0,.13-.09.17-.18.26-.61.48-1.22.74-1.83,0,0,0-.13.09-.17a.49.49,0,0,1,.52-.31.5.5,0,0,1,.48.35l.79,2a.33.33,0,0,0,.26.22l1.92.13a.91.91,0,0,1,.3,0A.5.5,0,0,1,49.37,34.51Z"/><path class="cls-1" d="M38.47,34.51a.46.46,0,0,1-.21.39l-1.57,1.31a.34.34,0,0,0-.13.39c.17.65.3,1.31.48,2a.56.56,0,0,1-.22.61.61.61,0,0,1-.66,0c-.61-.35-1.17-.74-1.78-1.13A.26.26,0,0,0,34,38l-1.7,1a.81.81,0,0,1-.52.14.56.56,0,0,1-.4-.66c.18-.7.35-1.44.53-2.13a.16.16,0,0,0-.09-.22c-.52-.44-1-.83-1.48-1.27-.18-.17-.35-.3-.35-.56a.49.49,0,0,1,.48-.48l2.22-.13c.13,0,.13-.09.17-.18.27-.61.48-1.22.75-1.83,0,0,0-.13.08-.17a.5.5,0,0,1,.53-.31.52.52,0,0,1,.48.35l.78,2a.33.33,0,0,0,.26.22l1.92.13a.88.88,0,0,1,.3,0A.5.5,0,0,1,38.47,34.51Z"/><path class="cls-1" d="M27.62,34.51a.47.47,0,0,1-.22.39l-1.57,1.31a.36.36,0,0,0-.13.39c.18.65.31,1.31.48,2a.55.55,0,0,1-.22.61.59.59,0,0,1-.65,0c-.61-.35-1.18-.74-1.79-1.13a.26.26,0,0,0-.35,0l-1.7,1a.78.78,0,0,1-.52.14.56.56,0,0,1-.39-.66l.52-2.13a.15.15,0,0,0-.09-.22c-.52-.44-1-.83-1.48-1.27-.17-.17-.35-.3-.35-.56a.49.49,0,0,1,.48-.48l2.23-.13c.13,0,.13-.09.17-.18.26-.61.48-1.22.74-1.83,0,0,0-.13.09-.17a.49.49,0,0,1,.52-.31.51.51,0,0,1,.48.35l.79,2a.33.33,0,0,0,.26.22l1.92.13a.91.91,0,0,1,.3,0A.5.5,0,0,1,27.62,34.51Z"/><path class="cls-1" d="M60.27,34.51a.47.47,0,0,1-.22.39l-1.57,1.31a.36.36,0,0,0-.13.39c.18.65.31,1.31.48,2a.56.56,0,0,1-.22.61.59.59,0,0,1-.65,0c-.61-.35-1.18-.74-1.79-1.13a.26.26,0,0,0-.35,0l-1.7,1a.79.79,0,0,1-.52.14.54.54,0,0,1-.39-.66l.52-2.13a.16.16,0,0,0-.09-.22c-.52-.44-1-.83-1.48-1.27-.17-.17-.35-.3-.35-.56a.49.49,0,0,1,.48-.48l2.23-.13c.13,0,.13-.09.17-.18.26-.61.48-1.22.74-1.83,0,0,0-.13.09-.17a.49.49,0,0,1,.52-.31.51.51,0,0,1,.48.35l.79,2a.33.33,0,0,0,.26.22l1.91.13a.94.94,0,0,1,.31,0A.54.54,0,0,1,60.27,34.51Z"/><path class="cls-1" d="M40,57a2.33,2.33,0,0,1-2.09-1.35l-3.49-7.72H20.12a7.38,7.38,0,0,1-7.36-7.36V30.32A7.34,7.34,0,0,1,20.12,23H54.17A13.11,13.11,0,0,1,67.24,36.08v4.53A7.39,7.39,0,0,1,59.88,48H45.58l-3.49,7.71A2.37,2.37,0,0,1,40,57ZM20.12,26.27A4.09,4.09,0,0,0,16,30.37V40.61a4.09,4.09,0,0,0,4.09,4.1H34.55a3.24,3.24,0,0,1,2.88,1.83L40,52.34l2.58-5.8a3.16,3.16,0,0,1,2.87-1.88H59.92A4.09,4.09,0,0,0,64,40.57V36a9.82,9.82,0,0,0-9.81-9.8H20.12Z"/></svg>