<?xml version="1.0" encoding="utf-8"?>
<!-- Generator: Adobe Illustrator 22.0.1, SVG Export Plug-In . SVG Version: 6.00 Build 0)  -->
<svg version="1.1" id="Layer_1" xmlns="http://www.w3.org/2000/svg" xmlns:xlink="http://www.w3.org/1999/xlink" x="0px" y="0px"
	 viewBox="0 0 80 80" style="enable-background:new 0 0 80 80;" xml:space="preserve">
<style type="text/css">
	.st0{fill:none;stroke:#FFFFFF;stroke-width:3;stroke-miterlimit:10;}
</style>
<path class="st0" d="M64.7,43.7l-5.9-7V22.8c0-0.8-0.7-1.6-1.6-1.6H54c-0.8,0-1.6,0.7-1.6,1.6v6.3L41.2,15.5
	C40.9,15.2,40.5,15,40,15s-0.9,0.2-1.2,0.6L15.3,43.7c-0.4,0.5-0.5,1.1-0.2,1.7c0.3,0.6,0.8,0.9,1.4,0.9h4.7v17.3
	c0,1.7,1.6,1.6,1.6,1.6h9.4c1.6,0,1.6-1.6,1.6-1.6v-11c0-3.4,2.8-6.2,6.2-6.2s6.2,2.8,6.2,6.2l0,0v10.9c0,0,0,1.7,1.6,1.7
	c1.6,0,9.4,0,9.4,0c1.6,0,1.6-1.6,1.6-1.6V46.2h4.7c0.6,0,1.2-0.4,1.4-0.9C65.1,44.8,65,44.2,64.7,43.7z"/>
</svg>
