<svg id="Layer_1" data-name="Layer 1" xmlns="http://www.w3.org/2000/svg" width="1920" height="1080" viewBox="0 0 1920 1080"><defs><style>.cls-1{fill:#383838;}.cls-2{fill:#5c5c5c;}.cls-3{fill:#525f41;}.cls-14,.cls-15,.cls-16,.cls-18,.cls-19,.cls-21,.cls-22,.cls-24,.cls-4{fill:none;}.cls-4{stroke:#6b6b6b;}.cls-14,.cls-16,.cls-18,.cls-19,.cls-21,.cls-22,.cls-23,.cls-24,.cls-4,.cls-8{stroke-miterlimit:10;}.cls-19,.cls-4{stroke-width:72.34px;}.cls-5{fill:#5a6947;}.cls-6{fill:#586646;}.cls-7{fill:#baacac;}.cls-10,.cls-8{fill:#d1c1c3;}.cls-8{stroke:#4d4d4d;stroke-width:2px;}.cls-9{fill:#c4b6b6;}.cls-11{fill:#ab9a9d;}.cls-12{fill:#decfcf;}.cls-13{fill:#918385;}.cls-14,.cls-16,.cls-18{stroke:#000;}.cls-14{stroke-width:0.32px;opacity:0.6;isolation:isolate;}.cls-16{stroke-width:0.56px;opacity:0.51;}.cls-17{opacity:0.54;}.cls-18{stroke-width:0.5px;}.cls-19{stroke:#1f1f1f;}.cls-20,.cls-23{fill:#fff;}.cls-21,.cls-22,.cls-23,.cls-24{stroke:#fff;}.cls-21{stroke-width:3.6px;}.cls-22{stroke-width:0.65px;}.cls-23{stroke-width:0.75px;}.cls-24{stroke-width:0.63px;}</style></defs><title>south one hwell-01-01-01</title><rect class="cls-1" y="-27.84" width="2346.23" height="1254.58"/><path class="cls-2" d="M2007.85,1155.61,1500.27,1118,552.63,860,906.28,468l725.2-253.19H2039.6A49.69,49.69,0,0,1,2089,268.85Z"/><path class="cls-3" d="M1719.7,194.51l325.92,4.62a17.15,17.15,0,0,0,16.48-9.45l92-226.86a17.27,17.27,0,0,0-13.26-24.92L1812.13-99.87a11.49,11.49,0,0,0-2.61-.2l-176.43,4.82a17.24,17.24,0,0,0-16.28,21.5l75.56,245.55A30.19,30.19,0,0,0,1719.7,194.51Z"/><path class="cls-3" d="M1439,1020.58l517.83,74.55a25.43,25.43,0,0,0,28.93-22.91l34.16-399.87a25.4,25.4,0,0,0-25.32-27.53H1877.64a26.21,26.21,0,0,0-15.28,5L1427.53,975.16C1409.44,988.83,1416.68,1017.36,1439,1020.58Z"/><path class="cls-3" d="M451.55,752.32,1100,955.87a25.44,25.44,0,0,0,28.94-22.9L1012,429.81a25.4,25.4,0,0,0-25.32-27.53H869.71a26.25,26.25,0,0,0-15.27,5L440.1,706.91C421.81,720.57,429.05,749.11,451.55,752.32Z"/><path class="cls-4" d="M2380.59,1228.51s-638.59-13.86-936-56.66S498.37,893.14,498.37,893.14L-22.37,703.64"/><path class="cls-5" d="M1730.75,184.86,2035,189.28a16.25,16.25,0,0,0,15.48-8.84l86-211.59a16.06,16.06,0,0,0-12.26-23.11l-307-35.57a9.82,9.82,0,0,0-2.41-.2L1650-85.61a16.16,16.16,0,0,0-15.27,19.9l70.53,229.07A28.41,28.41,0,0,0,1730.75,184.86Z"/><path class="cls-3" d="M125.4,117.23l844,4.62c17.69.4,34.87-3.21,42.67-9.44l238.33-226.87c14-10.65-3.64-23.31-34.34-24.91L364.77-177.15c-2.08-.2-4.69-.2-6.77-.2l-456.88,4.82c-28.62.2-48.91,10.65-42.15,21.5L54.63,94.52C63,107.18,91.58,116.42,125.4,117.23Z"/><path class="cls-5" d="M138.24,97.54,951.09,102c17.18.4,33.29-3,41.34-8.84l229.79-211.6c13.42-9.84-3.76-21.7-32.75-23.1L369.11-177.15c-2.15-.2-4.3-.2-6.45-.2l-440.24,4.42c-27.38.2-47.25,10.05-40.81,19.89L70.06,76C78.11,88.09,106,96.73,138.24,97.54Z"/><path class="cls-6" d="M478.28,746.49l595.39,186.88a23.32,23.32,0,0,0,26.52-21.1L992.69,450.1a23.3,23.3,0,0,0-23.11-25.31H862.08a23,23,0,0,0-13.87,4.62L467.63,704.7C451,717.16,457.78,743.48,478.28,746.49Z"/><polygon class="cls-7" points="1713.13 679.14 1594.06 773.71 1630.81 819.46 1471.57 946.28 1435 900.52 1325.66 987.35 1103.92 576.28 989.17 560.25 985.57 586.37 196.76 476.49 234.95 202.14 969.9 304.28 1006.64 248.98 1547.95 324.27 1530.66 449.47 1713.13 679.14"/><polygon class="cls-8" points="588.37 531.25 985.57 586.37 989.17 560.25 1103.92 576.28 1530.66 449.47 1547.95 324.27 1547.95 324.27 1006.64 248.98 969.9 304.28 234.95 202.14 196.76 476.49 413.64 506.93 588.37 531.25"/><polygon class="cls-9" points="1103.92 576.28 1425.82 317.97 1713.13 679.14 1594.06 773.71 1630.81 819.46 1471.57 946.28 1435.55 899.98 1325.66 987.35 1103.92 576.28"/><polyline class="cls-10" points="1373.58 375.97 1119.77 578.26 1316.66 943.4 1393.03 902.51 1399.88 910.61 1644.68 715.71 1373.58 375.97"/><polyline class="cls-11" points="1547.05 579.16 1565.6 564.57 1504.36 487.84 1527.41 469.64 1692.78 677.52 1646.3 714.45 1632.43 697.15 1637.66 693.01 1629.73 682.92 1640.18 674.82 1592.8 615.91 1582.71 624.02 1575.69 615.19 1570.47 619.51 1550.11 593.75 1555.52 589.61 1547.05 579.16"/><polyline class="cls-12" points="1590.82 776.41 1580.91 784.16 1572.45 773.35 1458.6 863.96 1486.52 899.26 1483.64 901.78 1456.62 868.46 1440.41 881.07 1447.97 890.08 1438.25 898 1471.57 939.79 1623.97 818.2 1590.82 776.41"/><polyline class="cls-13" points="1423.66 335.98 1380.78 370.03 1547.05 579.16 1565.6 564.57 1504.36 487.84 1529.04 468.38 1423.66 335.98"/><polyline class="cls-14" points="1547.05 579.16 1565.6 564.57 1504.36 487.84 1527.41 469.64 1692.78 677.52 1646.3 714.45 1632.43 697.15 1637.66 693.01 1629.73 682.92 1640.18 674.82 1592.8 615.91 1582.71 624.02 1575.69 615.19 1570.47 619.51 1550.11 593.75 1555.52 589.61 1547.05 579.16"/><path class="cls-10" d="M1645.76,713.72l15.85-12.6c-8.82-8.83-18.19-10.09-28.46-3.25l-4.32,3.25,8.83,16Z"/><path class="cls-9" d="M1673.32,694.63c-5.58-8.83-4.86-16.57,2.52-23.6l10.09,12.07-1.62,5Z"/><path class="cls-10" d="M1563.08,609.79c5.58-3.61,10.63-2.89,15.49,2l-9.19,6.3-3.78,4-18.91-23.24,4.32-3.6,14.77-12.07c6.31,9.72,5.41,18.55-2.7,26.66"/><polyline class="cls-14" points="1590.82 776.41 1580.91 784.16 1572.45 773.35 1458.6 863.96 1486.52 899.26 1483.64 901.78 1456.62 868.46 1440.41 881.07 1447.97 890.08 1438.25 898 1471.57 939.79 1623.97 818.2 1590.82 776.41"/><polyline class="cls-14" points="1423.66 335.98 1380.78 370.03 1547.05 579.16 1565.6 564.57 1504.36 487.84 1529.04 468.38 1423.66 335.98"/><path class="cls-10" d="M1441.49,880.35l11,14c8.46-8.11,9.36-16.93,2.88-26.3l-2.7-4.14-16.75,11.53Z"/><polyline class="cls-14" points="1148.05 657.34 1148.23 658.42 1150.21 657.34 1149.85 656.44 1148.05 657.34"/><polyline class="cls-14" points="1206.95 767.04 1207.67 767.95 1209.3 767.04 1208.93 765.96 1206.95 767.04 1148.23 658.42"/><line class="cls-14" x1="1208.94" y1="765.96" x2="1150.21" y2="657.34"/><polyline class="cls-14" points="1177.41 712.1 1178.13 713.18 1179.75 712.1 1179.39 711.2 1177.41 712.1"/><polyline class="cls-14" points="1279.91 901.78 1280.27 902.87 1282.25 901.78 1281.53 900.88 1279.91 901.78 1235.78 820.18"/><line class="cls-14" x1="1281.53" y1="900.88" x2="1237.4" y2="819.1"/><path class="cls-14" d="M1563.08,609.79c8.11-8.11,9-16.94,2.88-26.66l-14.77,12.07"/><path class="cls-14" d="M1563.08,609.79c5.58-3.61,10.63-2.89,15.49,2l-9.19,6.3"/><polyline class="cls-14" points="1568.85 620.77 1570.47 619.51 1569.74 618.43 1568.12 619.69 1568.85 620.77 1630.81 698.59 1632.43 697.33 1632.97 697.87 1631.35 699.13 1630.81 698.59 1637.66 693.01"/><path class="cls-14" d="M1633,697.87c10.45-6.84,19.82-5.58,28.46,3.25l-15.85,12.6"/><line class="cls-14" x1="1149.31" y1="657.7" x2="1178.49" y2="711.92"/><line class="cls-14" x1="1178.85" y1="712.46" x2="1208.03" y2="766.68"/><polyline class="cls-14" points="1651.53 609.07 1687.55 654.46 1686.83 653.56 1688.45 652.48 1689.17 653.2 1653.15 607.8 1653.87 608.71 1652.25 609.97 1651.53 609.07 1653.15 607.8 1647.38 612.67 1645.04 609.79 1650.81 605.1 1650.27 604.2 1648.64 605.46 1649.18 606.54 1597.67 541.88 1598.75 542.6 1600.01 541.34 1599.29 540.62 1650.81 605.1"/><polyline class="cls-14" points="1380.78 370.39 1423.66 336.16 1591.54 546.74 1681.07 659.68 1694.4 676.26"/><polyline class="cls-14" points="1116.89 577.54 1424.2 333.1 1591.9 543.5"/><polyline class="cls-14" points="1119.77 578.26 1373.94 375.97 1484.18 514.32 1485.8 513.05"/><polyline class="cls-14" points="1103.2 574.66 1425.82 317.97 1601.63 538.63 1591.54 546.74"/><polyline class="cls-14" points="1106.08 575.38 1425.46 321.21 1598.39 538.45 1591.9 543.5"/><polyline class="cls-14" points="1280.27 903.23 1325.66 987.35 1435.55 899.98"/><polyline class="cls-14" points="1207.67 768.3 1234.88 819.1 1236.86 817.84"/><polyline class="cls-14" points="1103.2 574.66 1147.69 657.34 1149.85 656.08"/><polyline class="cls-14" points="1282.25 901.78 1326.56 983.93 1333.05 978.7"/><line class="cls-14" x1="1209.66" y1="767.22" x2="1236.86" y2="817.84"/><line class="cls-14" x1="1106.08" y1="575.38" x2="1149.85" y2="656.08"/><line class="cls-14" x1="1575.69" y1="615.19" x2="1637.66" y2="693.01"/><line class="cls-14" x1="1575.33" y1="618.43" x2="1634.59" y2="692.65"/><line class="cls-14" x1="1380.78" y1="370.39" x2="1491.03" y2="508.91"/><polyline class="cls-14" points="1538.76 572.5 1552.27 589.25 1548.67 592.13"/><polyline class="cls-14" points="1379.16 371.83 1489.4 510.17 1491.03 508.91"/><polyline class="cls-14" points="1571.73 621.13 1631.17 695.71 1634.59 692.65"/><line class="cls-14" x1="1535.16" y1="575.02" x2="1548.67" y2="592.13"/><line class="cls-14" x1="1375.56" y1="374.35" x2="1485.8" y2="513.05"/><polyline class="cls-14" points="1317.92 945.38 1335.03 977.08 1444.73 889.9 1438.79 882.69"/><line class="cls-14" x1="1291.62" y1="896.92" x2="1316.84" y2="943.4"/><polyline class="cls-14" points="1219.02 762.18 1246.22 812.98 1291.62 896.92"/><line class="cls-14" x1="1119.77" y1="578.26" x2="1159.04" y2="651.22"/><line class="cls-14" x1="1289.64" y1="898" x2="1333.05" y2="978.7"/><polyline class="cls-14" points="1217.04 763.08 1244.24 814.06 1246.22 812.98"/><polyline class="cls-14" points="1116.89 577.54 1157.06 652.12 1159.04 651.22"/><line class="cls-14" x1="1393.39" y1="902.51" x2="1316.84" y2="943.4"/><line class="cls-14" x1="1392.85" y1="905.39" x2="1317.92" y2="945.38"/><line class="cls-14" x1="1686.47" y1="682.74" x2="1694.4" y2="676.26"/><polyline class="cls-14" points="1572.45 773.53 1671.88 694.09 1672.6 693.73 1673.86 695.71 1673.32 695.89 1671.88 694.09"/><line class="cls-14" x1="1689.71" y1="682.92" x2="1697.64" y2="676.44"/><line class="cls-14" x1="1575.69" y1="773.71" x2="1671.7" y2="697.33"/><polyline class="cls-14" points="1455.36 866.48 1458.6 863.96 1486.88 899.62 1483.64 901.78 1455.36 866.48 1456.62 868.46 1456.08 868.82 1454.64 867.2 1455.36 866.48"/><polyline class="cls-14" points="1399.88 910.97 1439.15 879.45 1439.87 878.91 1441.49 880.71 1440.77 881.07 1439.15 879.45"/><line class="cls-14" x1="1399.52" y1="913.85" x2="1438.79" y2="882.69"/><line class="cls-14" x1="1399.88" y1="910.97" x2="1393.39" y2="902.51"/><line class="cls-14" x1="1399.52" y1="913.85" x2="1392.85" y2="905.39"/><line class="cls-14" x1="1593.52" y1="774.43" x2="1713.13" y2="679.14"/><line class="cls-14" x1="1581.09" y1="784.52" x2="1590.82" y2="776.41"/><line class="cls-14" x1="1695.3" y1="690.49" x2="1710.25" y2="678.78"/><polyline class="cls-14" points="1679.09 703.46 1693.68 691.75 1686.47 682.74 1687.91 684.54 1687.19 684.9 1685.93 682.92 1686.47 682.74"/><polyline class="cls-14" points="1581.45 781.27 1677.47 704.72 1671.7 697.33"/><polyline class="cls-14" points="1438.25 898 1447.97 890.26 1439.15 879.45"/><polyline class="cls-14" points="1471.57 945.02 1629.19 819.46 1593.52 774.43"/><polyline class="cls-14" points="1471.57 946.28 1630.81 819.46 1594.06 773.71"/><line class="cls-14" x1="1684.31" y1="660.04" x2="1697.64" y2="676.44"/><line class="cls-14" x1="1691.34" y1="651.58" x2="1713.13" y2="679.14"/><line class="cls-14" x1="1691.16" y1="654.46" x2="1710.25" y2="678.78"/><polyline class="cls-14" points="1624.33 818.2 1471.57 939.79 1438.25 898"/><line class="cls-14" x1="1624.33" y1="818.2" x2="1590.82" y2="776.41"/><line class="cls-14" x1="1471.57" y1="945.02" x2="1435.54" y2="899.98"/><line class="cls-14" x1="1471.57" y1="946.28" x2="1435" y2="900.52"/><polyline class="cls-14" points="1535.16 575.02 1533.54 576.64 1484.18 514.32"/><line class="cls-14" x1="1575.69" y1="615.19" x2="1568.84" y2="620.78"/><line class="cls-14" x1="1575.33" y1="618.43" x2="1571.73" y2="621.14"/><polyline class="cls-14" points="1547.41 579.16 1565.6 564.57 1504.36 488.2"/><polyline class="cls-14" points="1548.13 580.61 1567.58 564.93 1505.62 487.12 1504.36 488.2"/><line class="cls-14" x1="1582.71" y1="624.02" x2="1593.16" y2="615.91"/><line class="cls-14" x1="1581.81" y1="622.94" x2="1593.16" y2="613.93"/><polyline class="cls-14" points="1629.73 682.92 1640.18 674.82 1593.16 615.91"/><polyline class="cls-14" points="1630.81 684.36 1642.16 675.18 1593.16 613.93"/><line class="cls-14" x1="1572.45" y1="773.35" x2="1581.09" y2="784.52"/><line class="cls-14" x1="1575.69" y1="773.71" x2="1581.45" y2="781.28"/><line class="cls-14" x1="1454.46" y1="918.36" x2="1480.4" y2="898"/><line class="cls-14" x1="1451.22" y1="914.21" x2="1477.16" y2="893.68"/><line class="cls-14" x1="1447.97" y1="910.25" x2="1473.91" y2="889.9"/><line class="cls-14" x1="1444.73" y1="906.11" x2="1470.31" y2="885.57"/><path class="cls-14" d="M1455.36,868.1c6.48,9.37,5.58,18.19-2.88,26.3l-11-14"/><line class="cls-14" x1="1695.3" y1="690.49" x2="1689.71" y2="682.92"/><line class="cls-14" x1="1679.09" y1="703.46" x2="1671.88" y2="693.91"/><path class="cls-14" d="M1685.93,682.92l-10.09-12.07c-7.38,7.21-8.1,14.95-2.52,23.6"/><line class="cls-14" x1="1379.16" y1="371.65" x2="1375.56" y2="374.35"/><line class="cls-14" x1="1691.34" y1="651.58" x2="1681.07" y2="659.68"/><line class="cls-14" x1="1691.16" y1="654.46" x2="1684.31" y2="660.04"/><line class="cls-14" x1="1691.34" y1="651.58" x2="1601.63" y2="538.63"/><line class="cls-14" x1="1649.18" y1="606.54" x2="1650.81" y2="605.1"/><line class="cls-14" x1="1599.29" y1="540.62" x2="1597.67" y2="541.88"/><line class="cls-14" x1="1649.54" y1="604.92" x2="1599.29" y2="541.88"/><line class="cls-14" x1="1689.17" y1="653.2" x2="1687.55" y2="654.46"/><line class="cls-14" x1="1652.79" y1="609.43" x2="1687.55" y2="653.2"/><line class="cls-14" x1="1683.23" y1="657.7" x2="1647.38" y2="612.67"/><line class="cls-14" x1="1593.88" y1="545.12" x2="1645.04" y2="609.79"/><line class="cls-14" x1="1585.78" y1="545.12" x2="1564.88" y2="561.69"/><line class="cls-14" x1="1588.3" y1="542.96" x2="1586.68" y2="544.22"/><line class="cls-14" x1="1582.17" y1="540.62" x2="1561.1" y2="557.19"/><line class="cls-14" x1="1578.21" y1="535.75" x2="1557.5" y2="552.32"/><line class="cls-14" x1="1574.61" y1="531.25" x2="1553.53" y2="547.82"/><line class="cls-14" x1="1570.83" y1="526.38" x2="1550.11" y2="543.32"/><line class="cls-14" x1="1567.22" y1="521.88" x2="1546.15" y2="538.45"/><line class="cls-14" x1="1563.26" y1="517.38" x2="1542.54" y2="533.77"/><line class="cls-14" x1="1559.84" y1="512.51" x2="1538.94" y2="528.91"/><line class="cls-14" x1="1556.24" y1="507.83" x2="1535.16" y2="524.4"/><line class="cls-14" x1="1552.27" y1="502.97" x2="1531.2" y2="519.9"/><line class="cls-14" x1="1548.67" y1="498.46" x2="1527.59" y2="515.04"/><line class="cls-14" x1="1544.89" y1="493.96" x2="1524.17" y2="510.53"/><line class="cls-14" x1="1541.28" y1="489.1" x2="1520.21" y2="505.67"/><line class="cls-14" x1="1537.32" y1="484.59" x2="1516.61" y2="501.17"/><line class="cls-14" x1="1533.9" y1="479.73" x2="1512.82" y2="496.48"/><line class="cls-14" x1="1529.94" y1="475.23" x2="1509.22" y2="491.62"/><line class="cls-14" x1="1526.33" y1="470.54" x2="1505.62" y2="487.11"/><polyline class="cls-14" points="1692.78 677.52 1527.41 469.64 1526.33 470.54"/><line class="cls-14" x1="1691.7" y1="678.42" x2="1526.33" y2="470.54"/><line class="cls-14" x1="1621.98" y1="590.87" x2="1593.16" y2="613.93"/><line class="cls-14" x1="1625.95" y1="595.74" x2="1597.13" y2="618.79"/><line class="cls-14" x1="1629.73" y1="600.24" x2="1600.55" y2="623.3"/><line class="cls-14" x1="1633.33" y1="604.74" x2="1604.51" y2="627.8"/><line class="cls-14" x1="1636.94" y1="609.61" x2="1608.11" y2="632.66"/><line class="cls-14" x1="1640.9" y1="614.29" x2="1611.9" y2="637.17"/><line class="cls-14" x1="1644.32" y1="619.15" x2="1615.5" y2="642.03"/><line class="cls-14" x1="1648.28" y1="623.66" x2="1619.46" y2="646.71"/><line class="cls-14" x1="1651.89" y1="628.16" x2="1623.07" y2="651.22"/><line class="cls-14" x1="1655.67" y1="633.02" x2="1626.49" y2="656.08"/><line class="cls-14" x1="1659.27" y1="637.53" x2="1630.45" y2="660.58"/><line class="cls-14" x1="1663.24" y1="642.39" x2="1634.05" y2="665.45"/><line class="cls-14" x1="1666.84" y1="646.89" x2="1637.84" y2="669.95"/><line class="cls-14" x1="1624.87" y1="588.89" x2="1623.25" y2="589.97"/><line class="cls-14" x1="1669.36" y1="644.73" x2="1667.74" y2="645.99"/><line class="cls-14" x1="1289.64" y1="898" x2="1291.62" y2="896.92"/><line class="cls-14" x1="1280.27" y1="903.05" x2="1282.25" y2="901.79"/><polyline class="cls-14" points="1217.04 763.08 1219.02 762 1159.04 651.22"/><line class="cls-14" x1="1207.67" y1="768.31" x2="1209.66" y2="767.22"/><line class="cls-14" x1="1653.15" y1="607.81" x2="1650.81" y2="605.1"/><line class="cls-14" x1="1538.76" y1="572.32" x2="1540.56" y2="570.7"/><polygon class="cls-7" points="1598.39 538.45 1591.9 543.5 1424.2 333.1 1116.89 577.54 1157.06 652.12 1159.04 651.22 1219.02 762.18 1216.86 763.08 1244.24 814.06 1246.22 812.98 1291.62 896.92 1289.64 898 1333.05 978.7 1326.56 983.93 1106.26 575.38 1425.46 321.21 1598.39 538.45"/><polygon class="cls-7" points="1444.73 889.9 1335.03 977.08 1317.92 945.38 1392.85 905.39 1399.52 913.85 1438.79 882.69 1444.73 889.9"/><rect class="cls-15" x="1284.95" y="639.33" width="207.7" height="19.63"/><line class="cls-16" x1="540.45" y1="484.96" x2="540.45" y2="480.51"/><line class="cls-16" x1="542.12" y1="484.96" x2="542.68" y2="481.06"/><path class="cls-16" d="M538.78,502.78c10,2.78,15,8.9,14.47,19.48L536.55,520"/><polyline class="cls-16" points="537.11 520.03 535.44 520.03 534.88 521.15 537.11 521.15 537.11 520.03"/><polyline class="cls-16" points="542.12 486.07 539.89 485.52 540.45 484.96 542.12 484.96 542.12 486.07"/><path class="cls-16" d="M538.78,502.78c10.58.55,16.7-3.9,19.48-14.48L541,486.07"/><path class="cls-16" d="M394.59,392.55c1.67,20.6,12.25,34.51,31.18,41.75"/><polyline class="cls-16" points="916.22 340.77 915.11 340.77 915.67 337.44 916.78 337.99 916.22 340.77"/><line class="cls-16" x1="961.32" y1="580.16" x2="1001.4" y2="292.9"/><line class="cls-16" x1="836.06" y1="353.02" x2="836.62" y2="353.02"/><polyline class="cls-16" points="950.74 525.6 946.29 524.49 946.29 526.71 950.18 527.27 950.74 525.6"/><polyline class="cls-16" points="964.66 527.83 963.54 527.83 963.54 528.94 964.1 529.5 964.1 528.94 964.66 527.83"/><polyline class="cls-16" points="966.33 527.83 965.77 527.83 965.21 527.83 965.21 529.5 965.77 529.5 966.33 529.5"/><polyline class="cls-16" points="962.99 527.83 961.87 527.27 961.87 527.83 961.87 528.94 962.43 528.94 962.99 527.83"/><polyline class="cls-16" points="960.76 527.27 960.2 527.27 960.2 528.38 960.76 528.94 960.76 527.27"/><polyline class="cls-16" points="954.08 526.16 953.52 526.16 952.97 527.83 954.08 527.83 954.08 526.71 954.08 526.16"/><polyline class="cls-16" points="952.41 526.16 951.85 526.16 951.3 526.16 951.3 527.27 952.41 527.83 952.41 526.16"/><polyline class="cls-16" points="950.74 526.16 949.63 525.6 949.63 527.27 950.18 527.27 950.74 526.16"/><polyline class="cls-16" points="949.07 525.6 947.96 525.6 947.96 526.71 947.96 527.27 948.51 527.27 949.07 527.27 949.07 525.6"/><polyline class="cls-16" points="955.75 526.71 955.19 526.71 954.64 527.83 955.19 527.83 955.75 527.83 955.75 526.71"/><polyline class="cls-16" points="957.42 526.71 956.86 526.71 956.31 527.83 956.31 528.38 957.42 528.38 957.42 526.71"/><polyline class="cls-16" points="959.09 527.27 958.53 527.27 958.53 528.38 959.09 528.38 959.09 527.27"/><polyline class="cls-16" points="946.29 525.6 946.29 525.6 945.73 526.71 966.33 529.5 966.33 527.83 966.33 527.27 946.29 524.49 946.29 525.6 946.29 526.71 946.84 526.71 947.4 525.6 946.29 525.6"/><polyline class="cls-16" points="951.3 528.94 950.18 528.38 950.18 527.27 951.3 527.83 951.3 528.94"/><polyline class="cls-16" points="981.36 414.26 980.8 414.82 981.91 415.37 982.47 414.26 981.36 414.26"/><polyline class="cls-16" points="984.14 412.03 984.14 412.59 982.47 412.59 983.03 411.48 984.14 412.03"/><polyline class="cls-16" points="984.14 410.36 984.14 410.92 983.03 410.92 983.03 409.81 984.14 410.36"/><polyline class="cls-16" points="984.7 408.69 984.7 409.25 983.03 409.25 983.03 408.69 983.03 408.14 983.59 408.14 984.7 408.69"/><polyline class="cls-16" points="984.7 406.47 984.7 407.58 983.59 407.58 983.59 407.02 983.59 406.47 984.7 406.47"/><polyline class="cls-16" points="985.26 404.8 985.26 405.91 984.7 405.91 983.59 405.35 983.59 404.8 985.26 404.8"/><polyline class="cls-16" points="985.26 403.13 985.26 404.24 983.59 403.68 984.14 403.13 985.26 403.13"/><polyline class="cls-16" points="985.81 401.45 985.26 402.57 984.14 402.01 984.14 401.45 985.81 401.45"/><polyline class="cls-16" points="985.81 399.79 985.81 400.34 984.14 400.34 984.14 399.79 984.7 399.79 985.81 399.79"/><polyline class="cls-16" points="986.37 398.12 985.81 398.67 984.7 398.67 984.7 397.56 985.81 398.12 986.37 398.12"/><polyline class="cls-16" points="986.37 396.44 986.37 397 984.7 397 984.7 396.44 984.7 395.89 986.37 396.44"/><polyline class="cls-16" points="986.37 394.77 986.37 395.33 985.26 395.33 985.26 394.22 986.37 394.77"/><polyline class="cls-16" points="979.13 427.62 979.13 428.73 980.25 429.29 980.25 428.18 979.13 427.62"/><polyline class="cls-16" points="981.36 432.63 981.36 433.19 979.69 433.19 979.69 432.63 981.36 432.63"/><polyline class="cls-16" points="981.36 430.96 981.36 431.52 980.25 431.52 979.69 431.52 980.25 430.96 981.36 430.96"/><polyline class="cls-16" points="981.91 429.29 981.91 429.85 981.36 429.85 980.25 429.85 980.25 429.29 980.25 428.73 981.91 429.29"/><polyline class="cls-16" points="980.8 434.3 980.8 435.41 979.69 434.86 979.69 434.3 980.8 434.3"/><polyline class="cls-16" points="981.91 427.62 981.91 428.18 980.25 428.18 980.8 427.06 981.91 427.62"/><polyline class="cls-16" points="982.47 425.95 981.91 426.51 980.8 426.51 980.8 425.39 982.47 425.39 982.47 425.95"/><polyline class="cls-16" points="983.59 415.37 983.59 415.93 982.47 415.93 981.91 415.93 982.47 415.37 982.47 414.82 983.59 415.37"/><polyline class="cls-16" points="984.14 413.7 983.59 414.26 982.47 414.26 982.47 413.7 983.59 413.7 984.14 413.7"/><polyline class="cls-16" points="986.93 393.11 986.93 393.66 985.26 393.66 985.26 392.55 986.93 392.55 986.93 393.11"/><polyline class="cls-16" points="982.47 424.28 982.47 424.84 980.8 424.84 980.8 423.72 981.36 423.72 982.47 423.72 982.47 424.28"/><polyline class="cls-16" points="983.03 422.05 982.47 423.17 981.36 423.17 981.36 422.61 981.36 422.05 982.47 422.05 983.03 422.05"/><polyline class="cls-16" points="983.03 420.38 983.03 421.5 981.36 420.94 981.36 420.38 983.03 420.38"/><polyline class="cls-16" points="983.03 418.71 983.03 419.83 981.91 419.27 981.91 418.71 983.03 418.71"/><polyline class="cls-16" points="983.59 417.04 983.59 417.6 983.59 418.16 981.91 417.6 981.91 417.04 983.59 417.04"/><polyline class="cls-16" points="986.93 391.44 986.93 391.99 985.81 391.44 985.26 391.44 985.81 390.88 986.93 390.88 986.93 391.44"/><polyline class="cls-16" points="987.48 389.21 987.48 390.32 986.93 390.32 985.81 390.32 985.81 389.76 985.81 389.21 987.48 389.21"/><polyline class="cls-16" points="987.48 387.54 987.48 388.65 985.81 388.1 986.37 387.54 987.48 387.54"/><polyline class="cls-16" points="985.81 386.98 979.13 435.41 980.25 435.41"/><polyline class="cls-16" points="986.93 382.53 985.81 386.98 988.04 386.98 988.6 383.08 986.93 382.53"/><polyline class="cls-16" points="989.15 380.86 988.6 383.08 986.93 382.53 986.93 380.3 989.15 380.86"/><polyline class="cls-16" points="960.76 311.83 960.2 311.83 960.2 313.5 960.76 313.5 960.76 311.83"/><polyline class="cls-16" points="962.43 312.38 961.87 312.38 961.87 313.5 962.43 313.5 962.43 312.38"/><polyline class="cls-16" points="1015.87 291.79 1014.76 291.23 1014.2 292.34 1015.32 292.9 1015.87 291.79"/><polyline class="cls-16" points="1014.2 294.57 1009.75 294.01 1010.31 291.79 1014.76 292.34 1014.2 294.57"/><polyline class="cls-16" points="1023.11 295.13 1022 295.13 1022.55 294.01 1023.11 294.01 1023.11 295.13"/><polyline class="cls-16" points="1024.78 295.68 1023.67 295.68 1023.67 295.13 1024.22 294.01 1024.78 294.01 1024.78 296.24 1027.01 296.24 1027.01 294.57 1024.78 294.01"/><polyline class="cls-16" points="1021.44 295.13 1020.33 295.13 1020.33 293.45 1020.88 293.45 1021.44 293.45 1021.44 294.01 1021.44 295.13"/><polyline class="cls-16" points="1019.21 294.57 1018.66 294.57 1018.66 293.45 1019.77 293.45 1019.77 294.57 1019.21 294.57"/><polyline class="cls-16" points="1014.2 294.01 1013.65 294.01 1013.65 292.9 1013.65 292.34 1014.2 292.9 1014.76 292.9 1014.2 294.01"/><polyline class="cls-16" points="1012.53 294.01 1011.98 294.01 1011.98 292.34 1012.53 292.34 1012.53 294.01"/><polyline class="cls-16" points="1015.87 294.57 1015.32 294.57 1015.32 294.01 1015.32 292.9 1016.43 292.9 1015.87 294.57"/><polyline class="cls-16" points="1017.54 294.57 1016.99 294.57 1016.99 292.9 1018.1 293.45 1017.54 294.57"/><polyline class="cls-16" points="1010.31 292.9 1009.75 292.9 1010.31 291.79 1024.78 294.01 1024.78 295.68 1024.78 296.24 1009.75 294.01 1010.31 293.45 1010.31 292.34 1010.86 292.34 1010.86 293.45 1010.31 293.45"/><polyline class="cls-16" points="956.31 314.05 955.19 314.05 955.19 312.94 956.31 312.94 956.31 314.05"/><polyline class="cls-16" points="952.41 310.71 951.3 310.71 951.3 311.83 951.3 312.38 951.85 312.38 952.41 310.71"/><polyline class="cls-16" points="954.08 311.27 953.52 311.27 952.97 311.27 952.97 312.38 954.08 312.38 954.08 311.27"/><polyline class="cls-16" points="955.75 311.27 955.19 311.27 954.64 312.38 955.19 312.94 955.75 312.38 955.75 311.27"/><polyline class="cls-16" points="950.74 310.71 949.63 310.71 949.63 311.83 950.18 311.83 950.74 310.71"/><polyline class="cls-16" points="957.42 311.83 956.86 311.27 956.86 311.83 956.31 312.94 957.42 312.94 957.42 311.83"/><polyline class="cls-16" points="959.09 311.83 958.53 311.83 957.98 312.94 959.09 312.94 959.09 311.83"/><polyline class="cls-16" points="973.01 313.5 972.45 313.5 971.89 315.17 973.01 315.17 973.01 313.5"/><polyline class="cls-16" points="974.68 314.05 974.12 314.05 973.57 315.17 974.68 315.17 974.68 314.05"/><polyline class="cls-16" points="976.35 314.05 975.79 314.05 975.24 315.72 975.79 315.72 976.35 315.72 976.35 314.05"/><polyline class="cls-16" points="964.1 312.38 963.54 312.38 963.54 313.5 963.54 314.05 964.1 314.05 964.66 312.38 964.1 312.38"/><polyline class="cls-16" points="966.33 312.94 965.21 312.38 965.21 312.94 965.21 314.05 965.77 314.05 966.33 312.94"/><polyline class="cls-16" points="968 312.94 966.88 312.94 966.88 314.05 966.88 314.61 967.44 314.61 968 312.94"/><polyline class="cls-16" points="969.67 312.94 968.55 312.94 968.55 314.61 969.11 314.61 969.67 314.61 969.67 313.5 969.67 312.94"/><polyline class="cls-16" points="971.34 313.5 970.78 313.5 970.23 313.5 970.23 314.61 971.34 315.17 971.34 314.61 971.34 313.5"/><polyline class="cls-16" points="978.02 314.61 977.46 314.05 977.46 314.61 977.46 315.72 978.02 315.72 978.02 314.61"/><polyline class="cls-16" points="979.69 314.61 979.13 314.61 979.13 315.72 979.13 316.28 979.69 316.28 980.25 314.61 979.69 314.61"/><polyline class="cls-16" points="981.91 315.17 980.8 314.61 980.8 316.28 981.36 316.28 981.91 315.17"/><polyline class="cls-16" points="981.91 316.84 949.63 311.83 949.63 310.71 949.63 311.27"/><line class="cls-16" x1="819.91" y1="512.8" x2="797.09" y2="509.46"/><path class="cls-16" d="M813.23,558.45,791,555.11c2.78-13.92,11.69-20.05,25.6-19.49"/><polyline class="cls-16" points="813.79 557.33 790.97 554.55 790.97 555.11 813.23 558.45 813.79 557.33"/><polyline class="cls-16" points="812.12 559 814.35 559.56 814.35 558.45 812.68 557.89 812.12 559"/><polyline class="cls-16" points="818.8 512.8 821.03 512.8 821.03 512.24 818.8 511.68 818.8 512.8"/><path class="cls-16" d="M797.09,509.46l22.82,3.34v.55l-23.38-2.78.56-1.11c-.56,13.91,5.57,22.82,19.48,26.16"/><polyline class="cls-16" points="926.8 479.39 963.54 484.4 963.54 486.63 926.8 481.62 926.8 479.39"/><polyline class="cls-16" points="968.55 530.05 966.33 529.5 966.33 527.83 968.55 527.83 968.55 530.05"/><polyline class="cls-16" points="888.95 518.92 881.71 569.02 882.26 569.02"/><polyline class="cls-16" points="996.39 326.3 996.39 326.3 996.39 325.74"/><line class="cls-16" x1="996.95" y1="324.07" x2="996.39" y2="324.07"/><line class="cls-16" x1="996.95" y1="324.07" x2="996.39" y2="327.97"/><line class="cls-16" x1="996.39" y1="324.07" x2="996.39" y2="325.74"/><path class="cls-16" d="M989.15,324.63c0,.56,0,.56.56.56"/><line class="cls-16" x1="989.15" y1="325.19" x2="989.15" y2="325.74"/><polyline class="cls-16" points="989.15 324.63 989.71 323.52 989.15 323.52 988.6 326.86 989.15 326.86 989.15 325.74"/><polyline class="cls-16" points="989.15 325.19 996.39 326.3 996.39 327.97"/><line class="cls-16" x1="996.39" y1="326.3" x2="989.71" y2="325.19"/><line class="cls-16" x1="980.25" y1="442.09" x2="980.25" y2="441.54"/><line class="cls-16" x1="980.25" y1="442.09" x2="980.25" y2="443.21"/><line class="cls-16" x1="980.8" y1="439.87" x2="980.25" y2="443.21"/><line class="cls-16" x1="980.8" y1="439.87" x2="980.25" y2="441.54"/><line class="cls-16" x1="973.01" y1="440.42" x2="973.56" y2="440.42"/><line class="cls-16" x1="973.56" y1="440.42" x2="973.01" y2="440.98"/><polyline class="cls-16" points="973.01 440.43 973.57 438.75 973.01 438.75 972.45 442.65 973.01 442.65 973.01 440.98"/><polyline class="cls-16" points="980.25 441.54 973.57 440.43 980.25 441.54"/><line class="cls-16" x1="974.12" y1="487.19" x2="973.56" y2="487.19"/><polyline class="cls-16" points="974.12 487.19 973.57 488.86 974.12 488.86"/><line class="cls-16" x1="974.68" y1="484.96" x2="974.12" y2="484.96"/><line class="cls-16" x1="974.68" y1="484.96" x2="974.12" y2="488.86"/><line class="cls-16" x1="974.12" y1="484.96" x2="974.12" y2="486.63"/><line class="cls-16" x1="966.88" y1="485.52" x2="966.88" y2="486.07"/><polyline class="cls-16" points="966.88 485.52 966.88 483.85 966.33 487.74 966.88 487.74 966.88 486.07"/><polyline class="cls-16" points="973.57 487.19 966.88 486.07 973.57 487.19 974.12 486.63"/><polyline class="cls-16" points="986.37 315.17 986.37 315.17 986.37 317.39 981.91 316.84 982.47 314.61 986.37 315.17 986.37 317.39 988.04 317.39"/><line class="cls-16" x1="986.37" y1="315.17" x2="988.04" y2="315.72"/><line class="cls-16" x1="986.37" y1="315.17" x2="990.27" y2="315.72"/><line class="cls-16" x1="986.93" y1="322.96" x2="987.48" y2="322.4"/><polyline class="cls-16" points="986.93 322.96 985.26 322.4 985.26 322.96"/><polyline class="cls-16" points="985.26 322.96 989.15 322.96 987.48 322.96"/><line class="cls-16" x1="987.48" y1="322.4" x2="987.48" y2="322.96"/><polyline class="cls-16" points="988.04 315.72 987.48 322.4 988.6 315.72 990.27 315.72"/><line class="cls-16" x1="839.4" y1="353.58" x2="885.05" y2="359.7"/><line class="cls-16" x1="779.83" y1="556.78" x2="812.68" y2="561.23"/><polyline class="cls-16" points="812.68 559.56 813.79 559.56 813.23 562.9 812.12 562.9 812.68 559.56"/><polyline class="cls-16" points="827.71 508.9 847.19 511.13 847.19 511.68 827.71 510.01 827.71 508.9"/><line class="cls-16" x1="828.27" y1="419.27" x2="837.17" y2="355.81"/><line class="cls-16" x1="815.46" y1="508.9" x2="821.58" y2="466.59"/><line class="cls-16" x1="838.84" y1="469.37" x2="821.58" y2="466.59"/><polyline class="cls-16" points="838.84 469.37 838.84 466.59 821.59 464.36 827.71 421.5"/><line class="cls-16" x1="897.3" y1="475.5" x2="898.41" y2="475.5"/><line class="cls-16" x1="903.42" y1="432.07" x2="904.53" y2="432.07"/><path class="cls-16" d="M889,355.81c9.46.55,15.58-3.9,17.81-13.37"/><polyline class="cls-16" points="891.17 340.22 888.95 355.81 890.06 355.81 892.29 340.22 891.17 340.22"/><polyline class="cls-16" points="890.06 341.33 890.62 339.11 891.17 339.11 891.17 341.33 890.06 341.33"/><polyline class="cls-16" points="907.32 343.56 907.87 341.33 907.32 343.56 906.76 343.56 906.76 341.33 907.87 341.33"/><path class="cls-16" d="M873.36,340.77c-.56,9.47,3.9,15.59,13.36,17.82"/><polyline class="cls-16" points="888.95 343 873.36 340.77 872.8 341.33 888.39 343.56 888.95 343"/><path class="cls-16" d="M888.39,361.37c-.56,9.47,3.9,15.59,13.36,17.82"/><polyline class="cls-16" points="903.98 363.6 901.75 379.19 900.64 379.19 902.86 363.6 903.98 363.6"/><polyline class="cls-16" points="885.05 359.15 887.83 359.15 885.05 359.15 885.61 358.03 887.83 358.59 887.83 359.15"/><polyline class="cls-16" points="904.53 364.71 905.09 362.49 903.98 362.49 903.98 364.71 904.53 364.71 905.09 362.49"/><line class="cls-16" x1="904.53" y1="432.07" x2="898.41" y2="475.5"/><line class="cls-16" x1="902.31" y1="432.07" x2="896.18" y2="474.94"/><line class="cls-16" x1="901.19" y1="431.52" x2="895.07" y2="474.94"/><line class="cls-16" x1="828.27" y1="419.27" x2="901.19" y2="429.29"/><line class="cls-16" x1="897.3" y1="475.5" x2="895.07" y2="474.94"/><polyline class="cls-16" points="827.71 421.5 903.42 432.07 912.88 363.6"/><polyline class="cls-16" points="936.27 321.29 936.27 322.4 932.92 321.85 932.92 320.73 936.27 321.29"/><polyline class="cls-16" points="846.64 564.01 847.75 564.57 847.19 567.35 846.64 567.35 846.64 564.01"/><polyline class="cls-16" points="951.3 579.04 952.41 579.04 951.85 582.38 950.74 581.83 951.3 579.04"/><polyline class="cls-16" points="914.55 573.48 915.67 574.03 915.11 576.82 914 576.82 914.55 573.48"/><polyline class="cls-16" points="881.15 569.02 881.71 569.02 881.71 572.36 880.6 572.36 881.15 569.02"/><polyline class="cls-16" points="1168.97 268.96 1170.08 268.96 1169.52 272.3 1168.41 272.3 1168.97 268.96"/><polyline class="cls-16" points="1133.89 263.95 1135.01 263.95 1135.01 267.29 1133.89 267.29 1133.89 263.95"/><line class="cls-16" x1="885.05" y1="359.15" x2="885.05" y2="359.7"/><line class="cls-16" x1="892.29" y1="326.86" x2="890.06" y2="341.89"/><line class="cls-16" x1="887.83" y1="359.15" x2="887.28" y2="362.49"/><line class="cls-16" x1="907.87" y1="341.33" x2="912.33" y2="341.89"/><line class="cls-16" x1="907.32" y1="343.56" x2="914.55" y2="344.67"/><polyline class="cls-16" points="837.17 355.81 887.28 362.49 887.83 362.49 888.39 360.26 887.28 360.26 887.28 362.49"/><line class="cls-16" x1="904.53" y1="364.71" x2="910.1" y2="365.83"/><line class="cls-16" x1="905.09" y1="362.49" x2="912.88" y2="363.6"/><line class="cls-16" x1="910.1" y1="365.83" x2="901.19" y2="429.29"/><polyline class="cls-16" points="855.54 515.58 856.1 513.35 855.54 515.58 854.99 515.58 854.99 512.8 856.1 513.35"/><line class="cls-16" x1="895.07" y1="474.94" x2="889.5" y2="516.69"/><line class="cls-16" x1="897.3" y1="475.5" x2="891.17" y2="519.48"/><line class="cls-16" x1="815.46" y1="508.9" x2="836.62" y2="511.13"/><line class="cls-16" x1="856.1" y1="513.35" x2="889.5" y2="516.69"/><line class="cls-16" x1="855.54" y1="515.58" x2="891.17" y2="519.48"/><line class="cls-16" x1="813.79" y1="561.23" x2="846.64" y2="565.68"/><line class="cls-16" x1="847.75" y1="566.24" x2="880.6" y2="570.69"/><line class="cls-16" x1="881.71" y1="570.69" x2="914" y2="575.15"/><line class="cls-16" x1="915.11" y1="575.15" x2="950.74" y2="580.16"/><line class="cls-16" x1="916.78" y1="337.99" x2="930.7" y2="339.66"/><line class="cls-16" x1="916.22" y1="340.77" x2="932.93" y2="343.56"/><line class="cls-16" x1="916.22" y1="339.66" x2="931.81" y2="341.33"/><line class="cls-16" x1="931.81" y1="341.33" x2="934.6" y2="322.4"/><line class="cls-16" x1="1168.41" y1="270.63" x2="1135.01" y2="265.62"/><line class="cls-16" x1="520.41" y1="478.28" x2="524.86" y2="446.55"/><line class="cls-16" x1="530.43" y1="407.02" x2="532.66" y2="407.02"/><path class="cls-16" d="M531.54,408.14l18.37,2.78c-2.78,11.13-9.46,16.14-21.15,15.59"/><polyline class="cls-16" points="532.66 408.14 530.43 407.58 530.43 407.02 532.66 407.02 532.66 408.14"/><line class="cls-16" x1="524.86" y1="446.55" x2="527.09" y2="446.55"/><path class="cls-16" d="M526.53,445.43l18.37,2.79c.56-11.69-5-18.93-16.14-21.71"/><line class="cls-16" x1="862.22" y1="288.44" x2="888.39" y2="292.34"/><line class="cls-16" x1="374" y1="296.24" x2="351.73" y2="458.24"/><line class="cls-16" x1="216.45" y1="417.6" x2="205.31" y2="416.49"/><line class="cls-16" x1="211.44" y1="436.53" x2="203.09" y2="435.41"/><polyline class="cls-16" points="211.44 436.53 213.66 419.83 205.31 418.71"/><line class="cls-16" x1="224.8" y1="358.03" x2="213.66" y2="356.36"/><line class="cls-16" x1="211.44" y1="371.39" x2="213.66" y2="359.15"/><line class="cls-16" x1="224.8" y1="358.03" x2="222.02" y2="375.29"/><polyline class="cls-16" points="205.31 416.49 211.44 374.18 222.02 375.29 224.24 360.26"/><polyline class="cls-16" points="211.44 371.39 220.34 372.51 222.02 360.26 213.66 359.15"/><polyline class="cls-16" points="283.25 427.06 280.47 448.77 248.18 443.76 250.96 422.61"/><polyline class="cls-16" points="283.25 427.06 281.03 426.51 278.8 442.65"/><line class="cls-16" x1="267.67" y1="436.53" x2="263.21" y2="435.97"/><polyline class="cls-16" points="263.21 435.97 262.65 440.43 250.96 438.75 253.19 423.17 250.96 422.61"/><line class="cls-16" x1="267.67" y1="436.53" x2="267.11" y2="440.98"/><line class="cls-16" x1="278.8" y1="442.65" x2="267.11" y2="440.98"/><line class="cls-16" x1="376.22" y1="255.04" x2="348.94" y2="452.67"/><line class="cls-16" x1="262.1" y1="363.04" x2="259.87" y2="378.07"/><polyline class="cls-16" points="262.1 363.04 259.87 363.04 257.09 380.3 357.29 394.22"/><line class="cls-16" x1="289.38" y1="366.94" x2="286.59" y2="366.38"/><line class="cls-16" x1="289.38" y1="366.94" x2="286.59" y2="384.2"/><line class="cls-16" x1="286.59" y1="366.38" x2="284.92" y2="381.41"/><polyline class="cls-16" points="341.71 374.18 340.04 389.21 357.29 391.99"/><polyline class="cls-16" points="341.71 374.18 339.48 374.18 337.25 389.21"/><line class="cls-16" x1="259.87" y1="378.07" x2="284.92" y2="381.41"/><line class="cls-16" x1="287.15" y1="381.97" x2="337.25" y2="389.21"/><line class="cls-16" x1="301.07" y1="384.2" x2="300.51" y2="386.42"/><polyline class="cls-16" points="382.35 250.59 354.51 246.69 352.28 266.73"/><polyline class="cls-16" points="438.57 268.96 440.8 252.82 375.11 243.91"/><line class="cls-16" x1="433.56" y1="307.37" x2="375.67" y2="299.02"/><line class="cls-16" x1="374" y1="296.24" x2="376.22" y2="296.24"/><line class="cls-16" x1="375.67" y1="299.02" x2="376.22" y2="296.24"/><polyline class="cls-16" points="379.56 255.6 374.55 294.01 376.78 294.01 383.46 245.02"/><line class="cls-16" x1="532.66" y1="407.02" x2="550.47" y2="278.42"/><line class="cls-16" x1="564.94" y1="280.65" x2="550.47" y2="278.42"/><line class="cls-16" x1="530.43" y1="407.02" x2="548.8" y2="272.86"/><line class="cls-16" x1="520.41" y1="478.28" x2="522.64" y2="478.84"/><line class="cls-16" x1="551.58" y1="469.37" x2="524.86" y2="465.48"/><line class="cls-16" x1="523.19" y1="476.61" x2="524.31" y2="467.7"/><line class="cls-16" x1="625.63" y1="487.19" x2="626.18" y2="482.18"/><line class="cls-16" x1="572.74" y1="297.35" x2="574.97" y2="281.76"/><line class="cls-16" x1="553.81" y1="469.37" x2="556.59" y2="451"/><polyline class="cls-16" points="564.95 280.65 562.72 296.24 578.31 298.46"/><line class="cls-16" x1="574.97" y1="281.76" x2="567.17" y2="280.65"/><polyline class="cls-16" points="567.17 280.65 565.5 294.01 573.29 295.13"/><line class="cls-16" x1="551.58" y1="452.12" x2="551.58" y2="449.89"/><line class="cls-16" x1="292.72" y1="253.37" x2="293.27" y2="250.03"/><polyline class="cls-16" points="292.72 253.37 289.38 252.82 289.93 249.47"/><polyline class="cls-16" points="339.48 256.71 309.42 252.82 309.42 253.93 338.92 258.38 339.48 256.71"/><polyline class="cls-16" points="353.4 257.27 322.22 252.82 322.22 250.59"/><line class="cls-16" x1="293.27" y1="250.03" x2="289.93" y2="249.48"/><line class="cls-16" x1="709.69" y1="310.16" x2="706.35" y2="309.6"/><line class="cls-16" x1="709.69" y1="310.16" x2="710.24" y2="306.82"/><line class="cls-16" x1="706.35" y1="309.6" x2="706.9" y2="306.82"/><line class="cls-16" x1="644.55" y1="297.91" x2="579.42" y2="289"/><polyline class="cls-16" points="542.68 481.06 544.35 470.49 524.3 467.7"/><line class="cls-16" x1="561.05" y1="482.73" x2="562.72" y2="473.27"/><polyline class="cls-16" points="558.82 479.95 559.93 472.71 546.57 471.04"/><line class="cls-16" x1="626.18" y1="482.18" x2="600.57" y2="478.28"/><polyline class="cls-16" points="597.23 486.63 598.35 478.28 562.72 473.27"/><polyline class="cls-16" points="625.63 487.19 600.02 484.4 600.57 478.28"/><polyline class="cls-16" points="558.82 479.95 545.46 478.84 546.57 471.04"/><line class="cls-16" x1="524.86" y1="465.48" x2="525.42" y2="459.91"/><line class="cls-16" x1="551.58" y1="469.37" x2="552.7" y2="463.81"/><line class="cls-16" x1="552.7" y1="463.81" x2="525.42" y2="459.91"/><line class="cls-16" x1="550.47" y1="461.02" x2="542.68" y2="459.91"/><polyline class="cls-16" points="551.58 452.12 541.56 450.44 540.45 459.35 525.98 457.68 527.09 446.55 527.65 445.99 524.86 445.44 524.86 446.55 527.09 446.55"/><line class="cls-16" x1="550.47" y1="461.02" x2="551.03" y2="454.34"/><polyline class="cls-16" points="551.03 454.34 543.23 453.23 542.68 459.91"/><polyline class="cls-16" points="553.81 469.37 626.74 479.39 651.79 299.02"/><line class="cls-16" x1="556.59" y1="451" x2="551.58" y2="449.89"/><polyline class="cls-16" points="743.65 476.05 740.31 501.11 812.12 508.9 833.83 353.58 839.4 314.05 917.34 325.19"/><polyline class="cls-16" points="743.65 476.05 741.42 476.05 737.52 503.33 836.06 513.35 836.62 511.13 837.17 511.13 837.17 513.35 836.06 513.35 836.62 511.13"/><line class="cls-16" x1="673.5" y1="466.59" x2="671.27" y2="466.03"/><line class="cls-16" x1="696.88" y1="486.63" x2="695.77" y2="493.87"/><line class="cls-16" x1="701.34" y1="470.49" x2="699.11" y2="469.93"/><line class="cls-16" x1="701.34" y1="470.49" x2="698" y2="496.65"/><line class="cls-16" x1="673.5" y1="466.59" x2="671.83" y2="480.51"/><polyline class="cls-16" points="699.11 469.93 697.44 484.4 671.83 480.51"/><polyline class="cls-16" points="696.88 486.63 671.27 483.29 670.16 491.64"/><line class="cls-16" x1="695.77" y1="493.87" x2="670.16" y2="491.64"/><polyline class="cls-16" points="698 496.65 667.38 493.87 627.85 489.42 522.63 478.84"/><line class="cls-16" x1="917.34" y1="325.19" x2="914.55" y2="344.67"/><line class="cls-16" x1="630.08" y1="474.94" x2="629.52" y2="477.17"/><path class="cls-16" d="M632.86,461.58l2.79-18.37c11.13,2.78,16.14,9.46,15.58,21.15"/><polyline class="cls-16" points="632.86 460.47 632.31 462.69 631.75 462.69 631.75 460.47 632.86 460.47"/><polyline class="cls-16" points="671.27 468.26 671.27 466.03 670.72 466.03 670.16 468.26 671.27 468.26 671.27 466.03 667.93 491.08 628.41 487.19 654.57 299.58"/><path class="cls-16" d="M670.16,467.15l2.23-18.93c-11.69-.56-18.37,5-21.16,16.14"/><polyline class="cls-16" points="699.67 484.96 699.11 487.19 700.22 487.19 700.22 484.96 699.67 484.96 699.11 487.19"/><line class="cls-16" x1="739.19" y1="490.53" x2="738.64" y2="492.75"/><polyline class="cls-16" points="737.52 492.2 738.08 489.97 739.19 490.53 738.64 492.75 737.52 492.2"/><path class="cls-16" d="M737.52,491.08,735.3,510c-11.69-2.78-16.71-9.46-16.15-21.15"/><path class="cls-16" d="M700.22,486.07,698,504.45c11.69.55,18.37-4.46,21.15-15.59"/><polyline class="cls-16" points="255.97 485.52 258.2 485.52 258.76 482.18 256.53 482.18 255.97 485.52"/><polyline class="cls-16" points="220.9 480.51 223.13 480.51 223.69 477.72 221.46 477.17 220.9 480.51"/><polyline class="cls-16" points="290.49 489.97 292.72 490.53 293.27 487.19 291.05 487.19 290.49 489.97"/><line class="cls-16" x1="255.97" y1="483.85" x2="223.69" y2="479.39"/><line class="cls-16" x1="291.05" y1="488.3" x2="258.2" y2="483.85"/><line class="cls-16" x1="325.56" y1="493.31" x2="293.27" y2="488.86"/><line class="cls-16" x1="402.94" y1="502.22" x2="346.16" y2="494.42"/><line class="cls-16" x1="488.12" y1="517.81" x2="488.68" y2="514.47"/><line class="cls-16" x1="438.57" y1="268.96" x2="435.79" y2="268.4"/><polyline class="cls-16" points="433.56 307.37 435.79 291.23 432.45 291.23"/><path class="cls-16" d="M431.34,309C374,328,354,366.38,371.77,423.72c11.13,21.71,28.39,33.41,52.33,35.63,39.52,1.67,63.46-17.26,71.81-56.22,3.9-21.16-2.22-39-18.37-52.89-16.7-12.81-35.07-16.15-55.11-8.91"/><path class="cls-16" d="M364,394.22c2.79,34,20.6,56.78,52.33,69"/><line class="cls-16" x1="397.38" y1="400.9" x2="361.19" y2="393.1"/><path class="cls-16" d="M394.59,400.34c3.9,17.26,14.48,29,31.18,35.07"/><path class="cls-16" d="M362.86,393.66c2.78,34.52,20.6,57.9,52.89,70.7"/><path class="cls-16" d="M395.71,400.34c3.89,16.7,13.91,27.84,30.06,34"/><line class="cls-16" x1="425.77" y1="435.41" x2="425.77" y2="434.3"/><line class="cls-16" x1="415.75" y1="464.36" x2="416.3" y2="463.25"/><line class="cls-16" x1="412.96" y1="462.14" x2="423.54" y2="434.3"/><line class="cls-16" x1="406.28" y1="459.35" x2="419.65" y2="432.63"/><line class="cls-16" x1="400.16" y1="455.46" x2="415.75" y2="430.4"/><line class="cls-16" x1="394.59" y1="451.56" x2="411.85" y2="428.18"/><line class="cls-16" x1="387.91" y1="446.55" x2="407.95" y2="424.84"/><line class="cls-16" x1="370.1" y1="420.38" x2="397.38" y2="408.69"/><line class="cls-16" x1="367.32" y1="412.59" x2="395.15" y2="404.24"/><line class="cls-16" x1="365.64" y1="405.35" x2="392.37" y2="399.79"/><line class="cls-16" x1="364.53" y1="397.56" x2="376.78" y2="396.45"/><line class="cls-16" x1="256.53" y1="482.73" x2="223.69" y2="478.28"/><line class="cls-16" x1="255.97" y1="484.96" x2="223.13" y2="479.95"/><line class="cls-16" x1="291.05" y1="487.74" x2="258.76" y2="482.73"/><line class="cls-16" x1="291.05" y1="489.41" x2="258.2" y2="484.96"/><line class="cls-16" x1="326.12" y1="492.2" x2="293.27" y2="487.74"/><line class="cls-16" x1="325.56" y1="494.42" x2="293.27" y2="489.97"/><line class="cls-16" x1="200.3" y1="434.86" x2="200.3" y2="434.3"/><polyline class="cls-16" points="211.44 436.53 203.09 435.41 205.31 418.71"/><line class="cls-16" x1="216.45" y1="417.6" x2="213.11" y2="439.31"/><line class="cls-16" x1="348.39" y1="455.46" x2="280.47" y2="445.99"/><polyline class="cls-16" points="351.73 458.24 312.2 453.23 312.76 447.66"/><line class="cls-16" x1="352.28" y1="453.23" x2="312.76" y2="447.66"/><line class="cls-16" x1="281.58" y1="446.55" x2="282.14" y2="443.21"/><line class="cls-16" x1="280.47" y1="445.99" x2="281.03" y2="443.21"/><polyline class="cls-16" points="312.76 450.44 312.76 447.66 281.03 443.21"/><line class="cls-16" x1="311.64" y1="450.45" x2="312.2" y2="447.66"/><line class="cls-16" x1="311.64" y1="448.78" x2="281.58" y2="444.88"/><polyline class="cls-16" points="381.79 256.16 359.52 252.82 357.29 267.29 352.28 266.73"/><polyline class="cls-16" points="382.35 252.82 356.74 249.47 354.51 264.51"/><polyline class="cls-16" points="382.35 253.93 357.29 250.03 355.07 264.51 354.51 264.51"/><line class="cls-16" x1="322.78" y1="253.37" x2="323.34" y2="250.59"/><line class="cls-16" x1="322.22" y1="252.82" x2="322.22" y2="250.59"/><polyline class="cls-16" points="353.4 257.27 353.4 255.04 322.22 250.59"/><line class="cls-16" x1="352.28" y1="257.27" x2="352.84" y2="255.04"/><line class="cls-16" x1="352.84" y1="256.16" x2="322.78" y2="251.7"/><line class="cls-16" x1="230.92" y1="238.9" x2="260.43" y2="243.35"/><line class="cls-16" x1="230.92" y1="240.57" x2="230.92" y2="237.78"/><line class="cls-16" x1="229.81" y1="240.01" x2="230.37" y2="237.78"/><line class="cls-16" x1="260.43" y1="244.47" x2="260.98" y2="242.24"/><line class="cls-16" x1="230.37" y1="237.78" x2="261.54" y2="242.24"/><polyline class="cls-16" points="229.81 240.01 261.54 244.47 261.54 242.24"/><line class="cls-16" x1="261.54" y1="244.47" x2="261.54" y2="242.24"/><polyline class="cls-16" points="243.73 243.35 273.23 247.81 273.23 248.92 243.73 245.02 243.73 243.35"/><polyline class="cls-16" points="348.39 455.46 348.39 454.9 312.76 449.89"/><line class="cls-16" x1="215.89" y1="420.38" x2="215.89" y2="422.05"/><path class="cls-16" d="M217,421.5l-2.23,16.14c10,.56,16.14-4.45,18.37-13.92"/><polyline class="cls-16" points="216.45 422.61 217 420.38 215.89 420.38 215.89 422.05 216.45 422.61"/><path class="cls-16" d="M249.29,426l-2.22,16.14c-9.47-2.22-14.48-8.35-13.92-18.37"/><polyline class="cls-16" points="250.41 424.84 250.41 427.06 249.29 427.06 249.85 424.84 250.41 424.84 250.41 427.06"/><polyline class="cls-16" points="351.17 498.32 352.84 498.88 353.4 495.54 351.17 494.98 351.17 498.32"/><line class="cls-16" x1="345.6" y1="497.21" x2="327.79" y2="494.98"/><line class="cls-16" x1="345.6" y1="496.09" x2="327.79" y2="493.87"/><line class="cls-16" x1="346.16" y1="494.98" x2="328.35" y2="492.75"/><polyline class="cls-16" points="394.04 504.45 391.81 504.45 392.37 501.11 394.04 501.11 394.04 504.45"/><line class="cls-16" x1="391.81" y1="502.78" x2="353.4" y2="497.21"/><line class="cls-16" x1="425.21" y1="506.67" x2="402.94" y2="503.33"/><line class="cls-16" x1="404.61" y1="506.67" x2="402.39" y2="506.67"/><line class="cls-16" x1="404.61" y1="506.67" x2="402.39" y2="506.67"/><line class="cls-16" x1="425.21" y1="506.67" x2="424.66" y2="508.9"/><line class="cls-16" x1="424.1" y1="506.67" x2="424.1" y2="508.9"/><line class="cls-16" x1="405.73" y1="503.89" x2="405.73" y2="506.12"/><polyline class="cls-16" points="405.17 503.89 404.61 506.12 402.39 505.56 345.6 497.76 347.83 498.32 348.39 494.98 346.16 494.43 345.6 497.76"/><line class="cls-16" x1="424.1" y1="507.79" x2="405.73" y2="505"/><polyline class="cls-16" points="425.21 506.67 424.66 508.9 404.61 506.12 402.39 505.56 402.94 502.22 400.72 502.22 400.16 505.56 402.39 505.56 402.94 503.33"/><line class="cls-16" x1="482.55" y1="517.81" x2="484.78" y2="517.81"/><line class="cls-16" x1="482.55" y1="516.69" x2="484.78" y2="517.25"/><line class="cls-16" x1="482.55" y1="517.81" x2="484.78" y2="517.81"/><line class="cls-16" x1="462.51" y1="511.68" x2="462.51" y2="513.91"/><line class="cls-16" x1="463.62" y1="512.8" x2="482" y2="515.58"/><polyline class="cls-16" points="483.11 514.47 482.55 516.69 484.78 517.25"/><line class="cls-16" x1="482" y1="514.47" x2="481.44" y2="516.69"/><line class="cls-16" x1="463.62" y1="512.24" x2="463.07" y2="513.91"/><line class="cls-16" x1="482.55" y1="516.69" x2="462.51" y2="513.91"/><polyline class="cls-16" points="484.78 515.02 462.51 511.68 462.51 513.91"/><line class="cls-16" x1="489.23" y1="517.81" x2="489.79" y2="514.47"/><line class="cls-16" x1="488.12" y1="517.81" x2="488.68" y2="514.47"/><polyline class="cls-16" points="533.21 523.93 533.77 520.59 533.21 523.93 536 524.49 536.55 521.15 533.77 520.59"/><line class="cls-16" x1="532.1" y1="523.93" x2="532.66" y2="520.59"/><line class="cls-16" x1="532.66" y1="522.26" x2="489.23" y2="516.14"/><line class="cls-16" x1="537.11" y1="524.49" x2="537.67" y2="521.15"/><line class="cls-16" x1="571.63" y1="529.5" x2="572.18" y2="526.16"/><line class="cls-16" x1="571.07" y1="528.94" x2="571.63" y2="526.16"/><line class="cls-16" x1="571.07" y1="527.83" x2="537.11" y2="522.82"/><line class="cls-16" x1="606.7" y1="533.95" x2="606.7" y2="530.61"/><line class="cls-16" x1="605.58" y1="533.95" x2="606.14" y2="530.61"/><line class="cls-16" x1="605.58" y1="532.28" x2="572.18" y2="527.83"/><line class="cls-16" x1="641.21" y1="538.96" x2="641.77" y2="535.62"/><line class="cls-16" x1="640.1" y1="538.96" x2="640.66" y2="535.62"/><line class="cls-16" x1="640.66" y1="537.29" x2="606.7" y2="532.28"/><line class="cls-16" x1="675.73" y1="543.97" x2="676.29" y2="540.63"/><line class="cls-16" x1="674.62" y1="543.41" x2="675.17" y2="540.07"/><line class="cls-16" x1="675.17" y1="541.74" x2="641.21" y2="537.29"/><line class="cls-16" x1="710.24" y1="548.43" x2="710.8" y2="545.08"/><line class="cls-16" x1="709.69" y1="548.43" x2="710.24" y2="545.08"/><line class="cls-16" x1="709.69" y1="546.75" x2="675.73" y2="542.3"/><line class="cls-16" x1="745.32" y1="553.44" x2="745.32" y2="550.1"/><line class="cls-16" x1="744.2" y1="553.44" x2="744.76" y2="550.1"/><line class="cls-16" x1="744.2" y1="551.77" x2="710.8" y2="546.75"/><line class="cls-16" x1="779.83" y1="558.45" x2="779.83" y2="555.11"/><line class="cls-16" x1="778.72" y1="557.89" x2="779.28" y2="555.11"/><line class="cls-16" x1="779.28" y1="556.22" x2="745.32" y2="551.77"/><line class="cls-16" x1="430.78" y1="303.48" x2="379.56" y2="296.24"/><line class="cls-16" x1="379.56" y1="296.24" x2="386.24" y2="248.92"/><line class="cls-16" x1="430.78" y1="303.48" x2="432.45" y2="291.23"/><line class="cls-16" x1="435.79" y1="268.4" x2="437.46" y2="255.6"/><line class="cls-16" x1="437.46" y1="255.6" x2="386.24" y2="248.92"/><line class="cls-16" x1="382.9" y1="250.59" x2="368.99" y2="248.36"/><line class="cls-16" x1="382.9" y1="247.81" x2="371.77" y2="246.69"/><line class="cls-16" x1="382.9" y1="247.25" x2="372.33" y2="246.14"/><polyline class="cls-16" points="578.31 298.46 581.09 277.31 548.8 272.86"/><polyline class="cls-16" points="575.52 295.13 577.75 279.54 548.8 275.64"/><polyline class="cls-16" points="575.52 295.13 576.08 295.68 578.31 278.98 548.8 275.08"/><line class="cls-16" x1="565.5" y1="294.01" x2="573.3" y2="295.13"/><line class="cls-16" x1="548.24" y1="277.31" x2="439.69" y2="262.28"/><line class="cls-16" x1="440.8" y1="262.28" x2="440.8" y2="260.05"/><line class="cls-16" x1="439.69" y1="262.28" x2="440.24" y2="260.05"/><line class="cls-16" x1="473.09" y1="266.73" x2="473.65" y2="264.51"/><line class="cls-16" x1="472.53" y1="266.73" x2="472.53" y2="264.51"/><line class="cls-16" x1="472.53" y1="265.62" x2="440.8" y2="261.17"/><line class="cls-16" x1="473.09" y1="266.73" x2="473.65" y2="264.51"/><polyline class="cls-16" points="548.24 277.31 548.8 275.08 473.64 264.51 440.24 260.05"/><line class="cls-16" x1="547.69" y1="277.31" x2="547.69" y2="275.08"/><line class="cls-16" x1="547.69" y1="276.2" x2="473.65" y2="265.62"/><line class="cls-16" x1="580.53" y1="289" x2="580.53" y2="286.77"/><line class="cls-16" x1="579.42" y1="289" x2="579.98" y2="286.77"/><line class="cls-16" x1="644.55" y1="297.91" x2="645.11" y2="295.68"/><line class="cls-16" x1="644" y1="297.91" x2="644" y2="295.68"/><line class="cls-16" x1="644" y1="296.8" x2="580.53" y2="287.89"/><line class="cls-16" x1="773.15" y1="315.72" x2="773.71" y2="313.5"/><line class="cls-16" x1="837.73" y1="324.63" x2="837.73" y2="322.4"/><line class="cls-16" x1="836.62" y1="324.63" x2="837.17" y2="322.4"/><line class="cls-16" x1="837.17" y1="323.52" x2="773.71" y2="314.61"/><line class="cls-16" x1="709.13" y1="305.7" x2="645.67" y2="296.8"/><line class="cls-16" x1="709.13" y1="306.82" x2="709.13" y2="304.59"/><line class="cls-16" x1="709.69" y1="306.82" x2="710.24" y2="305.15"/><line class="cls-16" x1="645.67" y1="297.91" x2="645.67" y2="295.68"/><polyline class="cls-16" points="709.69 306.82 644.55 297.91 645.11 295.68"/><polyline class="cls-16" points="710.24 305.15 645.11 295.68 579.98 286.77"/><polyline class="cls-16" points="837.73 324.63 772.6 315.72 772.6 313.5"/><line class="cls-16" x1="837.73" y1="322.4" x2="772.59" y2="313.5"/><line class="cls-16" x1="710.24" y1="306.82" x2="706.9" y2="306.82"/><line class="cls-16" x1="727.5" y1="312.38" x2="792.64" y2="321.85"/><polyline class="cls-16" points="727.5 312.38 727.5 310.16 792.64 319.62"/><line class="cls-16" x1="728.06" y1="312.38" x2="728.62" y2="310.71"/><line class="cls-16" x1="728.06" y1="311.83" x2="791.52" y2="320.18"/><line class="cls-16" x1="791.52" y1="321.29" x2="792.08" y2="319.06"/><line class="cls-16" x1="792.64" y1="321.85" x2="792.64" y2="319.62"/><polyline class="cls-16" points="892.29 326.86 914 330.2 912.33 341.89"/><line class="cls-16" x1="839.4" y1="353.58" x2="843.85" y2="320.18"/><line class="cls-16" x1="836.06" y1="353.02" x2="841.07" y2="316.84"/><line class="cls-16" x1="836.62" y1="353.02" x2="841.63" y2="317.39"/><line class="cls-16" x1="841.07" y1="316.84" x2="914.55" y2="327.41"/><line class="cls-16" x1="841.63" y1="317.39" x2="914.55" y2="327.97"/><line class="cls-16" x1="914.55" y1="327.41" x2="914.55" y2="327.97"/><polyline class="cls-16" points="843.85 320.18 889.5 326.86 887.83 341.89 890.06 341.89 890.06 343 887.28 342.44 887.83 341.89 890.06 341.89"/><polyline class="cls-16" points="328.35 492.2 326.12 491.64 325.56 494.98 327.79 495.54 328.35 492.2 326.12 491.64"/><path class="cls-16" d="M329.46,473.83c-10.58-.56-16.7,4.45-18.93,14.47l16.7,2.78"/><polyline class="cls-16" points="326.12 491.08 328.35 491.08 328.35 492.2 326.12 491.64 326.12 491.08"/><polyline class="cls-16" points="331.13 456.57 333.36 456.57 333.36 456.01 331.13 455.46 331.13 456.57"/><path class="cls-16" d="M329.46,473.83c-10-2.23-15-8.91-14.48-19.49l17.26,2.79"/><g class="cls-17"><polyline class="cls-18" points="1483.97 530.72 1456.51 495.77 1455.02 496.77 1482.97 531.72 1483.97 530.72"/><polyline class="cls-18" points="1462.01 491.28 1463.5 490.28 1463 489.28 1461.51 490.78 1462.01 491.28"/><polyline class="cls-18" points="1562.86 615.1 1563.85 614.1 1492.46 524.73"/><polyline class="cls-18" points="1448.03 470.81 1449.52 469.81 1492.96 524.23 1491.46 525.23"/><polyline class="cls-18" points="1449.03 470.31 1444.03 464.32 1434.55 471.81 1439.54 478.3 1482.47 532.72"/><line class="cls-18" x1="1482.48" y1="532.72" x2="1489.96" y2="526.73"/><line class="cls-18" x1="1439.54" y1="478.3" x2="1446.53" y2="472.31"/><polyline class="cls-18" points="1441.54 477.3 1456.02 495.27 1455.02 496.27 1440.54 477.8 1441.54 477.3"/><polyline class="cls-18" points="1487.47 530.72 1458.01 493.78 1456.51 495.27 1485.97 531.72 1487.47 530.72"/><polyline class="cls-18" points="1442.04 473.81 1458.01 493.78 1456.51 495.27 1440.54 475.3 1442.04 473.81"/><polyline class="cls-18" points="1446.53 472.31 1448.03 470.81 1447.53 470.31 1446.03 471.31 1446.53 472.31"/><line class="cls-18" x1="1435.05" y1="471.31" x2="1415.08" y2="445.85"/><path class="cls-18" d="M1497.45,813.3c5.5-6.49,6.49-13.48,2-21"/><line class="cls-18" x1="1497.45" y1="813.3" x2="1487.97" y2="801.82"/><line class="cls-18" x1="1486.47" y1="801.32" x2="1487.47" y2="800.82"/><polyline class="cls-18" points="1487.47 801.82 1487.97 801.82 1487.47 800.82"/><path class="cls-18" d="M1202.89,531.22c-7.49-9-16-11-26.46-5.49"/><polyline class="cls-18" points="1176.43 525.73 1189.41 541.71 1190.91 543.7"/><line class="cls-18" x1="1202.89" y1="531.22" x2="1204.39" y2="532.72"/><polyline class="cls-18" points="1447.03 661.53 1449.03 660.53 1448.53 660.03 1446.53 661.03"/><line class="cls-18" x1="1460.51" y1="675.01" x2="1459.01" y2="676.51"/><polyline class="cls-18" points="1459.01 676.5 1460.51 675.01 1460.01 674.51 1458.51 675.51 1444.53 686.99"/><line class="cls-18" x1="1460.51" y1="675.01" x2="1462.01" y2="676.51"/><polyline class="cls-18" points="1516.42 570.66 1431.55 638.56 1448.53 660.03 1446.53 661.03"/><polyline class="cls-18" points="1515.43 568.66 1428.56 638.06 1446.53 661.03"/><line class="cls-18" x1="1444.03" y1="464.32" x2="1424.06" y2="438.86"/><line class="cls-18" x1="1152.97" y1="599.62" x2="1154.46" y2="601.12"/><polyline class="cls-18" points="1154.46 601.12 1150.47 604.61 1196.4 689.99"/><polyline class="cls-18" points="1146.97 591.13 1145.98 589.63 1145.48 590.13"/><polyline class="cls-18" points="1145.98 589.63 1158.96 579.15 1166.94 588.64 1168.44 587.64 1160.95 577.65 1158.96 579.15"/><line class="cls-18" x1="1146.47" y1="590.63" x2="1158.96" y2="580.65"/><polyline class="cls-18" points="1436.54 470.31 1438.04 468.81 1437.54 468.31 1436.04 469.81 1436.54 470.31"/><line class="cls-18" x1="1542.39" y1="632.07" x2="1502.45" y2="664.02"/><line class="cls-18" x1="1539.39" y1="631.57" x2="1528.91" y2="618.59"/><polyline class="cls-18" points="1542.39 632.07 1530.4 617.09 1528.91 618.59"/><polyline class="cls-18" points="1543.88 607.61 1544.88 607.11 1554.87 620.09 1554.37 620.59 1543.88 607.61"/><path class="cls-18" d="M1544.88,607.11l10,13c-8.49,5.49-16,5-23-2.5"/><polyline class="cls-18" points="1531.9 619.09 1532.4 618.59 1531.4 616.59 1530.4 617.09 1531.9 619.09"/><polyline class="cls-18" points="1545.38 608.11 1545.88 607.61 1544.88 606.11 1543.88 606.61 1545.38 608.11"/><line class="cls-18" x1="1539.39" y1="631.57" x2="1500.95" y2="662.03"/><line class="cls-18" x1="1446.53" y1="472.31" x2="1489.96" y2="526.73"/><line class="cls-18" x1="1448.03" y1="470.81" x2="1491.46" y2="525.23"/><line class="cls-18" x1="1447.53" y1="471.81" x2="1462.01" y2="489.78"/><line class="cls-18" x1="1462.51" y1="490.78" x2="1490.96" y2="526.23"/><polyline class="cls-18" points="1490.46 527.23 1492.46 526.23 1491.46 525.23 1489.96 526.73 1490.46 527.23"/><polyline class="cls-18" points="1331.7 428.37 1295.25 457.83 1184.92 545.7"/><path class="cls-18" d="M1181.42,550.69c-8.48,8-9.48,16.48-3,26-5.49-5.49-12-6.49-19-2"/><polyline class="cls-18" points="1192.91 565.17 1193.4 564.67 1194.9 566.67 1194.4 567.17 1192.91 565.17 1181.92 551.19 1180.92 551.69 1192.41 565.67 1192.91 565.17"/><polyline class="cls-18" points="1167.94 585.14 1166.94 585.64 1168.44 587.64 1168.94 587.14 1167.94 585.14 1158.96 574.16 1159.45 573.66 1168.44 584.64 1167.94 585.14"/><polyline class="cls-18" points="1331.7 431.37 1296.75 459.33 1186.42 547.2"/><path class="cls-18" d="M1186.42,547.2c-1.5,1-1.5,2.49-.5,4l3.49,4"/><path class="cls-18" d="M1184.92,545.7c-2,2-2.5,4-1,6.49l3.49,4.49"/><line class="cls-18" x1="1537.39" y1="721.44" x2="1512.93" y2="690.98"/><line class="cls-18" x1="1538.89" y1="720.44" x2="1514.43" y2="689.49"/><path class="cls-18" d="M1446.53,460.33q-7.48-7.5-16.48-1.5"/><polyline class="cls-18" points="1437.04 467.81 1437.54 468.31 1447.03 460.83 1446.53 460.33 1437.04 467.81"/><path class="cls-18" d="M1430.05,458.83q12-11.24,3-25.46"/><line class="cls-18" x1="1551.37" y1="657.53" x2="1552.87" y2="659.03"/><polyline class="cls-18" points="1551.37 660.03 1551.87 659.53 1563.36 673.51 1562.36 674.01 1551.37 660.03"/><path class="cls-18" d="M1551.87,659.53l.5-.5-1-1.5-1,.5,1.5,1.5L1563.36,674c-9.49,6.49-18,5.49-26-3"/><line class="cls-18" x1="1539.89" y1="586.14" x2="1502.45" y2="538.71"/><line class="cls-18" x1="1551.87" y1="659.53" x2="1537.39" y2="671.01"/><line class="cls-18" x1="1275.78" y1="489.78" x2="1275.78" y2="490.28"/><polyline class="cls-18" points="1275.78 489.78 1277.28 488.78 1276.78 488.78"/><line class="cls-18" x1="1274.28" y1="490.78" x2="1274.28" y2="491.28"/><line class="cls-18" x1="1274.28" y1="490.78" x2="1276.78" y2="488.78"/><line class="cls-18" x1="1274.28" y1="491.28" x2="1275.28" y2="490.28"/><line class="cls-18" x1="1279.78" y1="495.27" x2="1279.78" y2="494.78"/><polyline class="cls-18" points="1279.78 495.27 1278.28 496.27 1278.78 496.27 1281.28 494.28 1279.78 494.77"/><polyline class="cls-18" points="1275.78 490.28 1279.78 494.77 1275.78 490.28 1275.28 490.28"/><polyline class="cls-18" points="1298.75 802.82 1300.25 801.32 1302.24 802.82 1300.25 804.32 1298.75 802.82"/><polyline class="cls-18" points="1516.42 631.07 1514.43 632.57 1512.93 630.57"/><line class="cls-18" x1="1516.42" y1="631.07" x2="1514.93" y2="629.08"/><line class="cls-18" x1="1514.93" y1="629.08" x2="1512.93" y2="630.57"/><polyline class="cls-18" points="1482.97 657.53 1480.98 659.03 1479.48 657.03"/><line class="cls-18" x1="1482.97" y1="657.53" x2="1481.48" y2="655.54"/><line class="cls-18" x1="1481.48" y1="655.54" x2="1479.48" y2="657.03"/><line class="cls-18" x1="1218.87" y1="535.22" x2="1218.87" y2="535.71"/><line class="cls-18" x1="1218.87" y1="535.22" x2="1219.87" y2="534.22"/><line class="cls-18" x1="1217.37" y1="536.21" x2="1217.37" y2="536.71"/><line class="cls-18" x1="1217.37" y1="536.21" x2="1219.87" y2="534.22"/><line class="cls-18" x1="1217.37" y1="536.71" x2="1218.37" y2="535.71"/><path class="cls-18" d="M1222.36,540.71c.5,0,.5,0,0-.5"/><polyline class="cls-18" points="1222.36 540.71 1221.36 541.71 1224.36 539.71 1223.86 539.71 1222.86 540.21"/><polyline class="cls-18" points="1222.86 540.21 1218.87 535.71 1218.37 535.71"/><line class="cls-18" x1="1218.87" y1="535.71" x2="1222.36" y2="540.21"/><line class="cls-18" x1="1303.24" y1="468.81" x2="1302.74" y2="468.31"/><line class="cls-18" x1="1301.74" y1="469.31" x2="1304.24" y2="467.32"/><line class="cls-18" x1="1301.74" y1="469.31" x2="1302.74" y2="468.31"/><line class="cls-18" x1="1306.74" y1="473.81" x2="1306.74" y2="473.31"/><line class="cls-18" x1="1306.74" y1="473.31" x2="1307.24" y2="473.31"/><polyline class="cls-18" points="1306.74 473.81 1305.74 474.31 1305.74 474.81 1308.73 472.31 1308.23 472.31 1307.24 473.31"/><polyline class="cls-18" points="1303.24 468.81 1306.74 473.31 1303.24 468.31 1304.24 467.32"/><line class="cls-18" x1="1443.53" y1="468.81" x2="1443.03" y2="468.81"/><polyline class="cls-18" points="1443.53 468.81 1444.03 469.81 1444.53 469.81"/><line class="cls-18" x1="1442.53" y1="467.32" x2="1442.53" y2="467.82"/><line class="cls-18" x1="1442.53" y1="467.82" x2="1443.03" y2="468.31"/><line class="cls-18" x1="1442.53" y1="467.32" x2="1444.53" y2="469.81"/><line class="cls-18" x1="1440.54" y1="470.81" x2="1440.54" y2="471.31"/><polyline class="cls-18" points="1440.54 470.81 1440.54 470.81 1439.54 469.81 1439.54 470.31 1441.04 472.31 1441.54 471.81 1440.54 471.31"/><polyline class="cls-18" points="1443.03 468.81 1440.54 470.81 1443.03 468.81 1443.03 468.31"/><line class="cls-18" x1="1496.45" y1="535.22" x2="1495.96" y2="535.22"/><line class="cls-18" x1="1495.96" y1="535.22" x2="1496.95" y2="536.21"/><line class="cls-18" x1="1496.45" y1="535.22" x2="1497.95" y2="537.21"/><path class="cls-18" d="M1494.46,538.21c-.5.5-.5.5,0,.5"/><polyline class="cls-18" points="1494.46 538.21 1496.95 536.21 1497.95 537.21"/><polyline class="cls-18" points="1496.95 536.21 1493.96 538.21 1493.46 537.71 1492.96 537.71 1494.96 539.71 1494.96 539.21 1494.46 538.71"/><line class="cls-18" x1="1550.87" y1="603.61" x2="1550.37" y2="603.61"/><polyline class="cls-18" points="1550.87 603.61 1551.37 604.61 1551.87 604.61"/><line class="cls-18" x1="1549.88" y1="602.61" x2="1550.37" y2="603.61"/><line class="cls-18" x1="1549.88" y1="602.61" x2="1551.87" y2="604.61"/><line class="cls-18" x1="1547.88" y1="605.61" x2="1547.88" y2="606.11"/><polyline class="cls-18" points="1547.88 605.61 1547.88 605.61 1546.88 604.61 1546.88 605.11 1548.38 607.11 1547.88 606.11"/><polyline class="cls-18" points="1550.38 603.61 1547.88 605.61 1550.38 603.61"/><line class="cls-18" x1="1224.86" y1="753.89" x2="1224.36" y2="753.89"/><polyline class="cls-18" points="1224.86 753.89 1225.86 756.39 1226.36 755.89"/><path class="cls-18" d="M1220.36,755.89l-.49.5"/><line class="cls-18" x1="1220.36" y1="755.89" x2="1224.36" y2="753.89"/><line class="cls-18" x1="1223.36" y1="750.89" x2="1226.36" y2="755.89"/><polyline class="cls-18" points="1223.36 750.89 1224.36 753.39 1219.87 755.89 1218.37 753.39 1218.37 753.89 1220.86 758.88 1221.36 758.88 1219.87 756.39"/><line class="cls-18" x1="1177.43" y1="679" x2="1177.93" y2="679"/><line class="cls-18" x1="1177.43" y1="679" x2="1176.93" y2="678"/><line class="cls-18" x1="1178.43" y1="681" x2="1176.93" y2="678"/><line class="cls-18" x1="1178.43" y1="681" x2="1177.93" y2="679.5"/><line class="cls-18" x1="1183.92" y1="676.51" x2="1183.42" y2="676.51"/><polyline class="cls-18" points="1183.92 676.5 1184.42 677.5 1182.92 674.51 1182.92 675.01 1183.42 676.01"/><line class="cls-18" x1="1183.42" y1="676.01" x2="1177.93" y2="679"/><line class="cls-18" x1="1177.93" y1="679.5" x2="1183.42" y2="676.51"/><line class="cls-18" x1="1137.99" y1="600.12" x2="1137.49" y2="600.12"/><line class="cls-18" x1="1136.49" y1="600.62" x2="1138.99" y2="598.62"/><line class="cls-18" x1="1136.49" y1="600.62" x2="1137.49" y2="600.12"/><line class="cls-18" x1="1141.98" y1="605.11" x2="1141.98" y2="604.61"/><polyline class="cls-18" points="1141.98 605.11 1140.48 606.11 1140.98 606.11 1143.48 604.11 1143.48 603.61 1141.98 604.61"/><polyline class="cls-18" points="1137.99 600.12 1141.98 604.61 1137.99 599.62 1139.48 598.62 1138.99 598.62"/><polyline class="cls-18" points="1293.26 484.29 1303.74 475.8 1301.74 472.31 1290.76 481.3 1293.26 484.29"/><polyline class="cls-18" points="1281.77 493.28 1292.26 484.79 1289.76 481.79 1279.28 490.28 1281.77 493.28"/><line class="cls-18" x1="1548.38" y1="610.6" x2="1547.38" y2="609.11"/><polyline class="cls-18" points="1542.89 603.61 1347.68 758.38 1287.77 788.84"/><polyline class="cls-18" points="1531.4 589.13 1338.69 741.41 1279.28 772.36"/><polyline class="cls-18" points="1519.42 574.66 1329.7 724.93 1270.29 755.89"/><polyline class="cls-18" points="1261.3 739.41 1320.72 707.96 1507.94 560.18"/><polyline class="cls-18" points="1496.45 545.2 1311.73 691.48 1220.86 739.41"/><polyline class="cls-18" points="1473.49 516.24 1293.76 658.03 1202.89 706.46"/><polyline class="cls-18" points="1484.97 530.72 1302.74 675.01 1211.88 722.44"/><line class="cls-18" x1="1392.61" y1="422.88" x2="1412.58" y2="447.84"/><line class="cls-18" x1="1412.58" y1="447.84" x2="1416.57" y2="444.85"/><polyline class="cls-18" points="1396.1 553.19 1392.61 548.7 1377.13 561.18"/><line class="cls-18" x1="1385.12" y1="538.71" x2="1381.13" y2="534.22"/><line class="cls-18" x1="1380.63" y1="565.67" x2="1377.13" y2="561.18"/><line class="cls-18" x1="1369.14" y1="551.19" x2="1365.65" y2="546.7"/><polyline class="cls-18" points="1285.27 640.56 1282.27 635.57 1264.8 644.55"/><line class="cls-18" x1="1276.28" y1="624.58" x2="1273.79" y2="619.09"/><line class="cls-18" x1="1264.8" y1="644.55" x2="1267.79" y2="650.04"/><polyline class="cls-18" points="1273.79 619.09 1256.31 628.58 1258.81 634.07"/><line class="cls-18" x1="1381.13" y1="534.22" x2="1365.65" y2="546.7"/><polyline class="cls-18" points="1193.9 689.99 1285.27 640.56 1461.51 501.76"/><polyline class="cls-18" points="1450.02 486.79 1275.78 625.08 1185.42 673.51"/><line class="cls-18" x1="1331.7" y1="441.85" x2="1329.7" y2="443.35"/><line class="cls-18" x1="1551.37" y1="657.53" x2="1552.87" y2="659.03"/><line class="cls-18" x1="1195.4" y1="566.17" x2="1339.19" y2="451.34"/><line class="cls-18" x1="1499.45" y1="792.33" x2="1481.48" y2="768.87"/><line class="cls-18" x1="1512.93" y1="781.85" x2="1494.46" y2="758.38"/><line class="cls-18" x1="1525.91" y1="771.36" x2="1507.44" y2="747.9"/><line class="cls-18" x1="1539.39" y1="760.88" x2="1520.92" y2="737.41"/><polyline class="cls-18" points="1498.95 791.33 1499.45 792.33 1498.95 791.33"/><line class="cls-18" x1="1512.93" y1="781.85" x2="1511.93" y2="780.85"/><line class="cls-18" x1="1511.93" y1="781.85" x2="1502.95" y2="771.36"/><path class="cls-18" d="M1503,771.36c-6,5.5-6.5,12-2,19"/><polyline class="cls-18" points="1512.43 782.35 1511.43 781.35 1511.93 780.85 1512.93 781.85 1512.43 782.35"/><line class="cls-18" x1="1525.91" y1="771.36" x2="1525.41" y2="770.37"/><line class="cls-18" x1="1524.91" y1="771.36" x2="1516.42" y2="760.88"/><path class="cls-18" d="M1516.42,760.88c-6,5.49-7,12-2.49,19"/><polyline class="cls-18" points="1525.41 771.86 1524.91 770.87 1525.41 770.37 1525.91 771.36 1525.41 771.86"/><line class="cls-18" x1="1539.39" y1="760.88" x2="1538.39" y2="759.88"/><line class="cls-18" x1="1537.89" y1="760.88" x2="1529.41" y2="750.4"/><path class="cls-18" d="M1529.41,750.4c-6,5.49-6.49,12-2,19"/><polyline class="cls-18" points="1538.39 761.38 1537.89 760.38 1538.39 759.88 1539.39 760.88 1538.39 761.38"/><line class="cls-18" x1="1551.87" y1="749.9" x2="1542.89" y2="738.91"/><path class="cls-18" d="M1542.89,738.91c-6.49,6-7,12.48-2.5,20"/><line class="cls-18" x1="1552.87" y1="749.9" x2="1552.37" y2="750.4"/><polyline class="cls-18" points="1552.37 750.39 1551.37 749.4 1552.37 748.9"/><polyline class="cls-18" points="1539.39 760.88 1540.39 759.88 1540.89 759.38 1539.89 758.38 1539.39 758.88 1540.39 759.88 1539.39 758.88 1521.92 736.91"/><polyline class="cls-18" points="1525.91 771.36 1526.91 770.37 1527.41 769.87 1526.91 768.87 1526.41 769.37 1526.91 770.37 1526.41 769.37 1508.44 747.4"/><line class="cls-18" x1="1512.93" y1="781.85" x2="1513.93" y2="780.85"/><polyline class="cls-18" points="1499.45 792.33 1500.45 791.33 1501.45 790.84 1500.45 790.34 1499.95 790.84 1500.45 791.33 1499.95 790.84 1481.98 768.37"/><line class="cls-18" x1="1467.5" y1="777.36" x2="1465.5" y2="774.36"/><line class="cls-18" x1="1480.48" y1="759.38" x2="1463" y2="737.41"/><line class="cls-18" x1="1479.48" y1="760.38" x2="1462.01" y2="738.41"/><line class="cls-18" x1="1476.48" y1="725.43" x2="1477.98" y2="724.43"/><line class="cls-18" x1="1478.48" y1="725.43" x2="1477.48" y2="726.43"/><polyline class="cls-18" points="1464 735.42 1464.5 736.42 1464 735.42 1464.5 734.92 1465.5 735.92 1464.5 736.42"/><line class="cls-18" x1="1462.01" y1="738.41" x2="1460.51" y2="739.41"/><path class="cls-18" d="M1464,735.42l-4,3.49.5.5-.5-.5q-11.23-9-24-3l10.49,13.48-.5.5.5,1,.5-.49-.5-1"/><polyline class="cls-18" points="1476.48 725.43 1477.48 726.43 1476.48 725.43 1475.98 725.93 1476.98 726.93 1477.48 726.43"/><path class="cls-18" d="M1465,735.42c6,6.49,12.48,7,20,2"/><line class="cls-18" x1="1484.97" y1="737.41" x2="1476.48" y2="726.43"/><line class="cls-18" x1="1464.5" y1="736.42" x2="1463" y2="737.41"/><path class="cls-18" d="M1504.44,668.52c-7.49,6.49-8,14-2.49,22.46"/><polyline class="cls-18" points="1513.93 680.5 1514.43 681 1501.95 690.98 1501.45 690.48 1513.93 680.5"/><polyline class="cls-18" points="1513.43 681.5 1513.93 682 1515.93 681 1515.43 680.5 1513.43 681.5"/><path class="cls-18" d="M1556.37,752.39c-6.49,6.49-7.49,13.48-2.5,21.47"/><polyline class="cls-18" points="1565.85 763.88 1566.35 764.38 1553.87 773.86 1553.87 773.36 1565.85 763.88"/><polyline class="cls-18" points="1504.94 667.02 1502.94 668.52 1503.44 669.02 1504.94 667.52 1504.94 667.02 1502.94 668.52"/><polyline class="cls-18" points="1396.1 900.67 1399.1 904.67 1398.6 905.16 1397.6 903.67 1398.1 903.17 1399.1 904.67"/><line class="cls-18" x1="1482.48" y1="662.53" x2="1454.02" y2="684.99"/><line class="cls-18" x1="1452.52" y1="686.49" x2="1448.53" y2="689.49"/><line class="cls-18" x1="1447.03" y1="690.98" x2="1419.07" y2="712.95"/><line class="cls-18" x1="1536.4" y1="592.13" x2="1539.39" y2="589.13"/><polyline class="cls-18" points="1144.98 603.61 1149.97 599.62 1144.98 593.13"/><polyline class="cls-18" points="1147.97 604.11 1152.96 599.62 1145.48 590.13"/><line class="cls-18" x1="1195.4" y1="563.17" x2="1189.41" y2="555.19"/><polyline class="cls-18" points="1195.4 566.17 1187.41 556.68 1189.41 555.18"/><line class="cls-18" x1="1492.46" y1="526.73" x2="1490.96" y2="527.73"/><line class="cls-18" x1="1487.47" y1="530.72" x2="1485.97" y2="532.22"/><line class="cls-18" x1="1298.75" y1="808.81" x2="1362.65" y2="927.63"/><polyline class="cls-18" points="1134.99 601.12 1219.87 758.88 1226.86 754.89"/><polyline class="cls-18" points="1132 600.62 1219.87 762.88 1258.81 741.91 1362.15 934.12"/><line class="cls-18" x1="1144.98" y1="603.61" x2="1226.86" y2="754.89"/><line class="cls-18" x1="1147.97" y1="604.11" x2="1194.9" y2="690.98"/><polyline class="cls-18" points="1196.4 693.48 1228.85 753.89 1260.31 736.91 1297.75 807.31"/><line class="cls-18" x1="1298.75" y1="808.81" x2="1415.08" y2="715.95"/><polyline class="cls-18" points="1497.45 542.7 1534.9 590.13 1538.39 587.64 1500.45 540.21 1497.45 542.7"/><path class="cls-18" d="M1459,676.51,1446.53,661l.5.5c-7.49,7.49-8.49,16-2.5,25.46l-.5-.5L1458,675l.5.5.5,1,1,1.49"/><line class="cls-18" x1="1497.95" y1="745.4" x2="1479.48" y2="722.44"/><line class="cls-18" x1="1479.48" y1="722.44" x2="1477.48" y2="723.93"/><line class="cls-18" x1="1502.95" y1="668.52" x2="1500.45" y2="665.52"/><polyline class="cls-18" points="1517.92 683.5 1515.93 681 1513.93 682.5"/><line class="cls-18" x1="1504.94" y1="667.02" x2="1502.45" y2="664.02"/><line class="cls-18" x1="1452.52" y1="686.49" x2="1459.51" y2="695.48"/><line class="cls-18" x1="1462.51" y1="695.98" x2="1454.02" y2="684.99"/><line class="cls-18" x1="1459.51" y1="695.48" x2="1456.01" y2="698.47"/><line class="cls-18" x1="1462.51" y1="695.98" x2="1455.52" y2="701.47"/><line class="cls-18" x1="1448.53" y1="689.49" x2="1456.01" y2="698.47"/><line class="cls-18" x1="1447.03" y1="690.98" x2="1455.52" y2="701.47"/><line class="cls-18" x1="1419.07" y1="712.95" x2="1427.06" y2="723.93"/><line class="cls-18" x1="1426.06" y1="724.93" x2="1427.06" y2="723.93"/><line class="cls-18" x1="1297.75" y1="807.31" x2="1483.97" y2="659.03"/><line class="cls-18" x1="1483.97" y1="659.03" x2="1491.96" y2="669.02"/><line class="cls-18" x1="1482.48" y1="662.53" x2="1490.96" y2="673.01"/><polyline class="cls-18" points="1491.96 669.02 1500.95 662.03 1502.45 664.02"/><line class="cls-18" x1="1490.96" y1="673.01" x2="1500.45" y2="665.52"/><line class="cls-18" x1="1510.43" y1="692.48" x2="1536.89" y2="671.51"/><line class="cls-18" x1="1552.87" y1="659.03" x2="1554.37" y2="658.03"/><line class="cls-18" x1="1578.83" y1="688.49" x2="1554.37" y2="658.03"/><polyline class="cls-18" points="1507.44 692.48 1516.42 684.99 1513.93 682.5"/><polyline class="cls-18" points="1517.92 683.5 1535.4 670.01 1536.89 671.51 1537.39 671.01 1535.9 669.52 1535.4 670.01 1536.89 671.51"/><line class="cls-18" x1="1551.37" y1="657.53" x2="1554.37" y2="654.54"/><line class="cls-18" x1="1507.44" y1="692.48" x2="1529.41" y2="720.44"/><line class="cls-18" x1="1510.43" y1="692.48" x2="1534.9" y2="723.44"/><line class="cls-18" x1="1536.4" y1="724.93" x2="1556.86" y2="750.89"/><line class="cls-18" x1="1578.83" y1="688.49" x2="1534.9" y2="723.44"/><line class="cls-18" x1="1465.5" y1="774.36" x2="1530.9" y2="721.94"/><line class="cls-18" x1="1497.95" y1="745.4" x2="1529.41" y2="720.44"/><polyline class="cls-18" points="1467.5 777.36 1533.4 724.93 1530.9 721.94"/><polyline class="cls-18" points="1468.99 778.85 1534.4 726.43 1554.87 752.39"/><polyline class="cls-18" points="1536.39 724.93 1583.83 687.49 1582.33 685.49 1580.33 686.99 1554.37 654.54"/><polyline class="cls-18" points="1426.06 724.93 1464 772.36 1495.95 746.9 1477.48 723.93"/><line class="cls-18" x1="1469" y1="778.85" x2="1499.95" y2="817.8"/><polyline class="cls-18" points="1196.4 693.48 1288.76 643.55 1464 504.26"/><polyline class="cls-18" points="1194.9 690.98 1287.27 641.06 1462.01 501.76 1464 504.26"/><line class="cls-18" x1="1329.7" y1="443.35" x2="1336.19" y2="451.34"/><line class="cls-18" x1="1333.2" y1="443.35" x2="1337.69" y2="449.84"/><polyline class="cls-18" points="1487.47 530.72 1495.95 541.21 1499.45 538.71"/><line class="cls-18" x1="1536.4" y1="592.13" x2="1556.37" y2="617.09"/><line class="cls-18" x1="1485.97" y1="532.22" x2="1547.38" y2="609.11"/><line class="cls-18" x1="1548.38" y1="610.6" x2="1556.37" y2="620.09"/><line class="cls-18" x1="1490.96" y1="527.73" x2="1499.45" y2="538.71"/><line class="cls-18" x1="1492.46" y1="526.73" x2="1502.45" y2="538.71"/><polyline class="cls-18" points="1539.39 589.13 1559.86 614.6 1556.37 617.09"/><polyline class="cls-18" points="1539.89 586.14 1562.86 615.1 1556.37 620.09 1564.35 613.6 1564.35 614.1 1556.37 620.59 1556.37 620.09"/><polyline class="cls-18" points="1362.65 927.63 1372.64 919.64 1375.63 923.14"/><polyline class="cls-18" points="1396.1 900.67 1497.95 819.79 1415.08 715.95"/><polyline class="cls-18" points="1554.87 752.39 1556.87 750.89 1555.37 752.39 1555.87 752.89 1557.36 751.89 1556.87 750.89"/><line class="cls-18" x1="1499.95" y1="817.8" x2="1630.76" y2="713.95"/><polyline class="cls-18" points="1362.15 934.12 1375.63 923.14 1374.64 921.64 1375.13 921.14 1376.63 922.64 1375.63 923.14"/><polyline class="cls-18" points="1399.1 904.67 1640.74 712.45 1641.24 711.95"/><line class="cls-18" x1="1134.99" y1="601.12" x2="1144.98" y2="593.13"/><polyline class="cls-18" points="1132 600.62 1145.48 590.13 1146.47 591.63 1146.97 591.13 1159.95 581.15 1160.45 580.65 1158.96 579.15 1158.46 579.65 1159.95 581.15"/><polyline class="cls-18" points="1333.2 443.35 1388.62 399.42 1420.07 439.36 1416.57 441.85"/><polyline class="cls-18" points="1331.7 441.85 1388.62 396.42 1423.06 439.36 1416.57 444.85"/><line class="cls-18" x1="1195.4" y1="563.17" x2="1336.19" y2="451.34"/><polyline class="cls-18" points="1337.69 449.84 1390.11 408.4 1416.57 441.85"/><polyline class="cls-18" points="1339.19 451.34 1389.61 411.4 1416.57 444.85 1417.07 445.35 1418.57 444.35 1432.55 432.87 1433.05 433.37 1419.07 444.85 1418.57 444.35 1418.07 443.35 1416.57 444.85"/><polyline class="cls-18" points="1513.93 780.85 1514.43 780.35 1513.43 779.85 1512.93 780.35 1513.93 780.85 1512.93 780.35 1495.46 757.88"/></g><path class="cls-19" d="M2380.59,1167.27s-638.59-13.87-936-56.67S498.37,831.89,498.37,831.89L-22.37,642.39"/><path class="cls-20" d="M617.4,174.3a.55.55,0,0,1-.3.5l-1.8,1.5a.76.76,0,0,0-.2.5c.2.8.4,1.5.6,2.3a.57.57,0,0,1-.2.7.6.6,0,0,1-.8,0c-.7-.4-1.4-.9-2.1-1.3a.3.3,0,0,0-.4,0l-2,1.2a1.42,1.42,0,0,1-.6.2.79.79,0,0,1-.5-.8l.6-2.5a.37.37,0,0,0-.1-.3h0c-.6-.5-1.2-1-1.7-1.5a1,1,0,0,1-.4-.7.58.58,0,0,1,.6-.6l2.6-.2c.2,0,.2-.1.2-.2l.9-2.1s0-.2.1-.2a.65.65,0,0,1,1.2,0l.9,2.3c0,.1.2.2.3.3l2.2.2h.4a.94.94,0,0,1,.5.7Z"/><path class="cls-20" d="M604.6,174.3a.76.76,0,0,1-.2.5l-1.8,1.5a.76.76,0,0,0-.2.5c.2.8.4,1.5.6,2.3a.52.52,0,0,1-.3.7.6.6,0,0,1-.8,0c-.7-.4-1.4-.9-2.1-1.3-.1-.1-.3-.2-.4-.1h0l-2,1.2a1.42,1.42,0,0,1-.6.2.79.79,0,0,1-.5-.8c.2-.8.4-1.7.6-2.5a.37.37,0,0,0-.1-.3h0c-.6-.5-1.2-1-1.7-1.5a1,1,0,0,1-.4-.7.65.65,0,0,1,.6-.6l2.6-.2c.2,0,.2-.1.2-.2l.9-2.1s0-.2.1-.2a.82.82,0,0,1,.6-.4.68.68,0,0,1,.6.4l.9,2.3c0,.1.2.2.3.3l2.2.2h.4a.58.58,0,0,1,.6.6A.31.31,0,0,0,604.6,174.3Z"/><path class="cls-20" d="M591.9,174.3a.55.55,0,0,1-.3.5l-1.8,1.5a.76.76,0,0,0-.2.5c.2.8.4,1.5.6,2.3a.52.52,0,0,1-.3.7.6.6,0,0,1-.8,0c-.7-.4-1.4-.9-2.1-1.3a.3.3,0,0,0-.4,0l-2,1.2a1.42,1.42,0,0,1-.6.2.79.79,0,0,1-.5-.8l.6-2.5c0-.1,0-.2-.1-.2h0c-.6-.5-1.2-1-1.7-1.5a1,1,0,0,1-.4-.7.65.65,0,0,1,.6-.6l2.6-.2c.2,0,.2-.1.2-.2l.9-2.1s0-.2.1-.2a.65.65,0,0,1,1.2,0l.9,2.3c0,.1.2.2.3.3l2.2.2h.4a.58.58,0,0,1,.6.6Z"/><path class="cls-20" d="M630.1,174.3a.55.55,0,0,1-.3.5l-1.8,1.5a.76.76,0,0,0-.2.5c.2.8.4,1.5.6,2.3a.52.52,0,0,1-.3.7.6.6,0,0,1-.8,0c-.7-.4-1.4-.9-2.1-1.3a.3.3,0,0,0-.4,0l-2,1.2a1.42,1.42,0,0,1-.6.2.79.79,0,0,1-.5-.8h0l.6-2.5a.37.37,0,0,0-.1-.3h0c-.6-.5-1.2-1-1.7-1.5a1,1,0,0,1-.4-.7.65.65,0,0,1,.6-.6l2.6-.2c.2,0,.2-.1.2-.2l.9-2.1s0-.2.1-.2a.65.65,0,0,1,1.2,0l.9,2.3c0,.1.2.2.3.3l2.2.2h.4A.73.73,0,0,1,630.1,174.3Z"/><path class="cls-20" d="M606.4,200.7a2.5,2.5,0,0,1-2.4-1.6l-4.1-9H583.1a8.6,8.6,0,0,1-8.6-8.6v-12a8.6,8.6,0,0,1,8.6-8.6H623a15.36,15.36,0,0,1,15.3,15.3v5.3a8.75,8.75,0,0,1-8.6,8.7H612.9l-4.1,9A2.67,2.67,0,0,1,606.4,200.7Zm-23.3-36a4.8,4.8,0,0,0-4.8,4.8h0v12a4.8,4.8,0,0,0,4.8,4.8H600a3.89,3.89,0,0,1,3.4,2.1l3,6.8,3-6.8a3.76,3.76,0,0,1,3.4-2.2h17a4.87,4.87,0,0,0,4.8-4.8V176a11.57,11.57,0,0,0-11.5-11.5l-40,.2Z"/><path class="cls-20" d="M639.2,154l2.5-.3a3.39,3.39,0,0,0,.6,1.5,1.9,1.9,0,0,0,1.3.5,1.61,1.61,0,0,0,1.3-.6,2.07,2.07,0,0,0,.5-1.6,2.25,2.25,0,0,0-.5-1.5,1.61,1.61,0,0,0-1.3-.6,7.38,7.38,0,0,0-1.2.2l.3-2.1a2.07,2.07,0,0,0,1.6-.5,1.43,1.43,0,0,0,.5-1.3,1.38,1.38,0,0,0-1.5-1.5,1.61,1.61,0,0,0-1.1.5,2.62,2.62,0,0,0-.6,1.3l-2.4-.4a5.84,5.84,0,0,1,.7-1.9,3.14,3.14,0,0,1,1.4-1.1,4.48,4.48,0,0,1,2-.4,3.77,3.77,0,0,1,3,1.2,3.28,3.28,0,0,1,.9,2.2,3.06,3.06,0,0,1-1.9,2.8,2.8,2.8,0,0,1,1.8,1.1,3.85,3.85,0,0,1-.6,5.1,4.54,4.54,0,0,1-3.2,1.2,4.36,4.36,0,0,1-3-1A6.34,6.34,0,0,1,639.2,154Z"/><path class="cls-20" d="M900.2,664l2.5-.3a3.39,3.39,0,0,0,.6,1.5,1.9,1.9,0,0,0,1.3.5,1.61,1.61,0,0,0,1.3-.6,2.07,2.07,0,0,0,.5-1.6,2.25,2.25,0,0,0-.5-1.5,1.61,1.61,0,0,0-1.3-.6,7.38,7.38,0,0,0-1.2.2l.3-2.1a2.07,2.07,0,0,0,1.6-.5,1.43,1.43,0,0,0,.5-1.3,1.38,1.38,0,0,0-1.5-1.5,1.61,1.61,0,0,0-1.1.5,2.62,2.62,0,0,0-.6,1.3l-2.4-.4a5.84,5.84,0,0,1,.7-1.9,3.14,3.14,0,0,1,1.4-1.1,4.48,4.48,0,0,1,2-.4,3.77,3.77,0,0,1,3,1.2,3.28,3.28,0,0,1,.9,2.2,3.06,3.06,0,0,1-1.9,2.8,2.8,2.8,0,0,1,1.8,1.1,3.85,3.85,0,0,1-.6,5.1,4.54,4.54,0,0,1-3.2,1.2,4.36,4.36,0,0,1-3-1A6.34,6.34,0,0,1,900.2,664Z"/><circle class="cls-21" cx="642.9" cy="150.4" r="18.5"/><line class="cls-22" x1="606.4" y1="200.7" x2="606.4" y2="330"/><path class="cls-20" d="M883.4,684.2a.55.55,0,0,1-.3.5l-1.8,1.5a.76.76,0,0,0-.2.5c.2.8.4,1.5.6,2.3a.57.57,0,0,1-.2.7.6.6,0,0,1-.8,0c-.7-.4-1.4-.9-2.1-1.3a.3.3,0,0,0-.4,0l-2,1.2a1.42,1.42,0,0,1-.6.2.79.79,0,0,1-.5-.8l.6-2.5a.37.37,0,0,0-.1-.3h0c-.6-.5-1.2-1-1.7-1.5a1,1,0,0,1-.4-.7.58.58,0,0,1,.6-.6l2.6-.2c.2,0,.2-.1.2-.2l.9-2.1s0-.2.1-.2a.65.65,0,0,1,1.2,0l.9,2.3c0,.1.2.2.3.3l2.2.2h.4a.75.75,0,0,1,.5.7Z"/><path class="cls-20" d="M870.6,684.2a.76.76,0,0,1-.2.5l-1.8,1.5a.76.76,0,0,0-.2.5c.2.8.4,1.5.6,2.3a.52.52,0,0,1-.3.7.6.6,0,0,1-.8,0c-.7-.4-1.4-.9-2.1-1.3-.1-.1-.3-.2-.4-.1h0l-2,1.2a1.42,1.42,0,0,1-.6.2.79.79,0,0,1-.5-.8c.2-.8.4-1.7.6-2.5a.37.37,0,0,0-.1-.3h0c-.6-.5-1.2-1-1.7-1.5a1,1,0,0,1-.4-.7.65.65,0,0,1,.6-.6l2.6-.2c.2,0,.2-.1.2-.2l.9-2.1s0-.2.1-.2a.82.82,0,0,1,.6-.4.68.68,0,0,1,.6.4l.9,2.3c0,.1.2.2.3.3l2.2.2h.4a.58.58,0,0,1,.6.6A.35.35,0,0,1,870.6,684.2Z"/><path class="cls-20" d="M857.9,684.2a.55.55,0,0,1-.3.5l-1.8,1.5a.76.76,0,0,0-.2.5c.2.8.4,1.5.6,2.3a.52.52,0,0,1-.3.7.6.6,0,0,1-.8,0c-.7-.4-1.4-.9-2.1-1.3a.3.3,0,0,0-.4,0l-2,1.2a1.42,1.42,0,0,1-.6.2.79.79,0,0,1-.5-.8l.6-2.5c0-.1,0-.2-.1-.2h0c-.6-.5-1.2-1-1.7-1.5a1,1,0,0,1-.4-.7.65.65,0,0,1,.6-.6l2.6-.2c.2,0,.2-.1.2-.2l.9-2.1s0-.2.1-.2a.65.65,0,0,1,1.2,0l.9,2.3c0,.1.2.2.3.3l2.2.2h.4a.58.58,0,0,1,.6.6Z"/><path class="cls-20" d="M896.2,684.2a.55.55,0,0,1-.3.5l-1.8,1.5a.76.76,0,0,0-.2.5c.2.8.4,1.5.6,2.3a.52.52,0,0,1-.3.7.6.6,0,0,1-.8,0c-.7-.4-1.4-.9-2.1-1.3a.3.3,0,0,0-.4,0l-2,1.2a1.42,1.42,0,0,1-.6.2.79.79,0,0,1-.5-.8h0l.6-2.5a.37.37,0,0,0-.1-.3h0c-.6-.5-1.2-1-1.7-1.5a1,1,0,0,1-.4-.7.65.65,0,0,1,.6-.6l2.6-.2c.2,0,.2-.1.2-.2l.9-2.1s0-.2.1-.2a.65.65,0,0,1,1.2,0l.9,2.3c0,.1.2.2.3.3l2.2.2h.4A.86.86,0,0,1,896.2,684.2Z"/><path class="cls-20" d="M872.4,710.6A2.5,2.5,0,0,1,870,709l-4.1-9H849.1a8.6,8.6,0,0,1-8.6-8.6v-12a8.6,8.6,0,0,1,8.6-8.6H889a15.36,15.36,0,0,1,15.3,15.3v5.3a8.75,8.75,0,0,1-8.6,8.7H879l-4.1,9A2.82,2.82,0,0,1,872.4,710.6Zm-23.3-36a4.8,4.8,0,0,0-4.8,4.8h0v12a4.8,4.8,0,0,0,4.8,4.8H866a3.89,3.89,0,0,1,3.4,2.1l3,6.8,3-6.8a3.76,3.76,0,0,1,3.4-2.2h17a4.87,4.87,0,0,0,4.8-4.8V686a11.57,11.57,0,0,0-11.5-11.5l-40,.1Z"/><path class="cls-20" d="M915.9,667.4h-2.6v-9.7a9.13,9.13,0,0,1-3.3,2v-2.3a5.75,5.75,0,0,0,2.2-1.3,5.14,5.14,0,0,0,1.6-2.1h2.1Z"/><circle class="cls-21" cx="908.9" cy="660.3" r="18.5"/><circle class="cls-20" cx="1357.7" cy="780" r="2"/><circle class="cls-20" cx="606.4" cy="330.5" r="2"/><line class="cls-22" x1="750.4" y1="200.7" x2="750.4" y2="399"/><circle class="cls-20" cx="750.4" cy="400.5" r="2"/><path class="cls-20" d="M761.4,174.3a.55.55,0,0,1-.3.5l-1.8,1.5a.76.76,0,0,0-.2.5c.2.8.4,1.5.6,2.3a.57.57,0,0,1-.2.7.6.6,0,0,1-.8,0c-.7-.4-1.4-.9-2.1-1.3a.3.3,0,0,0-.4,0l-2,1.2a1.42,1.42,0,0,1-.6.2.79.79,0,0,1-.5-.8l.6-2.5a.37.37,0,0,0-.1-.3h0c-.6-.5-1.2-1-1.7-1.5a1,1,0,0,1-.4-.7.58.58,0,0,1,.6-.6l2.6-.2c.2,0,.2-.1.2-.2l.9-2.1s0-.2.1-.2a.65.65,0,0,1,1.2,0l.9,2.3c0,.1.2.2.3.3l2.2.2h.4a.94.94,0,0,1,.5.7Z"/><path class="cls-20" d="M748.6,174.3a.76.76,0,0,1-.2.5l-1.8,1.5a.76.76,0,0,0-.2.5c.2.8.4,1.5.6,2.3a.52.52,0,0,1-.3.7.6.6,0,0,1-.8,0c-.7-.4-1.4-.9-2.1-1.3-.1-.1-.3-.2-.4-.1h0l-2,1.2a1.42,1.42,0,0,1-.6.2.79.79,0,0,1-.5-.8c.2-.8.4-1.7.6-2.5a.37.37,0,0,0-.1-.3h0c-.6-.5-1.2-1-1.7-1.5a1,1,0,0,1-.4-.7.65.65,0,0,1,.6-.6l2.6-.2c.2,0,.2-.1.2-.2l.9-2.1s0-.2.1-.2a.82.82,0,0,1,.6-.4.68.68,0,0,1,.6.4l.9,2.3c0,.1.2.2.3.3l2.2.2h.4a.58.58,0,0,1,.6.6A.31.31,0,0,0,748.6,174.3Z"/><path class="cls-20" d="M735.9,174.3a.55.55,0,0,1-.3.5l-1.8,1.5a.76.76,0,0,0-.2.5c.2.8.4,1.5.6,2.3a.52.52,0,0,1-.3.7.6.6,0,0,1-.8,0c-.7-.4-1.4-.9-2.1-1.3a.3.3,0,0,0-.4,0l-2,1.2a1.42,1.42,0,0,1-.6.2.79.79,0,0,1-.5-.8l.6-2.5c0-.1,0-.2-.1-.2h0c-.6-.5-1.2-1-1.7-1.5a1,1,0,0,1-.4-.7.65.65,0,0,1,.6-.6l2.6-.2c.2,0,.2-.1.2-.2l.9-2.1s0-.2.1-.2a.65.65,0,0,1,1.2,0l.9,2.3c0,.1.2.2.3.3l2.2.2h.4a.58.58,0,0,1,.6.6Z"/><path class="cls-20" d="M774.1,174.3a.55.55,0,0,1-.3.5l-1.8,1.5a.76.76,0,0,0-.2.5c.2.8.4,1.5.6,2.3a.52.52,0,0,1-.3.7.6.6,0,0,1-.8,0c-.7-.4-1.4-.9-2.1-1.3a.3.3,0,0,0-.4,0l-2,1.2a1.42,1.42,0,0,1-.6.2.79.79,0,0,1-.5-.8h0l.6-2.5a.37.37,0,0,0-.1-.3h0c-.6-.5-1.2-1-1.7-1.5a1,1,0,0,1-.4-.7.65.65,0,0,1,.6-.6l2.6-.2c.2,0,.2-.1.2-.2l.9-2.1s0-.2.1-.2a.65.65,0,0,1,1.2,0l.9,2.3c0,.1.2.2.3.3l2.2.2h.4A.73.73,0,0,1,774.1,174.3Z"/><path class="cls-20" d="M750.4,200.7a2.5,2.5,0,0,1-2.4-1.6l-4.1-9H727.1a8.6,8.6,0,0,1-8.6-8.6v-12a8.6,8.6,0,0,1,8.6-8.6H767a15.36,15.36,0,0,1,15.3,15.3v5.3a8.75,8.75,0,0,1-8.6,8.7H756.9l-4.1,9A2.67,2.67,0,0,1,750.4,200.7Zm-23.3-36a4.8,4.8,0,0,0-4.8,4.8h0v12a4.8,4.8,0,0,0,4.8,4.8H744a3.89,3.89,0,0,1,3.4,2.1l3,6.8,3-6.8a3.76,3.76,0,0,1,3.4-2.2h17a4.87,4.87,0,0,0,4.8-4.8V176a11.57,11.57,0,0,0-11.5-11.5l-40,.2Z"/><circle class="cls-21" cx="786.9" cy="150.4" r="18.5"/><line class="cls-22" x1="312.4" y1="659" x2="312.4" y2="427.2"/><circle class="cls-20" cx="312.4" cy="427.7" r="2"/><polyline class="cls-22" points="1357.5 780 872.4 780 872.4 710.6"/><path class="cls-23" d="M734,753a26,26,0,1,0,26,26A26.08,26.08,0,0,0,734,753Zm0,2.3A23.65,23.65,0,1,1,710.4,779,23.58,23.58,0,0,1,734,755.34Zm-.4,10.7a1.2,1.2,0,0,0-1,.7l-5.9,13a1.29,1.29,0,0,0,1.1,1.7h4.9l-3,9.1a1.18,1.18,0,0,0,2.1,1l8.9-14.2a1.28,1.28,0,0,0-1-1.8h-4.1l5.7-7.6c.5-1-.1-1.6-.9-1.9Z"/><line class="cls-24" x1="872.4" y1="780" x2="758.2" y2="780"/><path class="cls-23" d="M451,632a26,26,0,1,0,26,26A26.08,26.08,0,0,0,451,632Zm0,2.3A23.65,23.65,0,1,1,427.4,658,23.58,23.58,0,0,1,451,634.34Zm-.4,10.7a1.2,1.2,0,0,0-1,.7l-5.9,13a1.29,1.29,0,0,0,1.1,1.7h4.9l-3,9.1a1.18,1.18,0,0,0,2.1,1l8.9-14.2a1.28,1.28,0,0,0-1-1.8h-4.1l5.7-7.6c.5-1-.1-1.6-.9-1.9Z"/><line class="cls-22" x1="426.4" y1="659" x2="312.2" y2="659"/><path class="cls-20" d="M785.81,150.24a2.94,2.94,0,0,1-1.93-2.82,3.29,3.29,0,0,1,1.07-2.51,5.09,5.09,0,0,1,6,0,3.29,3.29,0,0,1,1.07,2.51,3,3,0,0,1-.49,1.69,3.13,3.13,0,0,1-1.39,1.13,3.58,3.58,0,0,1,1.72,1.32,3.46,3.46,0,0,1,.59,2,4.11,4.11,0,0,1-1.2,3.06,4.37,4.37,0,0,1-3.19,1.17,4.82,4.82,0,0,1-3.09-1,4.09,4.09,0,0,1-.91-5.18A3.46,3.46,0,0,1,785.81,150.24Zm.3,3.2a2.41,2.41,0,0,0,.55,1.68,1.8,1.8,0,0,0,1.38.6,1.77,1.77,0,0,0,1.34-.58,2.43,2.43,0,0,0,.52-1.68,2.19,2.19,0,0,0-.53-1.53,1.78,1.78,0,0,0-1.37-.58,1.63,1.63,0,0,0-1.42.66A2.42,2.42,0,0,0,786.11,153.44Zm.24-5.83a1.67,1.67,0,0,0,.44,1.22,1.64,1.64,0,0,0,2.81-1.23,1.58,1.58,0,0,0-.44-1.17A1.56,1.56,0,0,0,788,146a1.53,1.53,0,0,0-1.64,1.62Z"/></svg>