<?xml version="1.0" encoding="utf-8"?>
<!-- Generator: Adobe Illustrator 22.1.0, SVG Export Plug-In . SVG Version: 6.00 Build 0)  -->
<svg version="1.1" id="Layer_1" xmlns="http://www.w3.org/2000/svg" xmlns:xlink="http://www.w3.org/1999/xlink" x="0px" y="0px"
	 viewBox="0 0 600 600" style="enable-background:new 0 0 600 600;" xml:space="preserve">
<style type="text/css">
	.st0{opacity:0.8;fill:#FAFAFA;}
	.st1{fill:none;stroke:#59A14F;stroke-width:3;stroke-linejoin:round;stroke-miterlimit:10;}
	.st2{fill:none;stroke:#000000;stroke-width:0.25;stroke-linejoin:round;stroke-miterlimit:10;}
	.st3{fill:none;stroke:#76B7B2;stroke-width:3;stroke-linejoin:round;stroke-miterlimit:10;}
	.st4{fill:none;stroke:#E15759;stroke-width:3;stroke-linejoin:round;stroke-miterlimit:10;}
</style>
<path class="st0" d="M504,474H96c-5.5,0-10-4.5-10-10V137c0-5.5,4.5-10,10-10h408c5.5,0,10,4.5,10,10v327
	C514,469.5,509.5,474,504,474z"/>
<path class="st1" d="M179.3,244.3l8.8,1.9c1.7,0.4,3.4-0.3,4.6-1.9l3.9-4.9c1.2-1.5,2.9-2.2,4.6-1.9l8.2,1.7
	c0.4,0.1,0.9,0.1,1.3,0.1l10.3-1.1c0.4,0,0.7-0.1,1.1-0.3l8.8-3.4c0.2-0.1,0.4-0.1,0.6-0.2l9.5-2.2c0.5-0.1,1-0.1,1.5-0.1l8.6,1.1
	c0.2,0,0.3,0,0.5,0h8.6c0.5,0,0.9,0.1,1.4,0.2l8.7,3c0.8,0.3,1.5,0.3,2.3,0.1l8.9-2.1c0.3-0.1,0.6-0.1,0.9-0.1h10.7
	c0.2,0,0.3,0,0.5,0l8.7-1.1c0.4-0.1,0.9-0.2,1.3-0.4l8.6-4c0.8-0.4,1.8-0.5,2.6-0.3l7,1.5c1.9,0.4,3.9-0.6,5-2.6l4.6-7.8
	c1.3-2.2,3.5-3.2,5.6-2.4l6.7,2.3c0.3,0.1,0.6,0.2,0.9,0.2l7.9,0.9c1.4,0.2,2.7-0.4,3.8-1.5l6.3-6.5c1.6-1.7,3.8-2,5.6-0.8l6,3.8
	c0.3,0.2,0.7,0.5,1,0.8l6.3,6.5c2.1,2.2,5.3,2,7.2-0.7l5.8-8.1c0.9-1.2,2.1-2,3.3-2.1l5.4-0.7c1.4-0.2,2.8,0.4,3.8,1.5l7,7.3
	c1.2,1.2,2.7,1.7,4.2,1.4l7.9-1.8c0.1,0,0.3-0.1,0.4-0.1l9-3.1c0.9-0.3,1.7-0.9,2.3-1.7l6.4-8.2c1.8-2.3,4.7-2.6,6.8-0.7l3,2.7
	c2.2,2.1,5.3,1.6,7.1-1.1l5-7.7c0.9-1.4,2.2-2.2,3.6-2.4l9.3-1"/>
<line class="st2" x1="178" y1="436.3" x2="479.8" y2="436.3"/>
<line class="st2" x1="178" y1="416.5" x2="479.8" y2="416.5"/>
<line class="st2" x1="178" y1="396.7" x2="479.8" y2="396.7"/>
<line class="st2" x1="178" y1="376.8" x2="479.8" y2="376.8"/>
<line class="st2" x1="178" y1="357" x2="479.8" y2="357"/>
<path class="st3" d="M178.9,363.9l7.1-1.5c2.5-0.5,5,1.3,5.8,4.4l7.6,28.1c0.3,1.3,1,2.4,1.9,3.2l6.9,6.4c1.4,1.3,3.3,1.6,5,0.8
	l6.4-3.2c1.2-0.6,2.2-1.8,2.8-3.4l6.9-18.5c0.6-1.5,1.5-2.7,2.7-3.3l6.8-3.6c1.8-0.9,3.8-0.6,5.3,0.9l6.6,6.8
	c0.4,0.4,0.7,0.8,0.9,1.3l6.5,11.3c1.9,3.3,5.6,3.7,7.9,0.8l2.2-2.8c2.2-2.8,5.7-2.6,7.7,0.4l2.4,3.7c2.2,3.4,6.3,3.1,8.3-0.5
	l3.7-6.8c1.6-3.1,4.9-3.8,7.3-1.7l4.9,4.4c0.2,0.2,0.4,0.4,0.7,0.5l6.6,4.2c1.6,1,3.6,0.9,5.1-0.3l2.6-2.1c2.8-2.3,6.5-0.7,7.7,3.2
	l4.9,16.2c1.2,4,5.1,5.5,7.8,3.1l6.6-5.8c0.3-0.2,0.5-0.4,0.8-0.6l7.8-4.5c1.4-0.8,3.1-0.8,4.5,0.1l4.3,2.8c0.7,0.5,1.5,0.7,2.3,0.7
	h9.5c0.5,0,0.9,0.1,1.4,0.2l9,3.1c0.6,0.2,1.2,0.3,1.8,0.2l10.2-1.1c0.2,0,0.5-0.1,0.7-0.1l6.9-2c0.9-0.3,1.7-0.8,2.4-1.6l10-11.7
	c0.3-0.3,0.6-0.7,0.8-1.1l5.8-10.8c2.1-3.9,6.6-3.8,8.6,0.1l0,0c2.3,4.4,7.5,3.8,9.1-1l3-8.8c1.6-4.7,6.6-5.4,9-1.3l3.6,6.3
	c1,1.7,2.5,2.7,4.2,2.7h5c1.2,0,2.4,0.5,3.3,1.5l10,10.7"/>
<line class="st2" x1="178" y1="271.2" x2="479.8" y2="271.2"/>
<line class="st2" x1="178" y1="251.3" x2="479.8" y2="251.3"/>
<line class="st2" x1="178" y1="231.5" x2="479.8" y2="231.5"/>
<line class="st2" x1="178" y1="211.7" x2="479.8" y2="211.7"/>
<line class="st2" x1="178" y1="191.8" x2="479.8" y2="191.8"/>
<path class="st4" d="M178,210.3l13.3,5.3c1.3,0.5,2.7,0.4,3.9-0.4l3.3-2.1c2.5-1.6,5.4-0.4,6.8,2.6l5.9,12.9c0.7,1.6,2,2.7,3.4,3.1
	l7.4,2.1c0.9,0.2,1.8,0.2,2.6-0.1l7.5-2.9c0.5-0.2,1-0.3,1.5-0.3h8.7c1.3,0,2.6,0.6,3.5,1.7l7.5,8.7c1,1.1,2.2,1.7,3.5,1.7h6.8
	c0.5,0,1,0.1,1.5,0.3l5.8,2.2c1.8,0.7,3.8,0.1,5.2-1.7l3.5-4.5c2.4-3.1,6.5-2.4,8.2,1.4l4.4,9.7c1.5,3.3,4.8,4.3,7.3,2.3l5.6-4.6
	c0.2-0.2,0.4-0.3,0.6-0.4l9.4-5.4c0.5-0.3,1.1-0.5,1.7-0.6l9.1-1.1c0.3,0,0.7-0.1,1-0.3l8.4-3.2c0.5-0.2,0.9-0.4,1.3-0.8l9.2-7.5
	c0.4-0.4,0.9-0.6,1.4-0.8l7.6-2.6c1.4-0.5,2.8-0.2,4.1,0.7l6.4,4.9c0.8,0.6,1.7,1,2.7,1h8.9c0.7,0,1.5,0.2,2.2,0.6l7.3,4.3
	c1.4,0.8,2.9,0.8,4.3,0l8.4-4.9l5.6-2.9c2.3-1.2,4.9-0.1,6.3,2.5l4.2,8c1.7,3.2,5.1,3.9,7.5,1.6l4-3.9c1.8-1.7,4.3-1.8,6.1-0.1
	l1.9,1.7c2.5,2.2,5.9,1.3,7.5-2l3.9-8c1.9-3.9,6.1-4.3,8.4-0.8l0.6,0.9c2.5,3.7,7.1,2.9,8.7-1.5l3.4-9.2c1-2.7,3.3-4.2,5.7-3.7
	l6.6,1.5"/>
<g>
	<g>
		<path d="M350.5,162.3h-1.8l1.8-8.6h3.8c0.7,0,1.2,0.1,1.5,0.2s0.7,0.4,0.9,0.7s0.3,0.8,0.3,1.3c0,0.7-0.2,1.3-0.7,1.8
			s-1.1,0.8-2,0.9c0.2,0.2,0.4,0.5,0.6,0.8c0.4,0.7,0.8,1.6,1.3,2.8h-1.9c-0.2-0.5-0.5-1.2-0.9-2.3c-0.2-0.6-0.5-0.9-0.8-1.1
			c-0.2-0.1-0.5-0.2-0.9-0.2h-0.7L350.5,162.3z M351.5,157.5h0.9c0.9,0,1.6-0.1,1.9-0.2s0.6-0.3,0.7-0.5s0.3-0.5,0.3-0.8
			c0-0.3-0.1-0.5-0.4-0.7c-0.2-0.1-0.5-0.1-1-0.1H352L351.5,157.5z"/>
		<path d="M357.9,159c0-0.5,0.1-1,0.2-1.6c0.2-0.8,0.5-1.4,0.9-2s0.9-1,1.5-1.3s1.3-0.5,2.1-0.5c1.1,0,1.9,0.3,2.6,1s1,1.5,1,2.6
			c0,0.9-0.2,1.8-0.6,2.6s-1,1.5-1.7,2s-1.6,0.7-2.5,0.7c-0.8,0-1.5-0.2-2-0.5s-0.9-0.8-1.2-1.4S357.9,159.5,357.9,159z
			 M359.7,158.9c0,0.6,0.2,1.1,0.5,1.5s0.8,0.6,1.4,0.6c0.5,0,0.9-0.2,1.4-0.5s0.8-0.8,1.1-1.4s0.4-1.3,0.4-1.9
			c0-0.7-0.2-1.2-0.5-1.6s-0.8-0.6-1.4-0.6c-0.9,0-1.6,0.4-2.1,1.2S359.7,158,359.7,158.9z"/>
		<path d="M367.3,159c0-0.5,0.1-1,0.2-1.6c0.2-0.8,0.5-1.4,0.9-2s0.9-1,1.5-1.3s1.3-0.5,2.1-0.5c1.1,0,1.9,0.3,2.6,1s1,1.5,1,2.6
			c0,0.9-0.2,1.8-0.6,2.6s-1,1.5-1.7,2s-1.6,0.7-2.5,0.7c-0.8,0-1.5-0.2-2-0.5s-0.9-0.8-1.2-1.4S367.3,159.5,367.3,159z M369,158.9
			c0,0.6,0.2,1.1,0.5,1.5s0.8,0.6,1.4,0.6c0.5,0,0.9-0.2,1.4-0.5s0.8-0.8,1.1-1.4s0.4-1.3,0.4-1.9c0-0.7-0.2-1.2-0.5-1.6
			s-0.8-0.6-1.4-0.6c-0.9,0-1.6,0.4-2.1,1.2S369,158,369,158.9z"/>
		<path d="M381,162.3h-1.7l-0.3-7.2l-1.4,7.2H376l1.8-8.6h2.5l0.3,6l2.9-6h2.5l-1.8,8.6h-1.6l1.7-7.1L381,162.3z"/>
		<path d="M393.1,162.3h-1.8l1.5-7.2h-2.5l0.3-1.4h6.8l-0.3,1.4h-2.5L393.1,162.3z"/>
		<path d="M396.7,162.3l1.8-8.6h6.4l-0.3,1.4H400l-0.4,2h4.4l-0.3,1.4h-4.4l-0.5,2.3h5l-0.3,1.4H396.7z"/>
		<path d="M409.7,162.3H408l-0.3-7.2l-1.4,7.2h-1.6l1.8-8.6h2.5l0.3,6l2.9-6h2.5l-1.8,8.6h-1.6l1.7-7.1L409.7,162.3z"/>
		<path d="M416.5,162.3h-1.8l1.8-8.6h3.5c0.6,0,1.1,0.1,1.5,0.2s0.6,0.4,0.9,0.7s0.3,0.7,0.3,1.2c0,0.4-0.1,0.9-0.3,1.3
			s-0.4,0.7-0.6,1s-0.5,0.4-0.8,0.6s-0.7,0.2-1.1,0.3c-0.3,0-0.8,0.1-1.6,0.1h-1.1L416.5,162.3z M417.5,157.6h0.5
			c0.9,0,1.6-0.1,1.9-0.2s0.6-0.3,0.7-0.6s0.3-0.5,0.3-0.8c0-0.2,0-0.4-0.1-0.5s-0.2-0.2-0.4-0.3s-0.5-0.1-1.1-0.1H418L417.5,157.6z
			"/>
		<path d="M422.7,162.3l1.8-8.6h6.4l-0.3,1.4H426l-0.4,2h4.4l-0.3,1.4h-4.4l-0.5,2.3h5l-0.3,1.4H422.7z"/>
		<path d="M432.5,162.3h-1.8l1.8-8.6h3.8c0.7,0,1.2,0.1,1.5,0.2s0.7,0.4,0.9,0.7s0.3,0.8,0.3,1.3c0,0.7-0.2,1.3-0.7,1.8
			s-1.1,0.8-2,0.9c0.2,0.2,0.4,0.5,0.6,0.8c0.4,0.7,0.8,1.6,1.3,2.8h-1.9c-0.2-0.5-0.5-1.2-0.9-2.3c-0.2-0.6-0.5-0.9-0.8-1.1
			c-0.2-0.1-0.5-0.2-0.9-0.2h-0.7L432.5,162.3z M433.5,157.5h0.9c0.9,0,1.6-0.1,1.9-0.2s0.6-0.3,0.7-0.5s0.3-0.5,0.3-0.8
			c0-0.3-0.1-0.5-0.4-0.7c-0.2-0.1-0.5-0.1-1-0.1H434L433.5,157.5z"/>
		<path d="M445,160.4h-3.4l-1,1.9h-1.8l4.9-8.6h2l1.4,8.6h-1.7L445,160.4z M444.8,159l-0.5-3.5l-2.1,3.5H444.8z"/>
		<path d="M450.9,162.3h-1.8l1.5-7.2h-2.5l0.3-1.4h6.8l-0.3,1.4h-2.5L450.9,162.3z"/>
		<path d="M456.3,153.7h1.8l-1,4.7l-0.2,1.1c0,0.1,0,0.2,0,0.3c0,0.3,0.1,0.6,0.4,0.8s0.6,0.3,1.1,0.3c0.4,0,0.8-0.1,1.1-0.2
			s0.5-0.4,0.6-0.7s0.3-0.9,0.5-1.6l1-4.7h1.8l-1,4.7c-0.2,1-0.4,1.7-0.7,2.3s-0.7,0.9-1.2,1.3s-1.2,0.5-2.1,0.5
			c-1,0-1.8-0.2-2.3-0.7s-0.8-1.1-0.8-1.9c0-0.2,0-0.3,0-0.5c0-0.1,0.1-0.5,0.2-1.1L456.3,153.7z"/>
		<path d="M465,162.3h-1.8l1.8-8.6h3.8c0.7,0,1.2,0.1,1.5,0.2s0.7,0.4,0.9,0.7s0.3,0.8,0.3,1.3c0,0.7-0.2,1.3-0.7,1.8
			s-1.1,0.8-2,0.9c0.2,0.2,0.4,0.5,0.6,0.8c0.4,0.7,0.8,1.6,1.3,2.8H469c-0.2-0.5-0.5-1.2-0.9-2.3c-0.2-0.6-0.5-0.9-0.8-1.1
			c-0.2-0.1-0.5-0.2-0.9-0.2h-0.7L465,162.3z M466,157.5h0.9c0.9,0,1.6-0.1,1.9-0.2s0.6-0.3,0.7-0.5s0.3-0.5,0.3-0.8
			c0-0.3-0.1-0.5-0.4-0.7c-0.2-0.1-0.5-0.1-1-0.1h-1.9L466,157.5z"/>
		<path d="M471.8,162.3l1.8-8.6h6.4l-0.3,1.4h-4.6l-0.4,2h4.4l-0.3,1.4h-4.4l-0.5,2.3h5l-0.3,1.4H471.8z"/>
	</g>
</g>
<g>
	<g>
		<path d="M336,329.3l1.8-8.6h6.4l-0.3,1.4h-4.6l-0.4,2h4.4l-0.3,1.4h-4.4l-0.5,2.3h5l-0.3,1.4H336z"/>
		<path d="M350.9,329.3h-1.6l-2.3-5.8l-1.2,5.8h-1.6l1.8-8.6h1.7l2.3,5.7l1.2-5.7h1.6L350.9,329.3z"/>
		<path d="M352.7,329.3l1.8-8.6h6.4l-0.3,1.4H356l-0.4,2h4.4l-0.3,1.4h-4.4l-0.5,2.3h5l-0.3,1.4H352.7z"/>
		<path d="M362.5,329.3h-1.8l1.8-8.6h3.8c0.7,0,1.2,0.1,1.5,0.2s0.7,0.4,0.9,0.7s0.3,0.8,0.3,1.3c0,0.7-0.2,1.3-0.7,1.8
			s-1.1,0.8-2,0.9c0.2,0.2,0.4,0.5,0.6,0.8c0.4,0.7,0.8,1.6,1.3,2.8h-1.9c-0.2-0.5-0.5-1.2-0.9-2.3c-0.2-0.6-0.5-0.9-0.8-1.1
			c-0.2-0.1-0.5-0.2-0.9-0.2h-0.7L362.5,329.3z M363.5,324.5h0.9c0.9,0,1.6-0.1,1.9-0.2s0.6-0.3,0.7-0.5s0.3-0.5,0.3-0.8
			c0-0.3-0.1-0.5-0.4-0.7c-0.2-0.1-0.5-0.1-1-0.1H364L363.5,324.5z"/>
		<path d="M374.2,324.7h3.8l-0.8,3.7c-0.5,0.3-1,0.5-1.7,0.7s-1.3,0.3-2,0.3c-1.1,0-1.9-0.2-2.4-0.7c-0.8-0.7-1.2-1.6-1.2-2.9
			c0-0.8,0.2-1.6,0.5-2.4c0.4-0.9,1-1.6,1.7-2.1s1.6-0.8,2.6-0.8s1.8,0.2,2.4,0.7s1,1.1,1.2,2l-1.6,0.2c-0.1-0.5-0.4-0.8-0.7-1.1
			s-0.7-0.4-1.2-0.4c-0.6,0-1.1,0.1-1.6,0.4s-0.8,0.8-1.1,1.4s-0.4,1.3-0.4,2c0,0.7,0.2,1.3,0.5,1.6s0.8,0.5,1.4,0.5
			c0.4,0,0.8-0.1,1.2-0.2s0.7-0.2,1-0.4l0.3-1.3h-2.2L374.2,324.7z"/>
		<path d="M383,329.3h-1.8l0.7-3.3l-2.4-5.2h1.9l1.1,2.4c0.3,0.6,0.4,1,0.5,1.3c0.1-0.3,0.3-0.5,0.5-0.8l0.8-1.1l1.2-1.7h2.1
			l-3.9,5.4L383,329.3z"/>
		<path d="M396,326.2l1.8,0.3c-0.3,1-0.9,1.7-1.6,2.2s-1.5,0.8-2.4,0.8c-1.1,0-1.9-0.3-2.5-0.9s-0.9-1.6-0.9-2.8
			c0-1,0.2-1.9,0.6-2.7s0.9-1.4,1.6-1.9s1.5-0.6,2.3-0.6c0.9,0,1.7,0.2,2.3,0.7s0.9,1.2,1,2l-1.7,0.2c-0.1-0.5-0.3-0.9-0.5-1.1
			s-0.6-0.3-1.1-0.3c-0.5,0-0.9,0.1-1.4,0.4s-0.8,0.8-1,1.4s-0.4,1.3-0.4,1.9c0,0.7,0.2,1.2,0.5,1.6s0.7,0.6,1.2,0.6
			c0.5,0,0.9-0.1,1.3-0.4S395.9,326.8,396,326.2z"/>
		<path d="M399,326c0-0.5,0.1-1,0.2-1.6c0.2-0.8,0.5-1.4,0.9-2s0.9-1,1.5-1.3s1.3-0.5,2.1-0.5c1.1,0,1.9,0.3,2.6,1s1,1.5,1,2.6
			c0,0.9-0.2,1.8-0.6,2.6s-1,1.5-1.7,2s-1.6,0.7-2.5,0.7c-0.8,0-1.5-0.2-2-0.5s-0.9-0.8-1.2-1.4S399,326.5,399,326z M400.8,325.9
			c0,0.6,0.2,1.1,0.5,1.5s0.8,0.6,1.4,0.6c0.5,0,0.9-0.2,1.4-0.5s0.8-0.8,1.1-1.4s0.4-1.3,0.4-1.9c0-0.7-0.2-1.2-0.5-1.6
			s-0.8-0.6-1.4-0.6c-0.9,0-1.6,0.4-2.1,1.2S400.8,325,400.8,325.9z"/>
		<path d="M414.7,329.3H413l-2.3-5.8l-1.2,5.8h-1.6l1.8-8.6h1.7l2.3,5.7l1.2-5.7h1.6L414.7,329.3z"/>
		<path d="M416.8,326.5l1.7-0.1c0,0.5,0.1,0.9,0.3,1.1c0.3,0.3,0.7,0.5,1.4,0.5c0.6,0,1-0.1,1.3-0.3s0.4-0.5,0.4-0.8
			c0-0.3-0.1-0.5-0.3-0.6c-0.1-0.1-0.6-0.3-1.2-0.6s-1.2-0.5-1.5-0.7s-0.5-0.4-0.7-0.8s-0.3-0.7-0.3-1.1c0-0.7,0.3-1.3,0.8-1.8
			s1.3-0.7,2.3-0.7c1,0,1.8,0.2,2.3,0.7s0.9,1.1,0.9,1.9l-1.7,0.1c0-0.4-0.2-0.7-0.4-0.9s-0.6-0.3-1.1-0.3c-0.5,0-0.8,0.1-1,0.3
			s-0.3,0.4-0.3,0.7c0,0.2,0.1,0.4,0.3,0.6c0.2,0.2,0.6,0.4,1.3,0.7c1,0.4,1.6,0.8,1.9,1c0.4,0.4,0.6,0.9,0.6,1.5
			c0,0.8-0.3,1.4-0.9,1.9s-1.4,0.8-2.5,0.8c-0.7,0-1.4-0.1-1.9-0.4s-0.9-0.6-1.1-1S416.7,327.1,416.8,326.5z"/>
		<path d="M426.3,320.7h1.8l-1,4.7l-0.2,1.1c0,0.1,0,0.2,0,0.3c0,0.3,0.1,0.6,0.4,0.8s0.6,0.3,1.1,0.3c0.4,0,0.8-0.1,1.1-0.2
			s0.5-0.4,0.6-0.7s0.3-0.9,0.5-1.6l1-4.7h1.8l-1,4.7c-0.2,1-0.4,1.7-0.7,2.3s-0.7,0.9-1.2,1.3s-1.2,0.5-2.1,0.5
			c-1,0-1.8-0.2-2.3-0.7s-0.8-1.1-0.8-1.9c0-0.2,0-0.3,0-0.5c0-0.1,0.1-0.5,0.2-1.1L426.3,320.7z"/>
		<path d="M438.1,329.3h-1.7l-0.3-7.2l-1.4,7.2h-1.6l1.8-8.6h2.5l0.3,6l2.9-6h2.5l-1.8,8.6h-1.6l1.7-7.1L438.1,329.3z"/>
		<path d="M444.9,329.3h-1.8l1.8-8.6h3.5c0.6,0,1.1,0.1,1.5,0.2s0.6,0.4,0.9,0.7s0.3,0.7,0.3,1.2c0,0.4-0.1,0.9-0.3,1.3
			s-0.4,0.7-0.6,1s-0.5,0.4-0.8,0.6s-0.7,0.2-1.1,0.3c-0.3,0-0.8,0.1-1.6,0.1h-1.1L444.9,329.3z M445.9,324.6h0.5
			c0.9,0,1.6-0.1,1.9-0.2s0.6-0.3,0.7-0.6s0.3-0.5,0.3-0.8c0-0.2,0-0.4-0.1-0.5s-0.2-0.2-0.4-0.3s-0.5-0.1-1.1-0.1h-1.3L445.9,324.6
			z"/>
		<path d="M454.9,329.3h-1.8l1.5-7.2h-2.5l0.3-1.4h6.8l-0.3,1.4h-2.5L454.9,329.3z"/>
		<path d="M458.4,329.3l1.8-8.6h1.8l-1.8,8.6H458.4z"/>
		<path d="M462.4,326c0-0.5,0.1-1,0.2-1.6c0.2-0.8,0.5-1.4,0.9-2s0.9-1,1.5-1.3s1.3-0.5,2.1-0.5c1.1,0,1.9,0.3,2.6,1s1,1.5,1,2.6
			c0,0.9-0.2,1.8-0.6,2.6s-1,1.5-1.7,2s-1.6,0.7-2.5,0.7c-0.8,0-1.5-0.2-2-0.5s-0.9-0.8-1.2-1.4S462.4,326.5,462.4,326z
			 M464.1,325.9c0,0.6,0.2,1.1,0.5,1.5s0.8,0.6,1.4,0.6c0.5,0,0.9-0.2,1.4-0.5s0.8-0.8,1.1-1.4s0.4-1.3,0.4-1.9
			c0-0.7-0.2-1.2-0.5-1.6s-0.8-0.6-1.4-0.6c-0.9,0-1.6,0.4-2.1,1.2S464.1,325,464.1,325.9z"/>
		<path d="M478,329.3h-1.6l-2.3-5.8l-1.2,5.8h-1.6l1.8-8.6h1.7l2.3,5.7l1.2-5.7h1.6L478,329.3z"/>
	</g>
</g>
<g>
	<path d="M143.4,196.7c0.1-0.5,0.2-0.9,0.4-1.2c0.2-0.3,0.4-0.6,0.7-0.9c0.3-0.3,0.9-0.8,1.7-1.4c0.5-0.4,0.9-0.7,1-0.9
		c0.3-0.3,0.5-0.6,0.6-0.8c0.1-0.2,0.1-0.4,0.1-0.6c0-0.4-0.1-0.7-0.4-0.9c-0.3-0.3-0.6-0.4-0.9-0.4c-0.4,0-0.7,0.1-1,0.4
		s-0.5,0.7-0.6,1.2l-1-0.1c0.1-0.7,0.4-1.2,0.8-1.7c0.4-0.4,1-0.6,1.7-0.6c0.4,0,0.9,0.1,1.2,0.3s0.6,0.4,0.8,0.8s0.3,0.7,0.3,1
		c0,0.5-0.2,1-0.6,1.5c-0.2,0.3-0.9,0.9-2,1.8c-0.5,0.4-0.8,0.7-1.1,0.9s-0.4,0.5-0.5,0.7h3.5l-0.2,0.9H143.4z"/>
	<path d="M149.6,194.4l1-0.1c0,0.1,0,0.2,0,0.3c0,0.2,0.1,0.5,0.2,0.7c0.1,0.2,0.3,0.4,0.5,0.6s0.4,0.2,0.7,0.2
		c0.3,0,0.6-0.1,0.9-0.3c0.3-0.2,0.6-0.5,0.8-0.9s0.3-0.8,0.3-1.2c0-0.4-0.1-0.8-0.4-1.1c-0.3-0.3-0.6-0.4-1-0.4
		c-0.3,0-0.6,0.1-0.8,0.2c-0.3,0.1-0.5,0.3-0.7,0.6l-0.8-0.1l1.2-4h3.8l-0.2,0.9h-3l-0.6,2c0.2-0.2,0.5-0.3,0.7-0.4
		c0.2-0.1,0.5-0.1,0.7-0.1c0.6,0,1.1,0.2,1.5,0.6s0.6,0.9,0.6,1.6c0,0.6-0.1,1.2-0.4,1.7c-0.3,0.5-0.6,0.9-1.1,1.2
		c-0.5,0.3-1,0.4-1.5,0.4c-0.5,0-0.8-0.1-1.2-0.3s-0.6-0.5-0.8-0.8c-0.2-0.4-0.3-0.7-0.3-1.1C149.6,194.5,149.6,194.5,149.6,194.4z"
		/>
	<path d="M158.4,191.7c0-0.6,0.2-1.2,0.6-1.6c0.3-0.4,0.7-0.5,1.2-0.5c0.4,0,0.7,0.1,1,0.4c0.2,0.3,0.4,0.6,0.4,1
		c0,0.4-0.1,0.7-0.2,1.1c-0.2,0.3-0.4,0.6-0.7,0.8c-0.3,0.2-0.6,0.3-0.9,0.3c-0.3,0-0.5-0.1-0.7-0.2s-0.4-0.3-0.5-0.5
		C158.4,192.2,158.4,192,158.4,191.7z M158.9,191.7c0,0.3,0.1,0.6,0.2,0.7c0.2,0.2,0.3,0.2,0.6,0.2c0.1,0,0.2,0,0.4-0.1
		c0.1,0,0.2-0.1,0.3-0.2c0.1-0.1,0.2-0.2,0.3-0.3c0.1-0.1,0.1-0.3,0.2-0.4c0.1-0.2,0.1-0.4,0.1-0.6c0-0.3-0.1-0.5-0.2-0.7
		s-0.3-0.2-0.6-0.2c-0.2,0-0.3,0-0.5,0.1c-0.1,0.1-0.3,0.2-0.4,0.4c-0.1,0.2-0.2,0.4-0.3,0.6C159,191.3,158.9,191.5,158.9,191.7z"/>
	<path d="M168.3,193.9l1,0.1c-0.3,0.9-0.8,1.6-1.4,2.1c-0.6,0.5-1.3,0.7-2.1,0.7c-1,0-1.7-0.3-2.3-0.9s-0.8-1.4-0.8-2.5
		c0-1.4,0.4-2.6,1.3-3.5c0.8-0.8,1.7-1.2,2.8-1.2c0.8,0,1.5,0.2,2,0.7s0.8,1,0.9,1.8l-1,0.1c-0.1-0.6-0.3-1-0.6-1.3
		s-0.7-0.4-1.3-0.4c-1,0-1.7,0.4-2.3,1.3c-0.5,0.7-0.8,1.6-0.8,2.6c0,0.8,0.2,1.4,0.6,1.9s0.9,0.6,1.6,0.6c0.5,0,1-0.2,1.5-0.5
		S168.1,194.5,168.3,193.9z"/>
</g>
<g>
	<path d="M145.4,274.7l1.2-5.9c-0.5,0.4-1.3,0.8-2.3,1l0.2-0.9c0.5-0.2,1-0.4,1.4-0.8c0.5-0.3,0.8-0.6,1.1-0.8
		c0.1-0.1,0.3-0.3,0.4-0.5h0.6l-1.6,7.9H145.4z"/>
	<path d="M151.4,270.3c-0.3-0.2-0.5-0.4-0.7-0.6c-0.1-0.3-0.2-0.5-0.2-0.8c0-0.5,0.2-0.9,0.5-1.3c0.5-0.5,1.1-0.8,1.9-0.8
		c0.7,0,1.2,0.2,1.6,0.6c0.4,0.4,0.6,0.8,0.6,1.4c0,0.4-0.1,0.7-0.3,1s-0.6,0.6-1,0.7c0.3,0.2,0.5,0.4,0.7,0.6
		c0.2,0.3,0.3,0.6,0.3,1c0,0.7-0.2,1.3-0.7,1.9c-0.5,0.6-1.2,0.8-2,0.8c-0.7,0-1.2-0.2-1.6-0.6s-0.6-0.9-0.6-1.5
		c0-0.6,0.1-1.1,0.4-1.5C150.4,270.8,150.9,270.5,151.4,270.3z M150.7,272.7c0,0.2,0.1,0.4,0.2,0.6c0.1,0.2,0.3,0.4,0.5,0.5
		s0.5,0.2,0.7,0.2c0.5,0,1-0.2,1.3-0.7c0.3-0.4,0.4-0.8,0.4-1.3c0-0.4-0.1-0.7-0.4-0.9c-0.2-0.2-0.6-0.3-0.9-0.3
		c-0.5,0-0.9,0.2-1.2,0.5C150.8,271.7,150.7,272.2,150.7,272.7z M151.4,268.9c0,0.3,0.1,0.6,0.3,0.8s0.5,0.3,0.9,0.3
		c0.4,0,0.8-0.1,1.1-0.4s0.4-0.6,0.4-1c0-0.3-0.1-0.6-0.3-0.8c-0.2-0.2-0.5-0.3-0.9-0.3c-0.3,0-0.5,0.1-0.8,0.2s-0.4,0.3-0.5,0.5
		S151.4,268.7,151.4,268.9z"/>
	<path d="M158.4,269.7c0-0.6,0.2-1.2,0.6-1.6c0.3-0.4,0.7-0.5,1.2-0.5c0.4,0,0.7,0.1,1,0.4c0.2,0.3,0.4,0.6,0.4,1
		c0,0.4-0.1,0.7-0.2,1.1c-0.2,0.3-0.4,0.6-0.7,0.8c-0.3,0.2-0.6,0.3-0.9,0.3c-0.3,0-0.5-0.1-0.7-0.2s-0.4-0.3-0.5-0.5
		C158.4,270.2,158.4,270,158.4,269.7z M158.9,269.7c0,0.3,0.1,0.6,0.2,0.7c0.2,0.2,0.3,0.2,0.6,0.2c0.1,0,0.2,0,0.4-0.1
		c0.1,0,0.2-0.1,0.3-0.2c0.1-0.1,0.2-0.2,0.3-0.3c0.1-0.1,0.1-0.3,0.2-0.4c0.1-0.2,0.1-0.4,0.1-0.6c0-0.3-0.1-0.5-0.2-0.7
		s-0.3-0.2-0.6-0.2c-0.2,0-0.3,0-0.5,0.1c-0.1,0.1-0.3,0.2-0.4,0.4c-0.1,0.2-0.2,0.4-0.3,0.6C159,269.3,158.9,269.5,158.9,269.7z"/>
	<path d="M168.3,271.9l1,0.1c-0.3,0.9-0.8,1.6-1.4,2.1c-0.6,0.5-1.3,0.7-2.1,0.7c-1,0-1.7-0.3-2.3-0.9s-0.8-1.4-0.8-2.5
		c0-1.4,0.4-2.6,1.3-3.5c0.8-0.8,1.7-1.2,2.8-1.2c0.8,0,1.5,0.2,2,0.7s0.8,1,0.9,1.8l-1,0.1c-0.1-0.6-0.3-1-0.6-1.3
		s-0.7-0.4-1.3-0.4c-1,0-1.7,0.4-2.3,1.3c-0.5,0.7-0.8,1.6-0.8,2.6c0,0.8,0.2,1.4,0.6,1.9s0.9,0.6,1.6,0.6c0.5,0,1-0.2,1.5-0.5
		S168.1,272.5,168.3,271.9z"/>
</g>
<g>
	<path d="M129.3,361.7l1.2-5.9c-0.5,0.4-1.3,0.8-2.3,1l0.2-0.9c0.5-0.2,1-0.4,1.4-0.8c0.5-0.3,0.8-0.6,1.1-0.8
		c0.1-0.1,0.3-0.3,0.4-0.5h0.6l-1.6,7.9H129.3z"/>
	<path d="M133.4,361.7l0.2-1.1h1.1l-0.2,1.1H133.4z"/>
	<path d="M138.3,357.3c-0.3-0.2-0.5-0.4-0.7-0.6c-0.1-0.3-0.2-0.5-0.2-0.8c0-0.5,0.2-0.9,0.5-1.3c0.5-0.5,1.1-0.8,1.9-0.8
		c0.7,0,1.2,0.2,1.6,0.6c0.4,0.4,0.6,0.8,0.6,1.4c0,0.4-0.1,0.7-0.3,1s-0.6,0.6-1,0.7c0.3,0.2,0.5,0.4,0.7,0.6
		c0.2,0.3,0.3,0.6,0.3,1c0,0.7-0.2,1.3-0.7,1.9c-0.5,0.6-1.2,0.8-2,0.8c-0.7,0-1.2-0.2-1.6-0.6s-0.6-0.9-0.6-1.5
		c0-0.6,0.1-1.1,0.4-1.5C137.4,357.8,137.8,357.5,138.3,357.3z M137.6,359.7c0,0.2,0.1,0.4,0.2,0.6c0.1,0.2,0.3,0.4,0.5,0.5
		s0.5,0.2,0.7,0.2c0.5,0,1-0.2,1.3-0.7c0.3-0.4,0.4-0.8,0.4-1.3c0-0.4-0.1-0.7-0.4-0.9c-0.2-0.2-0.6-0.3-0.9-0.3
		c-0.5,0-0.9,0.2-1.2,0.5C137.8,358.7,137.6,359.2,137.6,359.7z M138.4,355.9c0,0.3,0.1,0.6,0.3,0.8s0.5,0.3,0.9,0.3
		c0.4,0,0.8-0.1,1.1-0.4s0.4-0.6,0.4-1c0-0.3-0.1-0.6-0.3-0.8c-0.2-0.2-0.5-0.3-0.9-0.3c-0.3,0-0.5,0.1-0.8,0.2s-0.4,0.3-0.5,0.5
		S138.4,355.7,138.4,355.9z"/>
	<path d="M145.4,361.7l1.6-7.9h1l-1,4.9l2.8-2.7h1.3l-2.4,2.1l1.5,3.6h-1.1l-1.1-2.9l-1.2,1l-0.4,1.9H145.4z"/>
	<path d="M152.4,361.7l-0.5-7.9h1.1l0.2,3.9c0,0.2,0,0.7,0.1,1.5c0,0.2,0,0.4,0,0.5c0,0.1,0,0.2,0,0.5c0.4-0.9,0.8-1.5,0.9-1.9
		l2.4-4.5h1.1l0.3,4.6c0,0.5,0,1.2,0.1,1.9c0.1-0.2,0.2-0.5,0.3-0.8c0.3-0.6,0.5-1,0.6-1.3l2.2-4.4h1.1l-4,7.9h-1.1l-0.3-4.8
		c0-0.4,0-0.9-0.1-1.5c-0.2,0.5-0.4,0.9-0.5,1.2l-2.7,5.1H152.4z"/>
	<path d="M161.1,361.7l0.2-1.1h1.1l-0.2,1.1H161.1z"/>
	<path d="M163.9,361.7l1.6-7.9h1l-0.6,3c0.4-0.4,0.7-0.6,1-0.8s0.6-0.2,1-0.2c0.5,0,0.8,0.1,1.1,0.4s0.4,0.6,0.4,1
		c0,0.2-0.1,0.6-0.2,1.1l-0.7,3.4h-1l0.7-3.5c0.1-0.5,0.2-0.8,0.2-0.9c0-0.2-0.1-0.3-0.2-0.5s-0.3-0.2-0.6-0.2c-0.4,0-0.7,0.1-1,0.3
		s-0.6,0.4-0.7,0.8s-0.3,0.8-0.5,1.5l-0.5,2.4H163.9z"/>
</g>
<g>
	<path d="M136.6,435.1c0-0.7,0.1-1.3,0.3-2c0.2-0.7,0.4-1.2,0.7-1.6s0.5-0.7,0.8-1c0.3-0.2,0.5-0.4,0.8-0.5c0.3-0.1,0.5-0.2,0.8-0.2
		c0.6,0,1.1,0.2,1.5,0.7c0.4,0.4,0.6,1.1,0.6,1.9c0,0.9-0.1,1.7-0.4,2.6c-0.3,1-0.8,1.8-1.4,2.3c-0.5,0.4-1,0.6-1.5,0.6
		c-0.6,0-1.1-0.2-1.5-0.7S136.6,436,136.6,435.1z M137.6,435.3c0,0.5,0.1,0.9,0.2,1.1c0.2,0.4,0.5,0.6,1,0.6c0.4,0,0.7-0.2,1-0.5
		c0.4-0.5,0.8-1.2,1-2.1s0.3-1.7,0.3-2.3c0-0.6-0.1-1-0.3-1.2c-0.2-0.3-0.5-0.4-0.9-0.4c-0.3,0-0.5,0.1-0.7,0.2s-0.4,0.4-0.6,0.7
		c-0.3,0.5-0.5,1.1-0.8,2C137.7,434.2,137.6,434.9,137.6,435.3z"/>
	<path d="M145.4,437.7l1.6-7.9h1l-1,4.9l2.8-2.7h1.3l-2.4,2.1l1.5,3.6h-1.1l-1.1-2.9l-1.2,1l-0.4,1.9H145.4z"/>
	<path d="M152.4,437.7l-0.5-7.9h1.1l0.2,3.9c0,0.2,0,0.7,0.1,1.5c0,0.2,0,0.4,0,0.5c0,0.1,0,0.2,0,0.5c0.4-0.9,0.8-1.5,0.9-1.9
		l2.4-4.5h1.1l0.3,4.6c0,0.5,0,1.2,0.1,1.9c0.1-0.2,0.2-0.5,0.3-0.8c0.3-0.6,0.5-1,0.6-1.3l2.2-4.4h1.1l-4,7.9h-1.1l-0.3-4.8
		c0-0.4,0-0.9-0.1-1.5c-0.2,0.5-0.4,0.9-0.5,1.2l-2.7,5.1H152.4z"/>
	<path d="M161.1,437.7l0.2-1.1h1.1l-0.2,1.1H161.1z"/>
	<path d="M163.9,437.7l1.6-7.9h1l-0.6,3c0.4-0.4,0.7-0.6,1-0.8s0.6-0.2,1-0.2c0.5,0,0.8,0.1,1.1,0.4s0.4,0.6,0.4,1
		c0,0.2-0.1,0.6-0.2,1.1l-0.7,3.4h-1l0.7-3.5c0.1-0.5,0.2-0.8,0.2-0.9c0-0.2-0.1-0.3-0.2-0.5s-0.3-0.2-0.6-0.2c-0.4,0-0.7,0.1-1,0.3
		s-0.6,0.4-0.7,0.8s-0.3,0.8-0.5,1.5l-0.5,2.4H163.9z"/>
</g>
</svg>
