<?xml version="1.0" encoding="utf-8"?>
<!-- Generator: Adobe Illustrator 22.1.0, SVG Export Plug-In . SVG Version: 6.00 Build 0)  -->
<svg version="1.1" id="Layer_1" xmlns="http://www.w3.org/2000/svg" xmlns:xlink="http://www.w3.org/1999/xlink" x="0px" y="0px"
	 viewBox="0 0 400 200" style="enable-background:new 0 0 400 200;" xml:space="preserve">
<style type="text/css">
	.st0{opacity:0.8;}
	.st1{fill:#FFFFFF;}
	.st2{fill:none;stroke:#FFFFFF;stroke-width:2;stroke-miterlimit:10;}
	.st3{fill:#00FF00;}
	.st4{fill:none;stroke:#FFFFFF;stroke-width:0.25;stroke-miterlimit:10;}
	.st5{fill:none;stroke:#FFFFFF;stroke-width:2;stroke-linecap:round;stroke-miterlimit:10;}
</style>
<g class="st0">
	<path class="st1" d="M49,74V21c0-2.8,2.3-5,5-5h292c2.8,0,5,2.3,5,5v53"/>
	<path class="st2" d="M49,74V21c0-2.8,2.3-5,5-5h292c2.8,0,5,2.3,5,5v53"/>
</g>
<g class="st0">
	<path class="st2" d="M351,74v106c0,2.8-2.3,5-5,5H54c-2.8,0-5-2.3-5-5V74"/>
</g>
<g>
	<path d="M72.4,52.7L76,35.5h11.2l-0.4,2h-8.9l-1.1,5.5h9.1l-0.4,2h-9.1l-1.6,7.8H72.4z"/>
	<path d="M83.8,52.7l9.8-17.2h2.7l2.8,17.2h-2.2l-0.8-5h-7l-2.8,5H83.8z M90,45.9h5.7l-0.7-4.3c-0.3-1.7-0.4-3.1-0.5-4.3
		c-0.4,1-1,2.2-1.7,3.5L90,45.9z"/>
	<path d="M101.5,52.7l3.6-17.2h2.2l2.9,6.5c0.9,2,1.6,3.6,2.1,5c0.3,0.8,0.6,1.8,1,3.2c0.2-1.4,0.5-2.9,0.8-4.5l2.1-10.1h2.2
		l-3.6,17.2h-2.3l-4.3-10c-0.8-1.8-1.4-3.3-1.8-4.6c-0.1,1.1-0.3,2.5-0.7,4.1l-2.2,10.5H101.5z"/>
	<path d="M138.9,46.6l2.3,0.3c-0.7,2-1.8,3.5-3.1,4.5c-1.4,1-2.9,1.5-4.6,1.5c-2.1,0-3.8-0.6-5-1.9c-1.2-1.3-1.8-3.1-1.8-5.5
		c0-3.1,0.9-5.7,2.8-7.7c1.7-1.8,3.7-2.7,6.2-2.7c1.8,0,3.3,0.5,4.4,1.5c1.1,1,1.8,2.3,2,3.9l-2.1,0.2c-0.2-1.2-0.7-2.2-1.4-2.8
		c-0.7-0.6-1.6-0.9-2.7-0.9c-2.1,0-3.8,0.9-5.1,2.8c-1.1,1.6-1.7,3.5-1.7,5.7c0,1.8,0.4,3.1,1.3,4.1c0.9,0.9,2,1.4,3.4,1.4
		c1.2,0,2.3-0.4,3.2-1.2C137.7,49.1,138.4,48,138.9,46.6z"/>
	<path d="M143.9,45.5c0-3.1,0.9-5.6,2.7-7.5c1.8-1.9,3.9-2.8,6.5-2.8c2.1,0,3.9,0.7,5.2,2.1c1.4,1.4,2,3.3,2,5.6
		c0,1.7-0.3,3.2-1,4.7c-0.5,1.1-1.2,2-1.9,2.8s-1.6,1.4-2.5,1.8c-1.2,0.6-2.4,0.8-3.7,0.8c-1.4,0-2.6-0.3-3.8-1
		c-1.1-0.7-2-1.6-2.6-2.8C144.2,48.1,143.9,46.8,143.9,45.5z M146.2,45.6c0,1,0.2,1.9,0.6,2.8c0.4,0.8,1,1.5,1.9,2
		c0.8,0.5,1.7,0.7,2.6,0.7c0.9,0,1.7-0.2,2.5-0.6c0.8-0.4,1.5-1,2.1-1.8c0.6-0.7,1.1-1.7,1.5-2.8c0.4-1.1,0.5-2.2,0.5-3.2
		c0-1.7-0.5-3.1-1.4-4.1c-1-1-2.1-1.5-3.6-1.5c-1.8,0-3.4,0.8-4.8,2.3S146.2,43,146.2,45.6z"/>
	<path d="M161.6,52.7l3.6-17.2h7.2c1.4,0,2.5,0.1,3.2,0.4c0.7,0.2,1.3,0.7,1.7,1.3c0.4,0.7,0.6,1.5,0.6,2.5c0,1.4-0.5,2.6-1.4,3.5
		c-0.9,0.9-2.4,1.5-4.4,1.8c0.6,0.5,1.1,0.9,1.4,1.4c0.7,1,1.3,2.1,1.7,3.1l1.3,3.2h-2.6l-1.2-3.2c-0.4-1.2-1-2.2-1.5-3
		c-0.4-0.6-0.8-1-1.2-1.2c-0.4-0.2-1.1-0.3-2-0.3h-2.7l-1.6,7.6H161.6z M165.9,43.2h3.2c1.5,0,2.4,0,2.9-0.1
		c0.9-0.1,1.6-0.3,2.1-0.6c0.6-0.3,1-0.7,1.3-1.2c0.3-0.5,0.5-1.1,0.5-1.7c0-0.5-0.1-0.9-0.3-1.3c-0.2-0.4-0.5-0.6-0.9-0.8
		c-0.4-0.1-1-0.2-1.9-0.2h-5.6L165.9,43.2z"/>
	<path d="M178.9,52.7l3.6-17.2h12.4l-0.4,2h-10.1l-1.1,5.4h9.9l-0.4,2h-9.9l-1.2,6h10.8l-0.4,2H178.9z"/>
	<path d="M205.3,35.5h2.3L205.4,46c-0.2,0.9-0.3,1.5-0.3,2c0,0.9,0.4,1.7,1.1,2.2s1.6,0.8,2.7,0.8c0.9,0,1.7-0.2,2.5-0.6
		c0.8-0.4,1.4-1,1.8-1.8c0.4-0.8,0.8-2,1.2-3.7l2-9.5h2.3l-2.1,10.1c-0.4,1.7-0.8,3.1-1.4,4.1c-0.6,1-1.4,1.8-2.4,2.4
		s-2.3,0.9-3.6,0.9c-1.3,0-2.4-0.2-3.4-0.6c-1-0.4-1.7-1-2.1-1.8s-0.7-1.6-0.7-2.6c0-0.6,0.2-1.6,0.5-3.1L205.3,35.5z"/>
	<path d="M219.1,52.7l3.6-17.2h2.2l2.9,6.5c0.9,2,1.6,3.6,2.1,5c0.3,0.8,0.6,1.8,1,3.2c0.2-1.4,0.5-2.9,0.8-4.5l2.1-10.1h2.2
		l-3.6,17.2h-2.3l-4.3-10c-0.8-1.8-1.4-3.3-1.8-4.6c-0.1,1.1-0.3,2.5-0.7,4.1l-2.2,10.5H219.1z"/>
	<path d="M236.7,52.7l3.6-17.2h2.3L239,52.7H236.7z"/>
	<path d="M247.5,52.7l3.2-15.3H245l0.4-2H259l-0.4,2h-5.6l-3.2,15.3H247.5z"/>
	<path d="M256.3,52.7l0.5-2.4h2.4l-0.5,2.4H256.3z M258.4,42.6l0.5-2.4h2.4l-0.5,2.4H258.4z"/>
	<path d="M269.5,48.2l3.2-0.4c0.1,0.9,0.4,1.6,0.7,1.9c0.3,0.4,0.8,0.5,1.4,0.5c0.8,0,1.4-0.3,1.9-0.8c0.5-0.5,0.8-1.2,0.8-2
		c0-0.7-0.2-1.3-0.6-1.7c-0.4-0.4-1-0.6-1.6-0.6c-0.2,0-0.4,0-0.5,0l0.6-2.8c0.1,0,0.2,0,0.3,0c0.9,0,1.6-0.2,2.1-0.7
		c0.5-0.5,0.7-1.1,0.7-1.9c0-0.6-0.2-1-0.5-1.3c-0.3-0.3-0.7-0.5-1.3-0.5c-0.5,0-0.9,0.2-1.3,0.5s-0.7,1-0.9,1.8l-3.1-0.6
		c0.4-1.3,0.9-2.2,1.6-2.9c1.1-1,2.4-1.5,3.9-1.5c1.6,0,2.8,0.4,3.6,1.3c0.8,0.9,1.2,1.9,1.2,3.2c0,0.9-0.3,1.7-0.8,2.4
		c-0.5,0.7-1.2,1.2-2.2,1.6c0.7,0.4,1.3,0.9,1.6,1.5c0.3,0.6,0.5,1.2,0.5,1.9c0,1.3-0.5,2.4-1.4,3.5c-1.2,1.5-2.8,2.2-4.8,2.2
		c-1.5,0-2.7-0.4-3.6-1.3C270.3,50.9,269.7,49.7,269.5,48.2z"/>
	<path d="M283.4,49.4h3.3l-0.7,3.3h-3.3L283.4,49.4z"/>
	<path d="M289.6,48.2l3.2-0.4c0.1,0.9,0.4,1.6,0.7,1.9c0.3,0.4,0.8,0.5,1.4,0.5c0.8,0,1.4-0.3,1.9-0.8c0.5-0.5,0.8-1.2,0.8-2
		c0-0.7-0.2-1.3-0.6-1.7c-0.4-0.4-1-0.6-1.6-0.6c-0.2,0-0.4,0-0.5,0l0.6-2.8c0.1,0,0.2,0,0.3,0c0.9,0,1.6-0.2,2.1-0.7
		c0.5-0.5,0.7-1.1,0.7-1.9c0-0.6-0.2-1-0.5-1.3c-0.3-0.3-0.7-0.5-1.3-0.5c-0.5,0-0.9,0.2-1.3,0.5s-0.7,1-0.9,1.8l-3.1-0.6
		c0.4-1.3,0.9-2.2,1.6-2.9c1.1-1,2.4-1.5,3.9-1.5c1.6,0,2.8,0.4,3.6,1.3c0.8,0.9,1.2,1.9,1.2,3.2c0,0.9-0.3,1.7-0.8,2.4
		c-0.5,0.7-1.2,1.2-2.2,1.6c0.7,0.4,1.3,0.9,1.6,1.5c0.3,0.6,0.5,1.2,0.5,1.9c0,1.3-0.5,2.4-1.4,3.5c-1.2,1.5-2.8,2.2-4.8,2.2
		c-1.5,0-2.7-0.4-3.6-1.3C290.3,50.9,289.8,49.7,289.6,48.2z"/>
	<path d="M304.6,42.8l0.6-3c2.9-1.3,5.2-2.7,6.7-4.4h2.1l-3.6,17.3H307l2.5-11.9c-0.7,0.5-1.5,0.9-2.4,1.2S305.3,42.6,304.6,42.8z"
		/>
</g>
<g>
	<path d="M129.2,111.3l1.8-0.2l0,0.5c0,0.5,0.1,1,0.4,1.4s0.6,0.8,1.2,1c0.6,0.2,1.2,0.4,2,0.4c1.1,0,1.9-0.2,2.5-0.7
		c0.6-0.5,0.9-1,0.9-1.6c0-0.4-0.2-0.8-0.5-1.2c-0.3-0.3-1.2-0.8-2.5-1.4c-1.1-0.5-1.8-0.8-2.2-1.1c-0.6-0.4-1.1-0.8-1.4-1.3
		s-0.4-1-0.4-1.6c0-0.7,0.2-1.3,0.6-1.9c0.4-0.6,0.9-1,1.7-1.3c0.7-0.3,1.6-0.4,2.5-0.4c1.1,0,2,0.2,2.8,0.6
		c0.8,0.4,1.3,0.9,1.7,1.5c0.3,0.6,0.5,1.2,0.5,1.8c0,0.1,0,0.1,0,0.3l-1.8,0.1c0-0.4,0-0.7-0.1-0.9c-0.1-0.4-0.3-0.7-0.6-1
		c-0.3-0.3-0.6-0.5-1.1-0.6c-0.5-0.2-1-0.2-1.5-0.2c-1,0-1.8,0.2-2.3,0.7c-0.4,0.3-0.6,0.8-0.6,1.4c0,0.3,0.1,0.6,0.3,0.9
		s0.5,0.5,0.9,0.8c0.3,0.2,1.1,0.5,2.3,1.1c1,0.4,1.7,0.8,2,1c0.5,0.3,0.9,0.7,1.1,1.2s0.4,1,0.4,1.6c0,0.7-0.2,1.4-0.7,2
		s-1.1,1.1-1.9,1.4c-0.8,0.3-1.7,0.5-2.7,0.5c-1.5,0-2.8-0.3-3.8-1S129.2,113.1,129.2,111.3z"/>
	<path d="M145.1,114.3l-0.3,1.4c-0.4,0.1-0.8,0.2-1.2,0.2c-0.7,0-1.2-0.2-1.6-0.5c-0.3-0.2-0.4-0.6-0.4-1c0-0.2,0.1-0.7,0.2-1.5
		l1.2-5.7h-1.3l0.3-1.3h1.3l0.5-2.4l1.9-1.2l-0.8,3.6h1.7l-0.3,1.3h-1.6l-1.1,5.5c-0.1,0.7-0.2,1.1-0.2,1.2c0,0.2,0.1,0.4,0.2,0.5
		c0.1,0.1,0.3,0.2,0.6,0.2C144.5,114.5,144.8,114.4,145.1,114.3z"/>
	<path d="M153.1,114.5c-0.6,0.5-1.1,0.9-1.7,1.1c-0.5,0.2-1.1,0.3-1.7,0.3c-0.9,0-1.6-0.3-2.2-0.8s-0.8-1.2-0.8-2.1
		c0-0.6,0.1-1,0.4-1.5c0.3-0.4,0.6-0.8,1-1c0.4-0.3,0.9-0.4,1.5-0.6c0.4-0.1,1.1-0.1,2.2-0.2c1.1,0,1.8-0.2,2.3-0.3
		c0.1-0.5,0.2-0.8,0.2-1.1c0-0.4-0.1-0.7-0.4-0.9c-0.4-0.3-1-0.5-1.7-0.5c-0.7,0-1.3,0.2-1.7,0.5c-0.5,0.3-0.8,0.8-1,1.3l-1.7-0.1
		c0.3-1,0.9-1.7,1.7-2.3c0.8-0.5,1.7-0.8,2.8-0.8c1.2,0,2.2,0.3,2.9,0.9c0.5,0.4,0.8,1,0.8,1.7c0,0.5-0.1,1.1-0.2,1.8l-0.5,2.5
		c-0.2,0.8-0.3,1.4-0.3,1.9c0,0.3,0.1,0.8,0.2,1.3h-1.7C153.2,115.4,153.2,115,153.1,114.5z M153.8,110.7c-0.2,0.1-0.5,0.2-0.8,0.2
		s-0.7,0.1-1.4,0.2c-1,0.1-1.7,0.2-2.1,0.3c-0.4,0.1-0.7,0.3-0.9,0.6c-0.2,0.3-0.3,0.6-0.3,1c0,0.5,0.2,0.9,0.5,1.2s0.8,0.5,1.4,0.5
		c0.6,0,1.1-0.1,1.6-0.4s0.9-0.7,1.2-1.2C153.4,112.4,153.6,111.7,153.8,110.7z"/>
	<path d="M161,114.3l-0.3,1.4c-0.4,0.1-0.8,0.2-1.2,0.2c-0.7,0-1.2-0.2-1.6-0.5c-0.3-0.2-0.4-0.6-0.4-1c0-0.2,0.1-0.7,0.2-1.5
		l1.2-5.7h-1.3l0.3-1.3h1.3l0.5-2.4l1.9-1.2l-0.8,3.6h1.7l-0.3,1.3h-1.6l-1.1,5.5c-0.1,0.7-0.2,1.1-0.2,1.2c0,0.2,0.1,0.4,0.2,0.5
		c0.1,0.1,0.3,0.2,0.6,0.2C160.4,114.5,160.7,114.4,161,114.3z"/>
	<path d="M169.1,113.9c-1.2,1.3-2.4,2-3.6,2c-0.8,0-1.4-0.2-1.8-0.7c-0.5-0.4-0.7-1-0.7-1.6c0-0.4,0.1-1.1,0.3-2.1l1.2-5.7h1.7
		l-1.3,6.3c-0.1,0.5-0.2,0.9-0.2,1.2c0,0.4,0.1,0.7,0.3,0.9s0.6,0.3,1,0.3c0.5,0,0.9-0.1,1.4-0.3s0.8-0.5,1.2-0.9
		c0.3-0.4,0.6-0.9,0.8-1.4c0.1-0.3,0.3-0.9,0.5-1.8l0.9-4.3h1.7l-2.1,9.9h-1.6L169.1,113.9z"/>
	<path d="M173.1,112.3l1.7-0.1c0,0.5,0.1,0.9,0.2,1.2c0.1,0.3,0.4,0.6,0.8,0.8c0.4,0.2,0.9,0.3,1.4,0.3c0.7,0,1.3-0.1,1.7-0.4
		c0.4-0.3,0.6-0.6,0.6-1.1c0-0.3-0.1-0.6-0.3-0.8c-0.2-0.3-0.8-0.6-1.7-1s-1.5-0.6-1.7-0.8c-0.4-0.3-0.7-0.6-0.9-0.9
		c-0.2-0.3-0.3-0.7-0.3-1.2c0-0.8,0.3-1.5,0.9-2c0.6-0.6,1.5-0.8,2.6-0.8c1.2,0,2.2,0.3,2.8,0.9c0.6,0.6,1,1.3,1,2.3l-1.6,0.1
		c0-0.6-0.2-1.1-0.6-1.4c-0.4-0.3-1-0.5-1.7-0.5c-0.6,0-1,0.1-1.4,0.4s-0.5,0.6-0.5,0.9c0,0.3,0.1,0.6,0.4,0.8
		c0.2,0.2,0.7,0.4,1.4,0.7c1.3,0.6,2.1,1,2.4,1.3c0.5,0.5,0.8,1.1,0.8,1.9c0,0.5-0.2,1-0.5,1.4c-0.3,0.5-0.8,0.8-1.4,1.1
		c-0.6,0.3-1.3,0.4-2.2,0.4c-1.1,0-2.1-0.3-2.9-0.8S173.1,113.6,173.1,112.3z"/>
	<path d="M182.9,115.7l0.4-1.9h1.9l-0.4,1.9H182.9z M184.6,107.7l0.4-1.9h1.9l-0.4,1.9H184.6z"/>
	<path d="M84.2,138.6l2.5-12.1h-4.5l0.3-1.6h10.7l-0.3,1.6h-4.4L86,138.6H84.2z"/>
	<path d="M97.6,135.2l1.6,0.2c-0.2,0.8-0.8,1.6-1.6,2.3c-0.8,0.7-1.9,1.1-3,1.1c-0.7,0-1.4-0.2-2-0.5s-1.1-0.8-1.4-1.5
		c-0.3-0.6-0.5-1.4-0.5-2.2c0-1.1,0.3-2.1,0.7-3.1s1.1-1.8,1.9-2.3c0.8-0.5,1.7-0.7,2.6-0.7c1.2,0,2.1,0.4,2.8,1.1
		c0.7,0.7,1.1,1.7,1.1,3c0,0.5,0,1-0.1,1.5h-7.3c0,0.2,0,0.4,0,0.5c0,0.9,0.2,1.6,0.6,2.1s0.9,0.7,1.6,0.7c0.6,0,1.1-0.2,1.7-0.6
		C96.9,136.5,97.3,135.9,97.6,135.2z M92.7,132.8h5.5c0-0.2,0-0.3,0-0.4c0-0.8-0.2-1.5-0.6-1.9s-1-0.7-1.6-0.7c-0.7,0-1.4,0.2-2,0.7
		C93.5,131,93,131.8,92.7,132.8z"/>
	<path d="M101,138.6l2.1-9.9h1.7l-0.3,1.6c0.6-0.7,1.2-1.2,1.7-1.5c0.5-0.3,1-0.4,1.6-0.4c0.6,0,1.1,0.2,1.5,0.5
		c0.4,0.3,0.7,0.8,0.8,1.4c0.5-0.6,1-1.1,1.6-1.4s1.1-0.5,1.8-0.5c0.8,0,1.4,0.2,1.9,0.6c0.4,0.4,0.6,0.9,0.6,1.6
		c0,0.3-0.1,0.8-0.2,1.5l-1.3,6.4h-1.7l1.4-6.5c0.1-0.5,0.2-0.9,0.2-1.1c0-0.3-0.1-0.6-0.3-0.8c-0.2-0.2-0.5-0.3-0.9-0.3
		c-0.5,0-1,0.2-1.5,0.5c-0.5,0.3-0.9,0.7-1.2,1.2c-0.3,0.5-0.5,1.3-0.8,2.3l-1,4.8h-1.7l1.4-6.7c0.1-0.5,0.1-0.8,0.1-1
		c0-0.3-0.1-0.6-0.3-0.8c-0.2-0.2-0.5-0.3-0.8-0.3c-0.5,0-1,0.2-1.5,0.5c-0.5,0.3-1,0.7-1.3,1.3c-0.3,0.5-0.6,1.3-0.8,2.3l-1,4.7
		H101z"/>
	<path d="M116,142.3l2.9-13.7h1.6l-0.3,1.4c0.6-0.6,1.1-1,1.5-1.3c0.5-0.2,0.9-0.3,1.4-0.3c0.9,0,1.7,0.3,2.3,1
		c0.6,0.7,0.9,1.7,0.9,2.9c0,1-0.2,2-0.5,2.8c-0.3,0.8-0.8,1.5-1.3,2c-0.5,0.5-1,0.9-1.5,1.1c-0.5,0.2-1,0.4-1.6,0.4
		c-1.2,0-2.1-0.6-2.8-1.8l-1.1,5.4H116z M119.3,134.5c0,0.7,0.1,1.2,0.2,1.5c0.2,0.4,0.4,0.7,0.8,1s0.8,0.4,1.2,0.4
		c1,0,1.7-0.5,2.3-1.6c0.6-1.1,0.9-2.2,0.9-3.3c0-0.8-0.2-1.5-0.6-1.9c-0.4-0.5-0.9-0.7-1.5-0.7c-0.4,0-0.8,0.1-1.2,0.3
		c-0.4,0.2-0.7,0.6-1,1c-0.3,0.5-0.6,1-0.8,1.7C119.4,133.5,119.3,134,119.3,134.5z"/>
	<path d="M134.7,135.2l1.6,0.2c-0.2,0.8-0.8,1.6-1.6,2.3c-0.8,0.7-1.9,1.1-3,1.1c-0.7,0-1.4-0.2-2-0.5s-1.1-0.8-1.4-1.5
		c-0.3-0.6-0.5-1.4-0.5-2.2c0-1.1,0.3-2.1,0.7-3.1s1.1-1.8,1.9-2.3c0.8-0.5,1.7-0.7,2.6-0.7c1.2,0,2.1,0.4,2.8,1.1
		c0.7,0.7,1.1,1.7,1.1,3c0,0.5,0,1-0.1,1.5h-7.3c0,0.2,0,0.4,0,0.5c0,0.9,0.2,1.6,0.6,2.1s0.9,0.7,1.6,0.7c0.6,0,1.1-0.2,1.7-0.6
		C133.9,136.5,134.4,135.9,134.7,135.2z M129.8,132.8h5.5c0-0.2,0-0.3,0-0.4c0-0.8-0.2-1.5-0.6-1.9s-1-0.7-1.6-0.7
		c-0.7,0-1.4,0.2-2,0.7C130.5,131,130.1,131.8,129.8,132.8z"/>
	<path d="M138,138.6l2.1-9.9h1.5l-0.4,2c0.5-0.8,1-1.3,1.5-1.7c0.5-0.4,1-0.5,1.5-0.5c0.3,0,0.7,0.1,1.2,0.4l-0.7,1.6
		c-0.3-0.2-0.6-0.3-1-0.3c-0.6,0-1.2,0.3-1.8,1c-0.6,0.7-1.1,1.8-1.5,3.5l-0.8,4H138z"/>
	<path d="M151,137.3c-0.6,0.5-1.1,0.9-1.7,1.1c-0.5,0.2-1.1,0.3-1.7,0.3c-0.9,0-1.6-0.3-2.2-0.8c-0.6-0.5-0.8-1.2-0.8-2.1
		c0-0.6,0.1-1,0.4-1.5c0.3-0.4,0.6-0.8,1-1c0.4-0.3,0.9-0.4,1.5-0.6c0.4-0.1,1.1-0.1,2.2-0.2c1.1,0,1.8-0.2,2.3-0.3
		c0.1-0.5,0.2-0.8,0.2-1.1c0-0.4-0.1-0.7-0.4-0.9c-0.4-0.3-1-0.5-1.7-0.5c-0.7,0-1.3,0.2-1.7,0.5c-0.5,0.3-0.8,0.8-1,1.3l-1.7-0.1
		c0.3-1,0.9-1.7,1.7-2.3c0.8-0.5,1.7-0.8,2.8-0.8c1.2,0,2.2,0.3,2.9,0.9c0.5,0.4,0.8,1,0.8,1.7c0,0.5-0.1,1.1-0.2,1.8l-0.5,2.5
		c-0.2,0.8-0.3,1.4-0.3,1.9c0,0.3,0.1,0.8,0.2,1.3h-1.7C151.1,138.2,151.1,137.8,151,137.3z M151.6,133.6c-0.2,0.1-0.5,0.2-0.8,0.2
		c-0.3,0-0.7,0.1-1.4,0.2c-1,0.1-1.7,0.2-2.1,0.3c-0.4,0.1-0.7,0.3-0.9,0.6c-0.2,0.3-0.3,0.6-0.3,1c0,0.5,0.2,0.9,0.5,1.2
		s0.8,0.5,1.4,0.5c0.6,0,1.1-0.1,1.6-0.4c0.5-0.3,0.9-0.7,1.2-1.2C151.2,135.3,151.5,134.5,151.6,133.6z"/>
	<path d="M158.9,137.2l-0.3,1.4c-0.4,0.1-0.8,0.2-1.2,0.2c-0.7,0-1.2-0.2-1.6-0.5c-0.3-0.2-0.4-0.6-0.4-1c0-0.2,0.1-0.7,0.2-1.5
		l1.2-5.7h-1.3l0.3-1.3h1.3l0.5-2.4l1.9-1.2l-0.8,3.6h1.7l-0.3,1.3h-1.6l-1.1,5.5c-0.1,0.7-0.2,1.1-0.2,1.2c0,0.2,0.1,0.4,0.2,0.5
		c0.1,0.1,0.3,0.2,0.6,0.2C158.3,137.3,158.6,137.3,158.9,137.2z"/>
	<path d="M167,136.8c-1.2,1.3-2.4,2-3.6,2c-0.8,0-1.4-0.2-1.8-0.7c-0.5-0.4-0.7-1-0.7-1.6c0-0.4,0.1-1.1,0.3-2.1l1.2-5.7h1.7
		l-1.3,6.3c-0.1,0.5-0.2,0.9-0.2,1.2c0,0.4,0.1,0.7,0.3,0.9c0.2,0.2,0.6,0.3,1,0.3c0.5,0,0.9-0.1,1.4-0.3c0.4-0.2,0.8-0.5,1.2-0.9
		c0.3-0.4,0.6-0.9,0.8-1.4c0.1-0.3,0.3-0.9,0.5-1.8l0.9-4.3h1.7l-2.1,9.9h-1.6L167,136.8z"/>
	<path d="M170.8,138.6l2.1-9.9h1.5l-0.4,2c0.5-0.8,1-1.3,1.5-1.7c0.5-0.4,1-0.5,1.5-0.5c0.3,0,0.7,0.1,1.2,0.4l-0.7,1.6
		c-0.3-0.2-0.6-0.3-1-0.3c-0.6,0-1.2,0.3-1.8,1c-0.6,0.7-1.1,1.8-1.5,3.5l-0.8,4H170.8z"/>
	<path d="M184.4,135.2l1.6,0.2c-0.2,0.8-0.8,1.6-1.6,2.3c-0.8,0.7-1.9,1.1-3,1.1c-0.7,0-1.4-0.2-2-0.5s-1.1-0.8-1.4-1.5
		c-0.3-0.6-0.5-1.4-0.5-2.2c0-1.1,0.3-2.1,0.7-3.1s1.1-1.8,1.9-2.3c0.8-0.5,1.7-0.7,2.6-0.7c1.2,0,2.1,0.4,2.8,1.1
		c0.7,0.7,1.1,1.7,1.1,3c0,0.5,0,1-0.1,1.5h-7.3c0,0.2,0,0.4,0,0.5c0,0.9,0.2,1.6,0.6,2.1s0.9,0.7,1.6,0.7c0.6,0,1.1-0.2,1.7-0.6
		C183.7,136.5,184.1,135.9,184.4,135.2z M179.5,132.8h5.5c0-0.2,0-0.3,0-0.4c0-0.8-0.2-1.5-0.6-1.9s-1-0.7-1.6-0.7
		c-0.7,0-1.4,0.2-2,0.7C180.3,131,179.8,131.8,179.5,132.8z"/>
	<path d="M188.2,138.6l0.4-1.9h1.9l-0.4,1.9H188.2z M189.9,130.6l0.4-1.9h1.9l-0.4,1.9H189.9z"/>
	<path d="M111.2,157l1.8-0.2l0,0.5c0,0.5,0.1,1,0.4,1.4c0.2,0.4,0.6,0.8,1.2,1c0.6,0.2,1.2,0.4,2,0.4c1.1,0,1.9-0.2,2.5-0.7
		c0.6-0.5,0.9-1,0.9-1.6c0-0.4-0.2-0.8-0.5-1.2c-0.3-0.3-1.2-0.8-2.5-1.4c-1.1-0.5-1.8-0.8-2.2-1.1c-0.6-0.4-1.1-0.8-1.4-1.3
		s-0.4-1-0.4-1.6c0-0.7,0.2-1.3,0.6-1.9c0.4-0.6,0.9-1,1.7-1.3c0.7-0.3,1.6-0.4,2.5-0.4c1.1,0,2,0.2,2.8,0.6
		c0.8,0.4,1.3,0.9,1.7,1.5c0.3,0.6,0.5,1.2,0.5,1.8c0,0.1,0,0.1,0,0.3l-1.8,0.1c0-0.4,0-0.7-0.1-0.9c-0.1-0.4-0.3-0.7-0.6-1
		c-0.3-0.3-0.6-0.5-1.1-0.6c-0.5-0.2-1-0.2-1.5-0.2c-1,0-1.8,0.2-2.3,0.7c-0.4,0.3-0.6,0.8-0.6,1.4c0,0.3,0.1,0.6,0.3,0.9
		s0.5,0.5,0.9,0.8c0.3,0.2,1.1,0.5,2.3,1.1c1,0.4,1.7,0.8,2,1c0.5,0.3,0.9,0.7,1.1,1.2c0.3,0.5,0.4,1,0.4,1.6c0,0.7-0.2,1.4-0.7,2
		s-1.1,1.1-1.9,1.4c-0.8,0.3-1.7,0.5-2.7,0.5c-1.5,0-2.8-0.3-3.8-1C111.7,160,111.2,158.8,111.2,157z"/>
	<path d="M130.4,158.1l1.6,0.2c-0.2,0.8-0.8,1.6-1.6,2.3c-0.8,0.7-1.9,1.1-3,1.1c-0.7,0-1.4-0.2-2-0.5s-1.1-0.8-1.4-1.5
		s-0.5-1.4-0.5-2.2c0-1.1,0.3-2.1,0.7-3.1s1.1-1.8,1.9-2.3c0.8-0.5,1.7-0.7,2.6-0.7c1.2,0,2.1,0.4,2.8,1.1c0.7,0.7,1.1,1.7,1.1,3
		c0,0.5,0,1-0.1,1.5h-7.3c0,0.2,0,0.4,0,0.5c0,0.9,0.2,1.6,0.6,2.1c0.4,0.5,0.9,0.7,1.6,0.7c0.6,0,1.1-0.2,1.7-0.6
		C129.7,159.3,130.1,158.8,130.4,158.1z M125.5,155.6h5.5c0-0.2,0-0.3,0-0.4c0-0.8-0.2-1.5-0.6-1.9c-0.4-0.5-1-0.7-1.6-0.7
		c-0.7,0-1.4,0.2-2,0.7C126.3,153.9,125.8,154.6,125.5,155.6z"/>
	<path d="M137.7,160.1l-0.3,1.4c-0.4,0.1-0.8,0.2-1.2,0.2c-0.7,0-1.2-0.2-1.6-0.5c-0.3-0.2-0.4-0.6-0.4-1c0-0.2,0.1-0.7,0.2-1.5
		l1.2-5.7h-1.3l0.3-1.3h1.3l0.5-2.4l1.9-1.2l-0.8,3.6h1.7l-0.3,1.3h-1.6l-1.1,5.5c-0.1,0.7-0.2,1.1-0.2,1.2c0,0.2,0.1,0.3,0.2,0.5
		c0.1,0.1,0.3,0.2,0.6,0.2C137.1,160.2,137.4,160.1,137.7,160.1z"/>
	<path d="M144.5,161.4l2.9-13.6h5.7c1,0,1.7,0.1,2.2,0.3c0.5,0.2,0.9,0.6,1.2,1.2s0.5,1.2,0.5,1.8c0,0.6-0.1,1.1-0.3,1.7
		s-0.5,1.1-0.9,1.4c-0.3,0.4-0.7,0.7-1.1,0.9s-0.7,0.3-1.2,0.4c-0.9,0.2-1.8,0.3-2.7,0.3h-3.4l-1.2,5.5H144.5z M147.9,154.3h3
		c1.2,0,2-0.1,2.6-0.4c0.5-0.3,1-0.6,1.3-1.1c0.3-0.5,0.5-1.1,0.5-1.6c0-0.4-0.1-0.8-0.3-1.1c-0.2-0.3-0.4-0.5-0.7-0.6
		s-0.9-0.2-1.8-0.2h-3.5L147.9,154.3z"/>
	<path d="M157.4,157.7c0-1.9,0.6-3.5,1.7-4.8c0.9-1,2.2-1.6,3.7-1.6c1.2,0,2.1,0.4,2.9,1.1s1.1,1.7,1.1,3c0,1.1-0.2,2.2-0.7,3.2
		c-0.5,1-1.1,1.7-2,2.2c-0.8,0.5-1.7,0.8-2.7,0.8c-0.8,0-1.5-0.2-2.1-0.5c-0.6-0.3-1.1-0.8-1.4-1.4
		C157.5,159.2,157.4,158.5,157.4,157.7z M159,157.5c0,0.9,0.2,1.6,0.7,2.1c0.4,0.5,1,0.7,1.7,0.7c0.4,0,0.7-0.1,1.1-0.2
		s0.7-0.4,1-0.7c0.3-0.3,0.6-0.6,0.8-1c0.2-0.4,0.4-0.8,0.5-1.2c0.2-0.6,0.3-1.2,0.3-1.8c0-0.9-0.2-1.6-0.7-2.1s-1-0.7-1.7-0.7
		c-0.5,0-1,0.1-1.4,0.4c-0.4,0.3-0.8,0.6-1.2,1.1c-0.4,0.5-0.6,1-0.8,1.7C159.1,156.4,159,157,159,157.5z"/>
	<path d="M167.6,161.4l2.1-9.9h1.7l-2.1,9.9H167.6z M170,149.7l0.4-1.9h1.7l-0.4,1.9H170z"/>
	<path d="M171.9,161.4l2.1-9.9h1.5l-0.4,1.7c0.7-0.7,1.3-1.2,1.9-1.5c0.6-0.3,1.2-0.5,1.8-0.5c0.8,0,1.4,0.2,1.9,0.7
		c0.5,0.4,0.7,1,0.7,1.7c0,0.4-0.1,0.9-0.2,1.7l-1.3,6h-1.7l1.3-6.3c0.1-0.6,0.2-1.1,0.2-1.3c0-0.3-0.1-0.6-0.3-0.8
		c-0.2-0.2-0.6-0.3-1-0.3c-0.9,0-1.6,0.3-2.3,0.9s-1.2,1.7-1.5,3.2l-1,4.6H171.9z"/>
	<path d="M186.4,160.1l-0.3,1.4c-0.4,0.1-0.8,0.2-1.2,0.2c-0.7,0-1.2-0.2-1.6-0.5c-0.3-0.2-0.4-0.6-0.4-1c0-0.2,0.1-0.7,0.2-1.5
		l1.2-5.7H183l0.3-1.3h1.3l0.5-2.4l1.9-1.2l-0.8,3.6h1.7l-0.3,1.3H186l-1.1,5.5c-0.1,0.7-0.2,1.1-0.2,1.2c0,0.2,0.1,0.3,0.2,0.5
		c0.1,0.1,0.3,0.2,0.6,0.2C185.8,160.2,186.1,160.1,186.4,160.1z"/>
	<path d="M188.2,161.4l0.4-1.9h1.9l-0.4,1.9H188.2z M189.9,153.4l0.4-1.9h1.9l-0.4,1.9H189.9z"/>
</g>
<g>
	<path class="st3" d="M222.2,110.4c0-0.8,0.1-1.7,0.4-2.5c0.3-1.2,0.8-2.2,1.4-3.1c0.6-0.9,1.5-1.6,2.5-2.1s2.1-0.8,3.4-0.8
		c1.7,0,3,0.5,4.1,1.6c1,1,1.6,2.4,1.6,4.2c0,1.4-0.3,2.8-1,4.2s-1.6,2.4-2.8,3.1c-1.2,0.7-2.5,1.1-3.9,1.1c-1.3,0-2.3-0.3-3.2-0.9
		c-0.9-0.6-1.5-1.3-1.8-2.1S222.2,111.2,222.2,110.4z M225,110.3c0,0.9,0.3,1.7,0.9,2.4c0.6,0.6,1.3,0.9,2.3,0.9
		c0.8,0,1.5-0.2,2.2-0.7c0.7-0.5,1.3-1.3,1.7-2.3c0.5-1,0.7-2,0.7-3c0-1.1-0.3-1.9-0.9-2.5c-0.6-0.6-1.3-0.9-2.2-0.9
		c-1.4,0-2.5,0.6-3.3,1.9C225.4,107.4,225,108.8,225,110.3z"/>
	<path class="st3" d="M238.2,105.8h2.5l-0.3,1.3c0.6-0.5,1.2-0.9,1.8-1.2c0.5-0.2,1.1-0.3,1.7-0.3c0.8,0,1.5,0.2,1.9,0.7
		s0.7,1.1,0.7,1.9c0,0.3-0.1,1-0.3,2l-1.2,5.6h-2.7l1.2-5.6c0.2-0.8,0.3-1.3,0.3-1.5c0-0.3-0.1-0.6-0.3-0.8
		c-0.2-0.2-0.5-0.3-0.8-0.3c-0.4,0-0.8,0.2-1.3,0.5c-0.5,0.3-0.9,0.8-1.1,1.3c-0.2,0.4-0.4,1.2-0.7,2.4l-0.8,4.1h-2.7L238.2,105.8z"
		/>
	<path class="st1" d="M225.6,129.2l-2.6-0.4c0.2-1.3,0.7-2.2,1.5-2.9c0.8-0.7,1.7-1,2.9-1c1.3,0,2.3,0.3,3,1s1.1,1.6,1.1,2.6
		c0,0.5-0.1,1.1-0.3,1.6c-0.2,0.5-0.6,1.1-1.1,1.7c-0.4,0.4-1,1-1.8,1.8c-0.8,0.8-1.4,1.3-1.7,1.6c-0.3,0.3-0.5,0.6-0.8,0.9h4.7
		l-0.5,2.4h-8.3c0.1-0.7,0.3-1.3,0.6-1.9c0.3-0.6,0.7-1.2,1.1-1.7c0.5-0.5,1.3-1.4,2.5-2.5c0.9-0.9,1.5-1.5,1.7-1.7
		c0.4-0.5,0.7-0.9,0.9-1.3c0.2-0.4,0.2-0.7,0.2-1c0-0.5-0.1-0.8-0.4-1.1c-0.3-0.3-0.6-0.4-1-0.4c-0.4,0-0.8,0.2-1.1,0.5
		S225.7,128.3,225.6,129.2z"/>
	<path class="st1" d="M237,135.8h-5.4l0.5-2.2l7.4-8.6h2.3l-1.8,8.6h1.7l-0.5,2.3h-1.7l-0.6,2.8h-2.5L237,135.8z M237.5,133.5
		l0.9-4.3l-3.6,4.3H237.5z"/>
	<path class="st1" d="M247.7,129.8c0-1.1,0.3-1.9,0.9-2.6c0.6-0.6,1.4-1,2.4-1c0.8,0,1.5,0.2,2,0.7c0.5,0.5,0.7,1.1,0.7,1.9
		c0,0.9-0.3,1.7-0.9,2.4c-0.6,0.7-1.4,1-2.4,1c-0.5,0-1-0.1-1.4-0.3c-0.4-0.2-0.7-0.5-0.9-0.9S247.7,130.3,247.7,129.8z
		 M252.1,128.7c0-0.4-0.1-0.7-0.3-0.9c-0.2-0.2-0.5-0.3-0.8-0.3c-0.3,0-0.6,0.1-0.9,0.3c-0.3,0.2-0.5,0.5-0.6,0.9s-0.2,0.8-0.2,1.1
		c0,0.4,0.1,0.7,0.3,1c0.2,0.2,0.5,0.4,0.8,0.4c0.4,0,0.8-0.2,1.1-0.5C251.9,130.1,252.1,129.5,252.1,128.7z"/>
	<path class="st1" d="M264.5,133.7l2.8,0.4c-0.6,1.5-1.4,2.7-2.5,3.5c-1.1,0.8-2.4,1.2-3.9,1.2c-1.7,0-3-0.5-3.9-1.5
		c-0.9-1-1.4-2.5-1.4-4.4c0-1.6,0.3-3,0.9-4.3s1.5-2.3,2.6-3c1.1-0.7,2.3-1,3.6-1c1.5,0,2.7,0.4,3.6,1.2s1.4,1.9,1.6,3.2l-2.7,0.3
		c-0.1-0.8-0.4-1.4-0.9-1.7c-0.4-0.4-1-0.5-1.7-0.5c-0.8,0-1.5,0.2-2.2,0.7s-1.2,1.2-1.6,2.2c-0.4,1-0.6,2-0.6,3
		c0,1.1,0.3,1.9,0.8,2.5c0.5,0.6,1.2,0.9,2,0.9c0.7,0,1.4-0.2,2-0.7S264.2,134.6,264.5,133.7z"/>
	<path class="st1" d="M225.6,152l-2.6-0.4c0.2-1.3,0.7-2.2,1.5-2.9c0.8-0.7,1.7-1,2.9-1c1.3,0,2.3,0.3,3,1s1.1,1.6,1.1,2.6
		c0,0.5-0.1,1.1-0.3,1.6c-0.2,0.5-0.6,1.1-1.1,1.7c-0.4,0.4-1,1-1.8,1.8c-0.8,0.8-1.4,1.3-1.7,1.6c-0.3,0.3-0.5,0.6-0.8,0.9h4.7
		l-0.5,2.4h-8.3c0.1-0.7,0.3-1.3,0.6-1.9c0.3-0.6,0.7-1.2,1.1-1.7c0.5-0.5,1.3-1.4,2.5-2.5c0.9-0.9,1.5-1.5,1.7-1.7
		c0.4-0.5,0.7-0.9,0.9-1.3s0.2-0.7,0.2-1c0-0.5-0.1-0.8-0.4-1.1c-0.3-0.3-0.6-0.4-1-0.4c-0.4,0-0.8,0.2-1.1,0.5
		S225.7,151.2,225.6,152z"/>
	<path class="st1" d="M236.2,152l-2.6-0.4c0.2-1.3,0.7-2.2,1.5-2.9c0.8-0.7,1.7-1,2.9-1c1.3,0,2.3,0.3,3,1s1.1,1.6,1.1,2.6
		c0,0.5-0.1,1.1-0.3,1.6c-0.2,0.5-0.6,1.1-1.1,1.7c-0.4,0.4-1,1-1.8,1.8c-0.8,0.8-1.4,1.3-1.7,1.6c-0.3,0.3-0.5,0.6-0.8,0.9h4.7
		l-0.5,2.4h-8.3c0.1-0.7,0.3-1.3,0.6-1.9c0.3-0.6,0.7-1.2,1.1-1.7c0.5-0.5,1.3-1.4,2.5-2.5c0.9-0.9,1.5-1.5,1.7-1.7
		c0.4-0.5,0.7-0.9,0.9-1.3s0.2-0.7,0.2-1c0-0.5-0.1-0.8-0.4-1.1c-0.3-0.3-0.6-0.4-1-0.4c-0.4,0-0.8,0.2-1.1,0.5
		S236.3,151.2,236.2,152z"/>
	<path class="st1" d="M247.7,152.7c0-1.1,0.3-1.9,0.9-2.6c0.6-0.6,1.4-1,2.4-1c0.8,0,1.5,0.2,2,0.7c0.5,0.5,0.7,1.1,0.7,1.9
		c0,0.9-0.3,1.7-0.9,2.4s-1.4,1-2.4,1c-0.5,0-1-0.1-1.4-0.3c-0.4-0.2-0.7-0.5-0.9-0.9S247.7,153.1,247.7,152.7z M252.1,151.6
		c0-0.4-0.1-0.7-0.3-0.9c-0.2-0.2-0.5-0.3-0.8-0.3c-0.3,0-0.6,0.1-0.9,0.3c-0.3,0.2-0.5,0.5-0.6,0.9c-0.1,0.4-0.2,0.8-0.2,1.1
		c0,0.4,0.1,0.7,0.3,1c0.2,0.2,0.5,0.4,0.8,0.4c0.4,0,0.8-0.2,1.1-0.5C251.9,152.9,252.1,152.3,252.1,151.6z"/>
	<path class="st1" d="M264.5,156.5l2.8,0.4c-0.6,1.5-1.4,2.7-2.5,3.5c-1.1,0.8-2.4,1.2-3.9,1.2c-1.7,0-3-0.5-3.9-1.5
		c-0.9-1-1.4-2.5-1.4-4.4c0-1.5,0.3-3,0.9-4.3s1.5-2.3,2.6-3c1.1-0.7,2.3-1,3.6-1c1.5,0,2.7,0.4,3.6,1.2s1.4,1.9,1.6,3.2l-2.7,0.3
		c-0.1-0.8-0.4-1.4-0.9-1.7c-0.4-0.4-1-0.5-1.7-0.5c-0.8,0-1.5,0.2-2.2,0.7c-0.7,0.5-1.2,1.2-1.6,2.2c-0.4,1-0.6,2-0.6,3
		c0,1.1,0.3,1.9,0.8,2.5c0.5,0.6,1.2,0.9,2,0.9c0.7,0,1.4-0.2,2-0.7S264.2,157.4,264.5,156.5z"/>
</g>
<line class="st4" x1="308.5" y1="75" x2="308.5" y2="182"/>
<path class="st5" d="M324.5,115.5L335,126c0.6,0.6,0.6,1.4,0,2l-10.5,10.5"/>
</svg>
