<?xml version="1.0" encoding="utf-8"?>
<!-- Generator: Adobe Illustrator 22.0.1, SVG Export Plug-In . SVG Version: 6.00 Build 0)  -->
<svg version="1.1" id="Layer_1" xmlns="http://www.w3.org/2000/svg" xmlns:xlink="http://www.w3.org/1999/xlink" x="0px" y="0px"
	 width="477.2px" height="256.3px" viewBox="0 0 477.2 256.3" style="enable-background:new 0 0 477.2 256.3;" xml:space="preserve"
	>
<style type="text/css">
	.st0{fill:#00C918;}
	.st1{fill:#00EDFF;}
	.st2{fill:#FFFFFF;}
	.st3{fill:#0090D8;}
	.st4{fill:#D89000;}
	.st5{fill:#D82400;}
	.st6{fill:none;stroke:#FFFFFF;stroke-width:4;stroke-miterlimit:10;}
	.st7{fill:none;}
	.st8{fill:none;stroke:#FFFFFF;stroke-width:0.5;stroke-miterlimit:10;}
</style>
<circle class="st0" cx="368.6" cy="155.7" r="63.4"/>
<rect x="94.9" y="97.4" class="st1" width="35.7" height="13.4"/>
<g>
	<g>
		<path class="st2" d="M141.7,101.6l-1.6,0.2c0-0.3-0.1-0.6-0.3-0.7s-0.4-0.2-0.6-0.2c-0.3,0-0.6,0.2-0.9,0.5s-0.4,1-0.5,2
			c0.4-0.5,0.9-0.7,1.5-0.7c0.7,0,1.3,0.3,1.8,0.8s0.7,1.2,0.7,2c0,0.9-0.3,1.6-0.8,2.1s-1.2,0.8-2,0.8c-0.9,0-1.6-0.3-2.1-1
			s-0.8-1.8-0.8-3.3c0-1.6,0.3-2.7,0.9-3.4s1.3-1,2.3-1c0.7,0,1.2,0.2,1.6,0.5S141.6,100.9,141.7,101.6z M138,105.2
			c0,0.5,0.1,0.9,0.4,1.2s0.5,0.4,0.8,0.4s0.6-0.1,0.8-0.4s0.3-0.6,0.3-1.2s-0.1-1-0.3-1.2s-0.5-0.4-0.8-0.4s-0.6,0.1-0.8,0.4
			S138,104.7,138,105.2z"/>
	</g>
</g>
<g>
	<g>
		<path class="st2" d="M59.4,105l1.7,0.5c-0.3,0.9-0.7,1.6-1.3,2.1s-1.4,0.7-2.3,0.7c-1.1,0-2.1-0.4-2.8-1.2s-1.1-1.8-1.1-3.2
			c0-1.4,0.4-2.5,1.1-3.3s1.7-1.2,2.9-1.2c1.1,0,1.9,0.3,2.6,0.9c0.4,0.4,0.7,0.9,0.9,1.6l-1.7,0.4c-0.1-0.4-0.3-0.8-0.6-1.1
			s-0.7-0.4-1.2-0.4c-0.6,0-1.2,0.2-1.5,0.7s-0.6,1.2-0.6,2.2c0,1.1,0.2,1.9,0.6,2.3s0.9,0.7,1.5,0.7c0.5,0,0.9-0.1,1.2-0.4
			S59.3,105.7,59.4,105z"/>
		<path class="st2" d="M62.2,104c0-0.9,0.1-1.6,0.4-2.2c0.2-0.4,0.5-0.8,0.8-1.2s0.7-0.6,1.1-0.8c0.5-0.2,1.2-0.3,1.9-0.3
			c1.3,0,2.3,0.4,3,1.2s1.1,1.9,1.1,3.3s-0.4,2.5-1.1,3.3s-1.8,1.2-3,1.2c-1.3,0-2.3-0.4-3-1.2S62.2,105.3,62.2,104z M64,103.9
			c0,1,0.2,1.7,0.7,2.2s1,0.8,1.7,0.8s1.3-0.2,1.7-0.7s0.7-1.2,0.7-2.2s-0.2-1.7-0.6-2.2s-1-0.7-1.7-0.7s-1.3,0.2-1.7,0.7
			S64,102.9,64,103.9z"/>
		<path class="st2" d="M72,108.2v-8.5h1.7v7.1H78v1.4H72z"/>
		<path class="st2" d="M79.3,99.6h3.2c0.7,0,1.3,0.1,1.6,0.2c0.5,0.1,0.9,0.4,1.3,0.8s0.6,0.8,0.8,1.4s0.3,1.2,0.3,2
			c0,0.7-0.1,1.3-0.3,1.8c-0.2,0.6-0.5,1.1-0.9,1.5c-0.3,0.3-0.7,0.5-1.2,0.7c-0.4,0.1-0.9,0.2-1.5,0.2h-3.3V99.6z M81,101.1v5.7
			h1.3c0.5,0,0.8,0,1-0.1c0.3-0.1,0.5-0.2,0.7-0.4s0.3-0.4,0.5-0.8s0.2-0.9,0.2-1.6s-0.1-1.2-0.2-1.5s-0.3-0.6-0.5-0.8
			s-0.5-0.3-0.8-0.4c-0.2-0.1-0.7-0.1-1.4-0.1C81.8,101.1,81,101.1,81,101.1z"/>
	</g>
</g>
<g>
	<path class="st2" d="M318.6,161.9v-15.6h5.1c1.9,0,3.2,0.1,3.7,0.2c0.9,0.2,1.6,0.7,2.2,1.5s0.9,1.8,0.9,3c0,1-0.2,1.8-0.5,2.4
		s-0.8,1.2-1.3,1.5c-0.5,0.4-1.1,0.6-1.6,0.7c-0.8,0.1-1.8,0.2-3.3,0.2h-2.1v5.9h-3.1V161.9z M321.8,148.9v4.4h1.7
		c1.2,0,2.1-0.1,2.5-0.2c0.4-0.2,0.7-0.4,1-0.8s0.4-0.8,0.4-1.2c0-0.6-0.2-1-0.5-1.4s-0.8-0.6-1.3-0.7c-0.4-0.1-1.1-0.1-2.3-0.1
		H321.8z"/>
	<path class="st2" d="M333.2,161.9v-15.6h11.6v2.6h-8.4v3.5h7.8v2.6h-7.8v4.2h8.7v2.6L333.2,161.9L333.2,161.9z"/>
	<path class="st2" d="M347.8,161.9v-15.6h6.6c1.7,0,2.9,0.1,3.6,0.4s1.4,0.8,1.8,1.5s0.7,1.5,0.7,2.5c0,1.2-0.3,2.1-1,2.9
		c-0.7,0.8-1.7,1.2-3.1,1.4c0.7,0.4,1.2,0.8,1.7,1.3c0.4,0.5,1,1.3,1.8,2.5l1.9,3H358l-2.3-3.4c-0.8-1.2-1.4-2-1.7-2.3
		c-0.3-0.3-0.6-0.5-0.9-0.6s-0.9-0.2-1.6-0.2h-0.6v6.5h-3.1V161.9z M350.9,152.9h2.3c1.5,0,2.5-0.1,2.8-0.2c0.4-0.1,0.7-0.3,0.9-0.7
		c0.2-0.3,0.3-0.7,0.3-1.2s-0.1-0.9-0.4-1.3c-0.3-0.3-0.7-0.5-1.2-0.6c-0.3,0-1-0.1-2.3-0.1h-2.5v4.1H350.9z"/>
	<path class="st2" d="M363.5,161.9v-15.6h10.7v2.6h-7.5v3.7h6.5v2.6h-6.5v6.6L363.5,161.9L363.5,161.9z"/>
	<path class="st2" d="M376.8,161.9v-15.6h11.6v2.6H380v3.5h7.8v2.6H380v4.2h8.7v2.6L376.8,161.9L376.8,161.9z"/>
	<path class="st2" d="M401.3,156.1l3.1,1c-0.5,1.7-1.2,3-2.3,3.8c-1.1,0.8-2.5,1.2-4.1,1.2c-2.1,0-3.8-0.7-5.1-2.1
		c-1.3-1.4-2-3.4-2-5.8c0-2.6,0.7-4.6,2-6.1c1.3-1.4,3.1-2.2,5.3-2.2c1.9,0,3.5,0.6,4.7,1.7c0.7,0.7,1.2,1.6,1.6,2.9l-3.1,0.7
		c-0.2-0.8-0.6-1.4-1.2-1.9s-1.3-0.7-2.1-0.7c-1.2,0-2.1,0.4-2.8,1.2c-0.7,0.8-1.1,2.2-1.1,4c0,2,0.4,3.4,1.1,4.2s1.6,1.3,2.8,1.3
		c0.8,0,1.6-0.3,2.2-0.8C400.6,158.1,401.1,157.3,401.3,156.1z"/>
	<path class="st2" d="M410.6,161.9v-13H406v-2.6h12.4v2.6h-4.6v13H410.6z"/>
</g>
<rect x="94.9" y="123.1" class="st3" width="103.6" height="13.4"/>
<g>
	<g>
		<path class="st2" d="M51.2,130.8l1.7,0.5c-0.3,0.9-0.7,1.6-1.3,2.1s-1.4,0.7-2.3,0.7c-1.1,0-2.1-0.4-2.8-1.2s-1.1-1.8-1.1-3.2
			s0.4-2.5,1.1-3.3s1.7-1.2,2.9-1.2c1.1,0,1.9,0.3,2.6,0.9c0.4,0.4,0.7,0.9,0.9,1.6l-1.7,0.4c-0.1-0.4-0.3-0.8-0.6-1.1
			s-0.7-0.4-1.2-0.4c-0.6,0-1.2,0.2-1.5,0.7s-0.6,1.2-0.6,2.2c0,1.1,0.2,1.9,0.6,2.3s0.9,0.7,1.5,0.7c0.5,0,0.9-0.1,1.2-0.4
			S51,131.4,51.2,130.8z"/>
		<path class="st2" d="M54.4,133.9v-8.6h1.7v3.4h3.4v-3.4h1.7v8.6h-1.7v-3.8h-3.4v3.8H54.4z"/>
		<path class="st2" d="M63,133.9v-8.6h1.7v8.6H63z"/>
		<path class="st2" d="M66.4,133.9v-8.5h1.7v7.1h4.3v1.4H66.4z"/>
		<path class="st2" d="M73.7,133.9v-8.5h1.7v7.1h4.3v1.4H73.7z"/>
		<path class="st2" d="M82.2,133.9v-3.6l-3.1-5h2l2,3.4l2-3.4h2l-3.2,5v3.6H82.2z"/>
	</g>
</g>
<g>
	<g>
		<path class="st2" d="M208.1,133.4h-1.6v-6.2c-0.6,0.6-1.3,1-2.1,1.2v-1.5c0.4-0.1,0.9-0.4,1.4-0.8s0.8-0.9,1-1.4h1.3L208.1,133.4
			L208.1,133.4z"/>
		<path class="st2" d="M210.6,126.4v-1.5h5.6v1.2c-0.5,0.5-0.9,1.1-1.4,2c-0.5,0.9-0.8,1.8-1.1,2.7s-0.4,1.8-0.4,2.6h-1.6
			c0-1.2,0.3-2.4,0.7-3.6c0.5-1.2,1.1-2.3,1.9-3.3L210.6,126.4L210.6,126.4z"/>
	</g>
</g>
<rect x="94.9" y="148.5" class="st0" width="159.1" height="13.4"/>
<g>
	<g>
		<path class="st2" d="M31.9,159.2v-8.6h2.8c1.1,0,1.7,0,2.1,0.1c0.5,0.1,0.9,0.4,1.2,0.8s0.5,1,0.5,1.7c0,0.5-0.1,1-0.3,1.3
			s-0.4,0.6-0.7,0.8s-0.6,0.3-0.9,0.4c-0.4,0.1-1,0.1-1.8,0.1h-1.1v3.2h-1.8V159.2z M33.7,152.1v2.4h0.9c0.7,0,1.1,0,1.4-0.1
			s0.4-0.2,0.5-0.4s0.2-0.4,0.2-0.7s-0.1-0.6-0.3-0.8s-0.4-0.3-0.7-0.4c-0.2,0-0.6-0.1-1.2-0.1h-0.8V152.1z"/>
		<path class="st2" d="M39.9,159.2v-8.6h6.4v1.5h-4.6v1.9H46v1.4h-4.3v2.3h4.8v1.4h-6.6V159.2z"/>
		<path class="st2" d="M47.9,159.2v-8.6h3.7c0.9,0,1.6,0.1,2,0.2s0.7,0.4,1,0.8s0.4,0.8,0.4,1.4c0,0.6-0.2,1.2-0.6,1.6
			s-0.9,0.7-1.7,0.8c0.4,0.2,0.7,0.5,0.9,0.7s0.6,0.7,1,1.4l1,1.7h-2.1l-1.3-1.9c-0.4-0.7-0.8-1.1-0.9-1.3s-0.3-0.3-0.5-0.4
			s-0.5-0.1-0.9-0.1h-0.4v3.6h-1.6V159.2z M49.7,154.3H51c0.8,0,1.4,0,1.6-0.1s0.4-0.2,0.5-0.4s0.2-0.4,0.2-0.6
			c0-0.3-0.1-0.5-0.2-0.7s-0.4-0.3-0.7-0.3c-0.1,0-0.6,0-1.3,0h-1.4C49.7,152.2,49.7,154.3,49.7,154.3z"/>
		<path class="st2" d="M56.6,159.2v-8.6h5.9v1.5h-4.2v2h3.6v1.5h-3.6v3.7L56.6,159.2L56.6,159.2z"/>
		<path class="st2" d="M63.9,159.2v-8.6h6.4v1.5h-4.6v1.9H70v1.4h-4.3v2.3h4.8v1.4h-6.6V159.2z"/>
		<path class="st2" d="M77.4,156.1l1.7,0.5c-0.3,0.9-0.7,1.6-1.3,2.1s-1.4,0.7-2.3,0.7c-1.1,0-2.1-0.4-2.8-1.2s-1.1-1.8-1.1-3.2
			s0.4-2.5,1.1-3.3s1.7-1.2,2.9-1.2c1.1,0,1.9,0.3,2.6,0.9c0.4,0.4,0.7,0.9,0.9,1.6l-1.7,0.4c-0.1-0.4-0.3-0.8-0.6-1.1
			S76,152,75.6,152c-0.6,0-1.2,0.2-1.5,0.7s-0.6,1.2-0.6,2.2c0,1.1,0.2,1.9,0.6,2.3s0.9,0.7,1.5,0.7c0.5,0,0.9-0.1,1.2-0.4
			S77.3,156.7,77.4,156.1z"/>
		<path class="st2" d="M82.5,159.2v-7.1H80v-1.5h6.8v1.5h-2.5v7.1H82.5z"/>
	</g>
</g>
<g>
	<g>
		<path class="st2" d="M266.2,158.5v1.5h-5.8c0.1-0.6,0.3-1.1,0.6-1.6s0.9-1.2,1.9-2.1c0.7-0.7,1.2-1.2,1.4-1.4
			c0.2-0.3,0.3-0.7,0.3-1c0-0.4-0.1-0.6-0.3-0.8s-0.5-0.3-0.8-0.3s-0.6,0.1-0.8,0.3s-0.3,0.6-0.4,1l-1.6-0.2c0.1-0.9,0.4-1.6,0.9-2
			s1.2-0.6,1.9-0.6c0.8,0,1.5,0.2,2,0.7s0.7,1,0.7,1.7c0,0.4-0.1,0.8-0.2,1.1s-0.4,0.7-0.7,1.1c-0.2,0.3-0.6,0.6-1.1,1.1
			s-0.8,0.8-1,0.9s-0.3,0.3-0.3,0.5h3.3V158.5z"/>
		<path class="st2" d="M272.9,153.5l-1.6,0.2c0-0.3-0.1-0.6-0.3-0.7s-0.4-0.2-0.6-0.2c-0.3,0-0.6,0.2-0.9,0.5s-0.4,1-0.5,2
			c0.4-0.5,0.9-0.7,1.5-0.7c0.7,0,1.3,0.3,1.8,0.8s0.7,1.2,0.7,2c0,0.9-0.3,1.6-0.8,2.1s-1.2,0.8-2,0.8c-0.9,0-1.6-0.3-2.1-1
			s-0.8-1.8-0.8-3.3c0-1.6,0.3-2.7,0.9-3.4s1.3-1,2.3-1c0.7,0,1.2,0.2,1.6,0.5S272.7,152.8,272.9,153.5z M269.1,157.1
			c0,0.5,0.1,0.9,0.4,1.2s0.5,0.4,0.8,0.4s0.6-0.1,0.8-0.4s0.3-0.6,0.3-1.2c0-0.6-0.1-1-0.3-1.2s-0.5-0.4-0.8-0.4s-0.6,0.1-0.8,0.4
			S269.1,156.6,269.1,157.1z"/>
	</g>
</g>
<rect x="94.9" y="174.3" class="st4" width="72.6" height="13.4"/>
<g>
	<g>
		<path class="st2" d="M51.2,185l-2.1-8.6h1.8l1.3,5.9l1.6-5.9h2.1l1.5,6l1.3-6h1.7l-2.1,8.6h-1.8l-1.7-6.4L53,185H51.2z"/>
		<path class="st2" d="M68.3,185h-1.9l-0.8-2h-3.4l-0.7,2h-1.8l3.3-8.6h1.8L68.3,185z M65.1,181.6l-1.2-3.2l-1.2,3.2H65.1z"/>
		<path class="st2" d="M69.3,185v-8.6H73c0.9,0,1.6,0.1,2,0.2s0.7,0.4,1,0.8s0.4,0.8,0.4,1.4c0,0.6-0.2,1.2-0.6,1.6
			s-0.9,0.7-1.7,0.8c0.4,0.2,0.7,0.5,0.9,0.7s0.6,0.7,1,1.4l1,1.7h-2.1l-1.3-1.9c-0.4-0.7-0.8-1.1-0.9-1.3s-0.3-0.3-0.5-0.4
			s-0.5-0.1-0.9-0.1H71v3.6h-1.7V185z M71,180h1.3c0.8,0,1.4,0,1.6-0.1s0.4-0.2,0.5-0.4s0.2-0.4,0.2-0.6c0-0.3-0.1-0.5-0.2-0.7
			s-0.4-0.3-0.7-0.3c-0.1,0-0.6,0-1.3,0H71V180z"/>
		<path class="st2" d="M77.9,185v-8.6h2.6l1.6,5.9l1.5-5.9h2.6v8.6h-1.6v-6.8l-1.7,6.8h-1.7l-1.7-6.8v6.8H77.9z"/>
	</g>
</g>
<g>
	<g>
		<path class="st2" d="M176.3,185.2h-1.6V179c-0.6,0.6-1.3,1-2.1,1.2v-1.5c0.4-0.1,0.9-0.4,1.4-0.8s0.8-0.9,1-1.4h1.3L176.3,185.2
			L176.3,185.2z"/>
		<path class="st2" d="M184.3,183.7v1.5h-5.8c0.1-0.6,0.3-1.1,0.6-1.6s0.9-1.2,1.9-2.1c0.7-0.7,1.2-1.2,1.4-1.4
			c0.2-0.3,0.3-0.7,0.3-1c0-0.4-0.1-0.6-0.3-0.8s-0.5-0.3-0.8-0.3s-0.6,0.1-0.8,0.3s-0.3,0.6-0.4,1l-1.6-0.2c0.1-0.9,0.4-1.6,0.9-2
			s1.2-0.6,1.9-0.6c0.8,0,1.5,0.2,2,0.7s0.7,1,0.7,1.7c0,0.4-0.1,0.8-0.2,1.1s-0.4,0.7-0.7,1.1c-0.2,0.3-0.6,0.6-1.1,1.1
			s-0.8,0.8-1,0.9s-0.3,0.3-0.3,0.5h3.3V183.7z"/>
	</g>
</g>
<rect x="94.9" y="200" class="st5" width="11.7" height="13.4"/>
<g>
	<g>
		<path class="st2" d="M62.6,210.7v-8.6h1.7v3.4h3.4v-3.4h1.7v8.6h-1.7v-3.8h-3.4v3.8H62.6z"/>
		<path class="st2" d="M70.9,206.4c0-0.9,0.1-1.6,0.4-2.2c0.2-0.4,0.5-0.8,0.8-1.2s0.7-0.6,1.1-0.8c0.5-0.2,1.2-0.3,1.9-0.3
			c1.3,0,2.3,0.4,3,1.2s1.1,1.9,1.1,3.3c0,1.4-0.4,2.5-1.1,3.3s-1.8,1.2-3,1.2c-1.3,0-2.3-0.4-3-1.2S70.9,207.8,70.9,206.4z
			 M72.7,206.4c0,1,0.2,1.7,0.7,2.2s1,0.8,1.7,0.8s1.3-0.2,1.7-0.7s0.7-1.2,0.7-2.2s-0.2-1.7-0.6-2.2s-1-0.7-1.7-0.7
			s-1.3,0.2-1.7,0.7S72.7,205.4,72.7,206.4z"/>
		<path class="st2" d="M82.5,210.7v-7.1H80v-1.5h6.8v1.5h-2.5v7.1H82.5z"/>
	</g>
</g>
<g>
	<g>
		<path class="st2" d="M119.9,210.1v1.5h-5.8c0.1-0.6,0.3-1.1,0.6-1.6s0.9-1.2,1.9-2.1c0.7-0.7,1.2-1.2,1.4-1.4
			c0.2-0.3,0.3-0.7,0.3-1c0-0.4-0.1-0.6-0.3-0.8s-0.5-0.3-0.8-0.3s-0.6,0.1-0.8,0.3s-0.3,0.6-0.4,1l-1.6-0.2c0.1-0.9,0.4-1.6,0.9-2
			s1.2-0.6,1.9-0.6c0.8,0,1.5,0.2,2,0.7s0.7,1,0.7,1.7c0,0.4-0.1,0.8-0.2,1.1s-0.4,0.7-0.7,1.1c-0.2,0.3-0.6,0.6-1.1,1.1
			s-0.8,0.8-1,0.9s-0.3,0.3-0.3,0.5h3.3V210.1z"/>
	</g>
</g>
<circle class="st6" cx="368.6" cy="155.4" r="63.4"/>
<g>
	<g>
		<g>
			<rect x="411.3" y="42.6" class="st7" width="4.9" height="5.8"/>
			<g>
				<polygon class="st2" points="411.3,42.6 413.7,43.6 416.1,42.6 413.7,48.4 				"/>
			</g>
		</g>
	</g>
</g>
<g>
	<g>
		<g>
			<rect x="411.3" y="34.5" class="st7" width="4.9" height="5.8"/>
			<g>
				<polygon class="st2" points="416.1,40.3 413.7,39.3 411.3,40.3 413.7,34.5 				"/>
			</g>
		</g>
	</g>
</g>
<g>
	<path class="st2" d="M322.8,45.5v-8.9h1.8l2.1,6.3c0.2,0.6,0.3,1,0.4,1.3c0.1-0.3,0.3-0.8,0.5-1.4l2.1-6.2h1.6v8.9h-1.1v-7.4
		l-2.6,7.4h-1.1l-2.6-7.5v7.5C323.9,45.5,322.8,45.5,322.8,45.5z"/>
	<path class="st2" d="M337.2,44.7c-0.4,0.3-0.8,0.6-1.2,0.7s-0.8,0.2-1.2,0.2c-0.7,0-1.2-0.2-1.6-0.5s-0.6-0.8-0.6-1.3
		c0-0.3,0.1-0.6,0.2-0.9c0.1-0.3,0.3-0.5,0.6-0.6c0.2-0.2,0.5-0.3,0.8-0.4c0.2-0.1,0.5-0.1,1-0.2c0.9-0.1,1.5-0.2,1.9-0.4
		c0-0.1,0-0.2,0-0.3c0-0.4-0.1-0.8-0.3-0.9c-0.3-0.2-0.7-0.4-1.2-0.4s-0.9,0.1-1.1,0.3s-0.4,0.5-0.5,1l-1.1-0.1
		c0.1-0.5,0.3-0.8,0.5-1.1s0.5-0.5,1-0.6c0.4-0.2,0.9-0.2,1.5-0.2c0.5,0,1,0.1,1.3,0.2s0.6,0.3,0.8,0.5c0.2,0.2,0.3,0.4,0.3,0.7
		c0,0.2,0.1,0.5,0.1,1v1.5c0,1,0,1.7,0.1,1.9c0,0.3,0.1,0.5,0.3,0.8h-1.1C337.3,45.3,337.2,45,337.2,44.7z M337.1,42.3
		c-0.4,0.2-1,0.3-1.8,0.4c-0.4,0.1-0.8,0.1-1,0.2s-0.3,0.2-0.4,0.4s-0.2,0.3-0.2,0.5c0,0.3,0.1,0.5,0.3,0.7c0.2,0.2,0.5,0.3,1,0.3
		c0.4,0,0.8-0.1,1.1-0.3c0.3-0.2,0.6-0.4,0.7-0.8c0.1-0.2,0.2-0.6,0.2-1.1L337.1,42.3L337.1,42.3z"/>
	<path class="st2" d="M339.9,45.5v-6.4h1v1c0.3-0.5,0.5-0.8,0.7-0.9c0.2-0.1,0.4-0.2,0.7-0.2c0.4,0,0.7,0.1,1.1,0.4l-0.4,1
		c-0.3-0.2-0.5-0.2-0.8-0.2c-0.2,0-0.5,0.1-0.6,0.2c-0.2,0.1-0.3,0.3-0.4,0.6c-0.1,0.4-0.2,0.8-0.2,1.3v3.4h-1.1V45.5z"/>
	<path class="st2" d="M348.2,43.1l1.1,0.1c-0.1,0.7-0.4,1.3-0.9,1.7s-1.1,0.6-1.8,0.6c-0.9,0-1.6-0.3-2.1-0.9s-0.8-1.4-0.8-2.5
		c0-0.7,0.1-1.3,0.3-1.8c0.2-0.5,0.6-0.9,1-1.2c0.5-0.3,1-0.4,1.5-0.4c0.7,0,1.3,0.2,1.7,0.5c0.4,0.4,0.7,0.9,0.9,1.5l-1.1,0.2
		c-0.1-0.4-0.3-0.8-0.5-1s-0.6-0.3-0.9-0.3c-0.5,0-1,0.2-1.3,0.6s-0.5,1-0.5,1.9s0.2,1.5,0.5,1.9s0.8,0.6,1.3,0.6
		c0.4,0,0.8-0.1,1.1-0.4C347.9,44.1,348.1,43.7,348.2,43.1z"/>
	<path class="st2" d="M350.2,45.5v-8.9h1.1v3.2c0.5-0.6,1.1-0.9,1.9-0.9c0.5,0,0.9,0.1,1.2,0.3s0.6,0.4,0.8,0.8
		c0.2,0.3,0.2,0.8,0.2,1.4v4.1h-1.1v-4.1c0-0.5-0.1-0.9-0.4-1.2c-0.2-0.2-0.6-0.4-1-0.4c-0.3,0-0.6,0.1-0.9,0.3s-0.5,0.4-0.6,0.7
		s-0.2,0.7-0.2,1.2v3.5C351.2,45.5,350.2,45.5,350.2,45.5z"/>
	<path class="st2" d="M366,44.4v1h-5.9c0-0.3,0-0.5,0.1-0.8c0.1-0.4,0.4-0.8,0.7-1.2c0.3-0.4,0.8-0.8,1.4-1.3c1-0.8,1.6-1.4,2-1.9
		c0.3-0.5,0.5-0.9,0.5-1.3c0-0.4-0.2-0.8-0.5-1.1s-0.7-0.4-1.2-0.4s-0.9,0.2-1.3,0.5s-0.5,0.8-0.5,1.3l-1.1-0.1
		c0.1-0.8,0.4-1.5,0.9-1.9s1.2-0.7,2-0.7c0.9,0,1.5,0.2,2,0.7s0.7,1.1,0.7,1.8c0,0.4-0.1,0.7-0.2,1s-0.4,0.7-0.7,1.1
		s-0.9,0.9-1.7,1.6c-0.7,0.5-1.1,0.9-1.3,1.1c-0.2,0.2-0.3,0.4-0.5,0.6C361.4,44.4,366,44.4,366,44.4z"/>
	<path class="st2" d="M367.1,41.1c0-1,0.1-1.9,0.3-2.5c0.2-0.6,0.5-1.1,1-1.5c0.4-0.3,1-0.5,1.6-0.5c0.5,0,0.9,0.1,1.3,0.3
		s0.7,0.5,0.9,0.8c0.2,0.4,0.4,0.8,0.6,1.3s0.2,1.2,0.2,2.1c0,1-0.1,1.9-0.3,2.5c-0.2,0.6-0.5,1.1-1,1.5c-0.4,0.3-1,0.5-1.6,0.5
		c-0.9,0-1.5-0.3-2-0.9C367.4,44,367.1,42.8,367.1,41.1z M368.2,41.1c0,1.5,0.2,2.4,0.5,2.9s0.8,0.7,1.3,0.7s0.9-0.2,1.3-0.7
		s0.5-1.5,0.5-2.9c0-1.5-0.2-2.4-0.5-2.9s-0.8-0.7-1.3-0.7s-0.9,0.2-1.2,0.6C368.4,38.7,368.2,39.7,368.2,41.1z"/>
	<path class="st2" d="M378.1,45.5H377v-6.9c-0.3,0.3-0.6,0.5-1,0.8s-0.8,0.4-1.1,0.6v-1.1c0.6-0.3,1.1-0.6,1.6-1s0.8-0.8,1-1.2h0.7
		v8.8H378.1z"/>
	<path class="st2" d="M382.6,40.7c-0.5-0.2-0.8-0.4-1-0.7s-0.3-0.7-0.3-1.1c0-0.6,0.2-1.2,0.7-1.6c0.5-0.4,1.1-0.7,1.9-0.7
		s1.4,0.2,1.9,0.7c0.5,0.4,0.7,1,0.7,1.6c0,0.4-0.1,0.8-0.3,1.1c-0.2,0.3-0.5,0.5-1,0.7c0.5,0.2,1,0.5,1.2,0.9
		c0.3,0.4,0.4,0.9,0.4,1.4c0,0.8-0.3,1.4-0.8,1.9s-1.2,0.8-2.1,0.8s-1.6-0.3-2.1-0.8S381,43.7,381,43c0-0.6,0.1-1.1,0.4-1.4
		C381.6,41.1,382,40.8,382.6,40.7z M382,42.9c0,0.3,0.1,0.6,0.2,0.9c0.1,0.3,0.4,0.5,0.7,0.7c0.3,0.2,0.6,0.2,0.9,0.2
		c0.5,0,0.9-0.2,1.3-0.5c0.3-0.3,0.5-0.8,0.5-1.3s-0.2-1-0.5-1.3s-0.8-0.5-1.3-0.5s-0.9,0.2-1.3,0.5C382.2,42,382,42.4,382,42.9z
		 M382.4,38.8c0,0.4,0.1,0.8,0.4,1c0.3,0.3,0.6,0.4,1.1,0.4c0.4,0,0.8-0.1,1-0.4c0.3-0.3,0.4-0.6,0.4-1s-0.1-0.7-0.4-1
		s-0.6-0.4-1-0.4s-0.8,0.1-1,0.4S382.4,38.5,382.4,38.8z"/>
</g>
<g>
	<path class="st8" d="M429,53.6c0,1.1-0.9,2-2,2H315c-1.1,0-2-0.9-2-2v-23c0-1.1,0.9-2,2-2h112c1.1,0,2,0.9,2,2V53.6z"/>
</g>
<g>
	<path class="st2" d="M38.7,23.6h7.7c1.5,0,2.7,0.1,3.4,0.2c0.8,0.1,1.4,0.4,2,0.8c0.6,0.4,1.1,0.9,1.5,1.6c0.4,0.7,0.6,1.4,0.6,2.3
		c0,0.9-0.2,1.7-0.7,2.5c-0.5,0.8-1.1,1.3-2,1.7c1.2,0.3,2.1,0.9,2.7,1.8c0.6,0.8,0.9,1.8,0.9,2.9c0,0.9-0.2,1.7-0.6,2.6
		c-0.4,0.8-1,1.5-1.7,2c-0.7,0.5-1.6,0.8-2.6,0.9c-0.6,0.1-2.2,0.1-4.7,0.1h-6.6V23.6z M42.6,26.8v4.5h2.6c1.5,0,2.5,0,2.8-0.1
		c0.7-0.1,1.2-0.3,1.6-0.7c0.4-0.4,0.6-0.9,0.6-1.5c0-0.6-0.2-1.1-0.5-1.5c-0.3-0.4-0.8-0.6-1.5-0.7c-0.4,0-1.5-0.1-3.3-0.1H42.6z
		 M42.6,34.5v5.2h3.6c1.4,0,2.3,0,2.7-0.1c0.6-0.1,1.1-0.4,1.4-0.8c0.4-0.4,0.5-1,0.5-1.6c0-0.6-0.1-1.1-0.4-1.5
		c-0.3-0.4-0.7-0.7-1.2-0.9c-0.5-0.2-1.7-0.3-3.5-0.3H42.6z"/>
	<path class="st2" d="M58.1,23.6H62v10.4c0,1.7,0,2.7,0.1,3.2c0.2,0.8,0.6,1.4,1.2,1.9c0.6,0.5,1.5,0.7,2.6,0.7
		c1.1,0,1.9-0.2,2.5-0.7c0.6-0.5,0.9-1,1-1.7c0.1-0.7,0.2-1.8,0.2-3.3V23.6h3.9v10.1c0,2.3-0.1,4-0.3,4.9c-0.2,1-0.6,1.8-1.2,2.4
		c-0.6,0.7-1.3,1.2-2.3,1.6c-0.9,0.4-2.2,0.6-3.7,0.6c-1.8,0-3.2-0.2-4.2-0.6s-1.7-1-2.3-1.7c-0.6-0.7-0.9-1.4-1.1-2.1
		c-0.3-1.1-0.4-2.7-0.4-4.9V23.6z"/>
	<path class="st2" d="M77.5,42.9V23.6h3.9v19.3H77.5z"/>
	<path class="st2" d="M85.2,42.9V23.8h3.9v15.9h9.7v3.3H85.2z"/>
	<path class="st2" d="M101.5,23.6h7.1c1.6,0,2.8,0.1,3.7,0.4c1.1,0.3,2.1,0.9,2.9,1.8c0.8,0.9,1.4,1.9,1.8,3.1
		c0.4,1.2,0.6,2.8,0.6,4.6c0,1.6-0.2,3-0.6,4.1c-0.5,1.4-1.2,2.5-2.1,3.4c-0.7,0.7-1.6,1.2-2.7,1.5c-0.9,0.3-2,0.4-3.4,0.4h-7.3
		V23.6z M105.4,26.9v12.8h2.9c1.1,0,1.9-0.1,2.4-0.2c0.6-0.2,1.2-0.4,1.6-0.8s0.8-1,1-1.9c0.3-0.9,0.4-2,0.4-3.5
		c0-1.5-0.1-2.6-0.4-3.4s-0.6-1.4-1.1-1.9c-0.5-0.4-1.1-0.8-1.8-0.9c-0.5-0.1-1.6-0.2-3.2-0.2H105.4z"/>
	<path class="st2" d="M120.9,42.9V23.6h3.9v19.3H120.9z"/>
	<path class="st2" d="M128.5,42.9V23.6h3.8l7.9,12.9V23.6h3.6v19.3h-3.9l-7.8-12.6v12.6H128.5z"/>
	<path class="st2" d="M156.9,35.8v-3.3h8.4v7.7c-0.8,0.8-2,1.5-3.5,2.1c-1.5,0.6-3.1,0.9-4.7,0.9c-2,0-3.8-0.4-5.3-1.3
		c-1.5-0.8-2.6-2.1-3.4-3.6s-1.1-3.3-1.1-5.1c0-2,0.4-3.8,1.3-5.4s2.1-2.8,3.7-3.6c1.2-0.6,2.8-1,4.6-1c2.4,0,4.3,0.5,5.6,1.5
		c1.3,1,2.2,2.4,2.6,4.2l-3.9,0.7c-0.3-0.9-0.8-1.7-1.5-2.2s-1.7-0.8-2.8-0.8c-1.7,0-3.1,0.5-4.1,1.6c-1,1.1-1.5,2.7-1.5,4.8
		c0,2.3,0.5,4,1.5,5.2c1,1.1,2.4,1.7,4,1.7c0.8,0,1.6-0.2,2.5-0.5c0.8-0.3,1.5-0.7,2.1-1.2v-2.4H156.9z"/>
	<path class="st2" d="M188.1,28.4l-3.6,0.4c-0.1-0.7-0.3-1.3-0.7-1.6c-0.4-0.4-0.8-0.5-1.4-0.5c-0.8,0-1.4,0.4-2,1.1s-0.9,2.2-1,4.4
		c0.9-1.1,2.1-1.6,3.4-1.6c1.5,0,2.9,0.6,4,1.8c1.1,1.2,1.7,2.7,1.7,4.6c0,2-0.6,3.6-1.7,4.8c-1.2,1.2-2.6,1.8-4.5,1.8
		c-1.9,0-3.5-0.8-4.8-2.3s-1.9-4-1.9-7.4c0-3.5,0.7-6.1,2-7.6c1.3-1.6,3-2.3,5.1-2.3c1.5,0,2.7,0.4,3.6,1.2
		C187.2,25.6,187.8,26.8,188.1,28.4z M179.7,36.4c0,1.2,0.3,2.1,0.8,2.8c0.6,0.7,1.2,1,1.9,1c0.7,0,1.3-0.3,1.7-0.8s0.7-1.4,0.7-2.6
		c0-1.3-0.2-2.2-0.7-2.8c-0.5-0.6-1.1-0.9-1.8-0.9c-0.7,0-1.3,0.3-1.8,0.8S179.7,35.3,179.7,36.4z"/>
	<path class="st2" d="M197.8,42.9V39h-7.9v-3.2l8.4-12.3h3.1v12.2h2.4V39h-2.4v3.9H197.8z M197.8,35.8v-6.6l-4.4,6.6H197.8z"/>
</g>
<g>
	<path class="st2" d="M42.2,57.4v-0.9l3.3,0v2.9c-0.5,0.4-1,0.7-1.6,0.9c-0.5,0.2-1.1,0.3-1.7,0.3c-0.8,0-1.5-0.2-2.1-0.5
		c-0.6-0.3-1.1-0.8-1.4-1.4s-0.5-1.3-0.5-2.1c0-0.8,0.2-1.5,0.5-2.1c0.3-0.7,0.8-1.2,1.4-1.5s1.3-0.5,2.1-0.5c0.6,0,1.1,0.1,1.5,0.3
		c0.5,0.2,0.8,0.4,1.1,0.8s0.5,0.8,0.6,1.3l-0.9,0.3c-0.1-0.4-0.3-0.7-0.4-0.9s-0.4-0.4-0.8-0.6c-0.3-0.1-0.7-0.2-1.1-0.2
		c-0.5,0-0.9,0.1-1.2,0.2c-0.3,0.1-0.6,0.3-0.8,0.6c-0.2,0.2-0.4,0.5-0.5,0.8c-0.2,0.5-0.3,1-0.3,1.6c0,0.7,0.1,1.3,0.4,1.8
		c0.2,0.5,0.6,0.8,1.1,1.1s1,0.3,1.5,0.3c0.5,0,0.9-0.1,1.3-0.3c0.4-0.2,0.8-0.4,1-0.6v-1.5H42.2z"/>
	<path class="st2" d="M47.1,60.5v-7.9h3.5c0.7,0,1.2,0.1,1.6,0.2c0.4,0.1,0.7,0.4,0.9,0.7s0.3,0.8,0.3,1.2c0,0.6-0.2,1-0.5,1.4
		s-0.9,0.6-1.7,0.7c0.3,0.1,0.5,0.3,0.6,0.4c0.3,0.3,0.6,0.6,0.9,1l1.4,2.1h-1.3l-1-1.6c-0.3-0.5-0.6-0.8-0.8-1.1s-0.4-0.4-0.5-0.5
		c-0.2-0.1-0.3-0.2-0.5-0.2c-0.1,0-0.3,0-0.6,0h-1.2v3.5H47.1z M48.2,56.1h2.2c0.5,0,0.8,0,1.1-0.1c0.3-0.1,0.5-0.3,0.6-0.5
		c0.1-0.2,0.2-0.5,0.2-0.7c0-0.4-0.1-0.7-0.4-0.9c-0.3-0.2-0.7-0.4-1.3-0.4h-2.5V56.1z"/>
	<path class="st2" d="M54.7,56.7c0-1.3,0.4-2.3,1.1-3.1c0.7-0.7,1.6-1.1,2.7-1.1c0.7,0,1.4,0.2,2,0.5s1,0.8,1.3,1.5
		c0.3,0.6,0.5,1.3,0.5,2.1c0,0.8-0.2,1.5-0.5,2.1s-0.8,1.1-1.4,1.4c-0.6,0.3-1.2,0.5-1.9,0.5c-0.7,0-1.4-0.2-2-0.5s-1-0.8-1.3-1.5
		S54.7,57.4,54.7,56.7z M55.8,56.7c0,0.9,0.3,1.7,0.8,2.2c0.5,0.5,1.2,0.8,1.9,0.8c0.8,0,1.4-0.3,1.9-0.8c0.5-0.6,0.8-1.3,0.8-2.3
		c0-0.6-0.1-1.2-0.3-1.7c-0.2-0.5-0.5-0.8-1-1.1c-0.4-0.3-0.9-0.4-1.4-0.4c-0.7,0-1.4,0.3-1.9,0.8C56.1,54.6,55.8,55.5,55.8,56.7z"
		/>
	<path class="st2" d="M68.8,52.6h1v4.5c0,0.8-0.1,1.4-0.3,1.9s-0.5,0.8-1,1.1c-0.5,0.3-1.1,0.4-1.8,0.4c-0.7,0-1.3-0.1-1.8-0.4
		s-0.8-0.6-1-1.1c-0.2-0.5-0.3-1.1-0.3-2v-4.5h1v4.5c0,0.7,0.1,1.2,0.2,1.5c0.1,0.3,0.3,0.6,0.7,0.7c0.3,0.2,0.7,0.3,1.1,0.3
		c0.8,0,1.3-0.2,1.6-0.5s0.5-1,0.5-2V52.6z"/>
	<path class="st2" d="M71.5,60.5v-7.9h1.1l4.1,6.2v-6.2h1v7.9h-1.1l-4.1-6.2v6.2H71.5z"/>
	<path class="st2" d="M79.5,60.5v-7.9h2.7c0.6,0,1.1,0,1.4,0.1c0.5,0.1,0.8,0.3,1.2,0.6c0.4,0.4,0.7,0.8,0.9,1.3
		c0.2,0.5,0.3,1.2,0.3,1.9c0,0.6-0.1,1.1-0.2,1.6s-0.3,0.8-0.5,1.1c-0.2,0.3-0.5,0.5-0.7,0.7c-0.3,0.2-0.6,0.3-0.9,0.4
		c-0.4,0.1-0.8,0.1-1.3,0.1H79.5z M80.5,59.6h1.7c0.5,0,0.9,0,1.2-0.1c0.3-0.1,0.5-0.2,0.7-0.4c0.2-0.2,0.4-0.6,0.6-1
		c0.1-0.4,0.2-0.9,0.2-1.5c0-0.8-0.1-1.5-0.4-1.9c-0.3-0.4-0.6-0.7-1-0.9c-0.3-0.1-0.7-0.2-1.3-0.2h-1.7V59.6z"/>
	<path class="st2" d="M90.5,60.5v-7.9h5.3v0.9h-4.3V56h3.7v0.9h-3.7v3.6H90.5z"/>
	<path class="st2" d="M97.2,60.5v-7.9h1v6.9h3.9v0.9H97.2z"/>
	<path class="st2" d="M103,56.7c0-1.3,0.4-2.3,1.1-3.1c0.7-0.7,1.6-1.1,2.7-1.1c0.7,0,1.4,0.2,2,0.5s1,0.8,1.3,1.5
		c0.3,0.6,0.5,1.3,0.5,2.1c0,0.8-0.2,1.5-0.5,2.1s-0.8,1.1-1.4,1.4c-0.6,0.3-1.2,0.5-1.9,0.5c-0.7,0-1.4-0.2-2-0.5s-1-0.8-1.3-1.5
		S103,57.4,103,56.7z M104.1,56.7c0,0.9,0.3,1.7,0.8,2.2c0.5,0.5,1.2,0.8,1.9,0.8c0.8,0,1.4-0.3,1.9-0.8c0.5-0.6,0.8-1.3,0.8-2.3
		c0-0.6-0.1-1.2-0.3-1.7c-0.2-0.5-0.5-0.8-1-1.1c-0.4-0.3-0.9-0.4-1.4-0.4c-0.7,0-1.4,0.3-1.9,0.8C104.4,54.6,104.1,55.5,104.1,56.7
		z"/>
	<path class="st2" d="M111.6,56.7c0-1.3,0.4-2.3,1.1-3.1c0.7-0.7,1.6-1.1,2.7-1.1c0.7,0,1.4,0.2,2,0.5s1,0.8,1.3,1.5
		c0.3,0.6,0.5,1.3,0.5,2.1c0,0.8-0.2,1.5-0.5,2.1s-0.8,1.1-1.4,1.4c-0.6,0.3-1.2,0.5-1.9,0.5c-0.7,0-1.4-0.2-2-0.5s-1-0.8-1.3-1.5
		S111.6,57.4,111.6,56.7z M112.6,56.7c0,0.9,0.3,1.7,0.8,2.2c0.5,0.5,1.2,0.8,1.9,0.8c0.8,0,1.4-0.3,1.9-0.8
		c0.5-0.6,0.8-1.3,0.8-2.3c0-0.6-0.1-1.2-0.3-1.7c-0.2-0.5-0.5-0.8-1-1.1c-0.4-0.3-0.9-0.4-1.4-0.4c-0.7,0-1.4,0.3-1.9,0.8
		C112.9,54.6,112.6,55.5,112.6,56.7z"/>
	<path class="st2" d="M120.5,60.5v-7.9h3.5c0.7,0,1.2,0.1,1.6,0.2c0.4,0.1,0.7,0.4,0.9,0.7s0.3,0.8,0.3,1.2c0,0.6-0.2,1-0.5,1.4
		s-0.9,0.6-1.7,0.7c0.3,0.1,0.5,0.3,0.6,0.4c0.3,0.3,0.6,0.6,0.9,1l1.4,2.1h-1.3l-1-1.6c-0.3-0.5-0.6-0.8-0.8-1.1s-0.4-0.4-0.5-0.5
		c-0.2-0.1-0.3-0.2-0.5-0.2c-0.1,0-0.3,0-0.6,0h-1.2v3.5H120.5z M121.5,56.1h2.2c0.5,0,0.8,0,1.1-0.1c0.3-0.1,0.5-0.3,0.6-0.5
		c0.1-0.2,0.2-0.5,0.2-0.7c0-0.4-0.1-0.7-0.4-0.9c-0.3-0.2-0.7-0.4-1.3-0.4h-2.5V56.1z"/>
	<path class="st2" d="M128.5,55.9v-1.1h1.1v1.1H128.5z M128.5,60.5v-1.1h1.1v1.1H128.5z"/>
	<path class="st2" d="M136.3,60.5v-6.9h-2.6v-0.9h6.2v0.9h-2.6v6.9H136.3z"/>
	<path class="st2" d="M141,60.5v-7.9h1v3.2h4.1v-3.2h1v7.9h-1v-3.7h-4.1v3.7H141z"/>
	<path class="st2" d="M149,60.5v-7.9h5.7v0.9H150V56h4.4v0.9H150v2.7h4.8v0.9H149z"/>
	<path class="st2" d="M155.4,60.5l3-7.9h1.1l3.2,7.9h-1.2l-0.9-2.4h-3.3l-0.9,2.4H155.4z M157.7,57.3h2.7l-0.8-2.2
		c-0.3-0.7-0.4-1.2-0.6-1.6c-0.1,0.5-0.2,1-0.4,1.5L157.7,57.3z"/>
	<path class="st2" d="M164.8,60.5v-6.9h-2.6v-0.9h6.2v0.9h-2.6v6.9H164.8z"/>
	<path class="st2" d="M169.6,60.5v-7.9h3.5c0.7,0,1.2,0.1,1.6,0.2c0.4,0.1,0.7,0.4,0.9,0.7s0.3,0.8,0.3,1.2c0,0.6-0.2,1-0.5,1.4
		s-0.9,0.6-1.7,0.7c0.3,0.1,0.5,0.3,0.6,0.4c0.3,0.3,0.6,0.6,0.9,1l1.4,2.1h-1.3l-1-1.6c-0.3-0.5-0.6-0.8-0.8-1.1s-0.4-0.4-0.5-0.5
		c-0.2-0.1-0.3-0.2-0.5-0.2c-0.1,0-0.3,0-0.6,0h-1.2v3.5H169.6z M170.6,56.1h2.2c0.5,0,0.8,0,1.1-0.1c0.3-0.1,0.5-0.3,0.6-0.5
		c0.1-0.2,0.2-0.5,0.2-0.7c0-0.4-0.1-0.7-0.4-0.9c-0.3-0.2-0.7-0.4-1.3-0.4h-2.5V56.1z"/>
	<path class="st2" d="M177.5,60.5v-7.9h5.7v0.9h-4.7V56h4.4v0.9h-4.4v2.7h4.8v0.9H177.5z"/>
</g>
</svg>
